<?xml version="1.0" encoding="iso-8859-1"?>
<!-- Generator: Adobe Illustrator 19.0.0, SVG Export Plug-In . SVG Version: 6.00 Build 0)  -->
<svg version="1.1" id="Layer_1" xmlns="http://www.w3.org/2000/svg" xmlns:xlink="http://www.w3.org/1999/xlink" x="0px" y="0px"
	 viewBox="0 0 502.746 502.746" style="enable-background:new 0 0 502.746 502.746;" xml:space="preserve">
<path style="fill:#89FF78;" d="M251.632,19.699c-29.412,18.133-51.696,99.73-51.696,138.673c0,38.959,22.284,36.226,51.696,43.126"
	/>
<path style="fill:#0D89BA;" d="M251.648,221.198c-1.489,0-3.001-0.173-4.521-0.528c-4.198-0.985-8.263-1.757-12.107-2.489
	c-23.127-4.427-54.776-10.5-54.776-59.802c0-41.527,23.174-132.096,61.062-155.435c9.24-5.711,21.378-2.836,27.081,6.428
	c5.719,9.255,2.828,21.386-6.42,27.089c-19.637,12.099-42.338,84.086-42.338,121.919c0,16.746,0.425,16.825,22.812,21.118
	c4.356,0.835,8.94,1.717,13.69,2.836c10.594,2.481,17.164,13.076,14.675,23.67C268.678,215.07,260.588,221.198,251.648,221.198z"/>
<path style="fill:#20D812;" d="M251.128,19.699c29.412,18.133,51.68,99.73,51.68,138.673c0,38.959-22.292,36.226-51.68,43.126"/>
<path style="fill:#0D89BA;" d="M251.112,221.198c-8.94,0-17.022-6.12-19.157-15.202c-2.489-10.587,4.08-21.181,14.667-23.67
	c4.758-1.119,9.334-2.001,13.682-2.836c22.37-4.293,22.804-4.372,22.804-21.118c0-37.841-22.701-109.82-42.323-121.919
	c-9.255-5.711-12.13-17.841-6.42-27.089c5.703-9.271,17.857-12.13,27.081-6.428c37.864,23.339,61.046,113.9,61.046,155.435
	c0,49.294-31.65,55.359-54.768,59.794c-3.836,0.74-7.893,1.512-12.099,2.497C254.113,221.017,252.601,221.198,251.112,221.198z"/>
<path style="fill:#0D89BA;" d="M251.356,287.435c-10.878,0-19.684-8.814-19.684-19.692v-94.901c0-10.878,8.806-19.692,19.684-19.692
	c10.886,0,19.7,8.814,19.7,19.692v94.901C271.056,278.621,262.242,287.435,251.356,287.435z"/>
<path style="fill:#89FF78;" d="M251.112,483.051c29.412-18.133,51.688-99.73,51.688-138.673c0-38.959-22.276-36.226-51.688-43.126"
	/>
<path style="fill:#0D89BA;" d="M251.128,502.743c-6.617,0-13.06-3.324-16.786-9.358c-5.711-9.255-2.828-21.386,6.435-27.089
	c19.621-12.099,42.331-84.086,42.331-121.919c0-16.746-0.433-16.833-22.812-21.118c-4.348-0.835-8.932-1.725-13.698-2.836
	c-10.587-2.481-17.148-13.076-14.659-23.67c2.473-10.579,13.028-17.172,23.662-14.667c4.214,0.985,8.263,1.757,12.115,2.489
	c23.119,4.427,54.776,10.5,54.776,59.802c0,41.527-23.182,132.104-61.054,155.435C258.217,501.798,254.657,502.743,251.128,502.743z
	"/>
<path style="fill:#20D812;" d="M251.616,483.051c-29.412-18.133-51.68-99.73-51.68-138.673c0-38.959,22.292-36.226,51.68-43.126"/>
<path style="fill:#0D89BA;" d="M251.6,502.743c-3.529,0-7.097-0.945-10.327-2.93c-37.864-23.339-61.03-113.9-61.03-155.435
	c0-49.294,31.649-55.359,54.752-59.794c3.852-0.74,7.908-1.512,12.115-2.497c10.571-2.481,21.173,4.08,23.67,14.667
	c2.473,10.587-4.08,21.181-14.667,23.67c-4.758,1.118-9.342,2.001-13.69,2.836c-22.363,4.293-22.796,4.372-22.796,21.118
	c0,37.841,22.693,109.82,42.307,121.919c9.271,5.711,12.138,17.841,6.435,27.089C264.668,499.419,258.201,502.743,251.6,502.743z"/>
<path style="fill:#0D89BA;" d="M251.372,349.6c-10.878,0-19.692-8.814-19.692-19.692v-94.901c0-10.878,8.814-19.692,19.692-19.692
	s19.692,8.814,19.692,19.692v94.901C271.064,340.786,262.25,349.6,251.372,349.6z"/>
<path style="fill:#89FF78;" d="M483.048,251.642c-18.133-29.412-99.738-51.704-138.673-51.704
	c-38.967,0-36.226,22.292-43.126,51.704"/>
<path style="fill:#0D89BA;" d="M301.264,271.343c-1.481,0-3.001-0.173-4.513-0.528c-10.587-2.481-17.164-13.076-14.667-23.67
	c0.985-4.206,1.757-8.263,2.489-12.115c4.435-23.127,10.508-54.784,59.802-54.784c41.527,0,132.096,23.182,155.435,61.07
	c5.711,9.255,2.828,21.386-6.42,27.089s-21.394,2.836-27.097-6.428c-12.107-19.629-84.086-42.346-121.919-42.346
	c-16.746,0-16.833,0.433-21.126,22.812c-0.827,4.356-1.709,8.94-2.828,13.698C318.294,265.214,310.205,271.335,301.264,271.343z"/>
<path style="fill:#20D812;" d="M483.048,251.138c-18.133,29.412-99.738,51.673-138.673,51.673c-38.967,0-36.226-22.292-43.126-51.68
	"/>
<path style="fill:#0D89BA;" d="M344.375,322.503c-49.294,0-55.359-31.65-59.794-54.76c-0.748-3.844-1.512-7.901-2.497-12.107
	c-2.489-10.587,4.08-21.181,14.667-23.67c10.571-2.473,21.173,4.08,23.67,14.667c1.119,4.758,2.001,9.342,2.828,13.69
	c4.293,22.363,4.38,22.796,21.126,22.796c37.841,0,109.82-22.701,121.919-42.315c5.703-9.279,17.873-12.13,27.097-6.428
	c9.255,5.711,12.13,17.841,6.42,27.089C476.463,299.329,385.91,322.503,344.375,322.503z"/>
<path style="fill:#0D89BA;" d="M329.905,271.059h-94.901c-10.878,0-19.692-8.814-19.692-19.692c0-10.878,8.814-19.692,19.692-19.692
	h94.901c10.886,0,19.692,8.814,19.692,19.692C349.597,262.245,340.791,271.059,329.905,271.059z"/>
<path style="fill:#89FF78;" d="M19.696,251.123c18.141,29.412,99.73,51.688,138.673,51.688c38.967,0,36.226-22.276,43.126-51.688"/>
<path style="fill:#0D89BA;" d="M158.369,322.503c-41.527,0-132.104-23.174-155.435-61.054c-5.711-9.255-2.82-21.386,6.42-27.089
	s21.386-2.828,27.089,6.428c12.107,19.621,84.094,42.331,121.927,42.331c16.746,0,16.833-0.433,21.11-22.812
	c0.843-4.348,1.733-8.932,2.844-13.69c2.473-10.579,13.068-17.156,23.67-14.667c10.579,2.481,17.156,13.076,14.667,23.67
	c-0.985,4.206-1.757,8.263-2.489,12.107C213.744,290.846,207.671,322.503,158.369,322.503z"/>
<path style="fill:#20D812;" d="M19.696,251.627c18.141-29.412,99.73-51.68,138.673-51.68c38.967,0,36.226,22.292,43.126,51.68"/>
<path style="fill:#0D89BA;" d="M201.48,271.327c-8.94,0-17.022-6.12-19.157-15.202c-1.119-4.758-2.001-9.342-2.844-13.69
	c-4.293-22.363-4.364-22.796-21.11-22.796c-37.833,0-109.812,22.701-121.927,42.315c-5.703,9.263-17.873,12.115-27.089,6.428
	c-9.248-5.711-12.13-17.841-6.42-27.089c23.331-37.864,113.9-61.038,155.435-61.038c49.294,0,55.359,31.649,59.794,54.76
	c0.733,3.844,1.512,7.901,2.497,12.107c2.481,10.587-4.08,21.181-14.667,23.67C204.481,271.154,202.968,271.327,201.48,271.327z"/>
<path style="fill:#0D89BA;" d="M267.74,271.075h-94.901c-10.878,0-19.692-8.814-19.692-19.692c0-10.878,8.814-19.692,19.692-19.692
	h94.901c10.878,0,19.692,8.814,19.692,19.692C287.433,262.26,278.618,271.075,267.74,271.075z"/>
<path style="fill:#89FF78;" d="M415.369,87.739c-33.619-7.979-107.079,33.965-134.609,61.511
	c-27.553,27.553-9.87,41.37,6.065,67.048"/>
<path style="fill:#0D89BA;" d="M286.834,235.983c-6.577,0-13.013-3.3-16.746-9.318c-2.284-3.679-4.6-7.081-6.798-10.335
	c-13.21-19.48-31.319-46.151,3.552-81.014c29.365-29.373,109.82-77.005,153.088-66.749c10.587,2.513,17.124,13.123,14.612,23.71
	c-2.513,10.587-13.115,17.132-23.71,14.612c-22.426-5.325-89.403,29.515-116.145,56.273c-11.839,11.847-11.603,12.209,1.189,31.059
	c2.489,3.663,5.104,7.53,7.68,11.681c5.742,9.24,2.891,21.378-6.357,27.112C293.97,235.03,290.386,235.983,286.834,235.983z"/>
<path style="fill:#20D812;" d="M415.015,87.385c7.979,33.619-33.981,107.063-61.519,134.601
	c-27.561,27.553-41.377,9.846-67.033-6.049"/>
<path style="fill:#0D89BA;" d="M326.904,256.101c-15.943,0.008-29.373-9.098-40.464-16.62c-3.245-2.198-6.664-4.521-10.335-6.798
	c-9.255-5.727-12.107-17.865-6.38-27.104c5.734-9.263,17.873-12.091,27.097-6.372c4.167,2.576,8.042,5.191,11.705,7.68
	c18.826,12.768,19.172,13.028,31.035,1.182c26.75-26.75,61.598-93.704,56.273-116.129c-2.505-10.587,4.041-21.189,14.62-23.71
	c10.602-2.552,21.205,4.041,23.71,14.612c10.272,43.276-37.392,123.699-66.765,153.072
	C352.433,250.902,338.955,256.101,326.904,256.101z"/>
<path style="fill:#0D89BA;" d="M239.793,282.646c-5.041,0-10.067-1.922-13.934-5.766c-7.696-7.688-7.696-20.157,0-27.845
	l67.111-67.111c7.696-7.696,20.157-7.696,27.845,0c7.696,7.688,7.696,20.157,0,27.845l-67.104,67.111
	C249.883,280.724,244.834,282.646,239.793,282.646z"/>
<path style="fill:#89FF78;" d="M87.359,415.01c33.634,7.979,107.079-33.965,134.617-61.511c27.569-27.553,9.862-41.37-6.057-67.048"
	/>
<path style="fill:#0D89BA;" d="M96.015,435.6c-4.679,0-9.106-0.457-13.202-1.426c-10.587-2.513-17.124-13.123-14.612-23.71
	c2.513-10.587,13.091-17.132,23.71-14.612c22.339,5.285,89.387-29.523,116.145-56.273c11.839-11.847,11.611-12.209-1.189-31.059
	c-2.489-3.663-5.104-7.53-7.696-11.681c-5.727-9.24-2.875-21.378,6.372-27.112c9.232-5.703,21.37-2.891,27.112,6.365
	c2.269,3.679,4.6,7.081,6.798,10.335c13.217,19.48,31.303,46.151-3.552,81.014C209.309,394.018,140.867,435.6,96.015,435.6z"/>
<path style="fill:#20D812;" d="M87.745,415.364c-7.995-33.619,33.957-107.063,61.495-134.601
	c27.561-27.546,41.385-9.846,67.048,6.049"/>
<path style="fill:#0D89BA;" d="M87.729,435.064c-8.925,0-16.998-6.097-19.157-15.147c-10.279-43.276,37.368-123.707,66.757-153.08
	c34.848-34.871,61.527-16.778,80.983-3.568c3.245,2.198,6.664,4.513,10.335,6.798c9.248,5.727,12.099,17.865,6.372,27.104
	c-5.727,9.247-17.849,12.099-27.104,6.372c-4.159-2.568-8.034-5.191-11.697-7.68c-18.826-12.753-19.204-13.028-31.043-1.182
	c-26.758,26.75-61.605,93.704-56.273,116.122c2.505,10.587-4.033,21.197-14.612,23.717
	C90.754,434.891,89.218,435.064,87.729,435.064z"/>
<path style="fill:#0D89BA;" d="M195.84,326.599c-5.041,0-10.082-1.922-13.919-5.766c-7.712-7.696-7.712-20.157,0-27.845
	l67.096-67.111c7.696-7.696,20.165-7.696,27.845,0c7.704,7.696,7.704,20.157,0,27.845l-67.104,67.111
	C205.914,324.677,200.881,326.599,195.84,326.599z"/>
<path style="fill:#89FF78;" d="M414.999,415.38c7.971-33.619-33.965-107.079-61.503-134.617
	c-27.546-27.553-41.37-9.846-67.056,6.065"/>
<path style="fill:#0D89BA;" d="M415.015,435.08c-1.504,0-3.033-0.173-4.569-0.536c-10.587-2.513-17.117-13.123-14.604-23.71
	c5.333-22.441-29.515-89.395-56.265-116.145c-11.839-11.831-12.193-11.603-31.043,1.189c-3.686,2.481-7.554,5.104-11.713,7.688
	c-9.24,5.734-21.386,2.883-27.104-6.372c-5.727-9.247-2.875-21.386,6.372-27.105c3.679-2.284,7.105-4.608,10.35-6.814
	c19.464-13.194,46.151-31.287,80.983,3.568c29.373,29.365,77.013,109.789,66.741,153.088
	C432.021,428.983,423.932,435.08,415.015,435.08z"/>
<path style="fill:#20D812;" d="M415.362,415.026c-33.627,7.979-107.071-33.981-134.601-61.527
	c-27.553-27.546-9.854-41.37,6.049-67.033"/>
<path style="fill:#0D89BA;" d="M406.721,435.616c-44.828,0-113.286-41.582-139.878-68.183
	c-34.871-34.848-16.778-61.519-3.576-80.991c2.198-3.245,4.529-6.656,6.798-10.335c5.742-9.263,17.881-12.083,27.112-6.372
	c9.24,5.734,12.099,17.865,6.372,27.104c-2.576,4.159-5.191,8.034-7.68,11.689c-12.776,18.849-13.021,19.204-1.182,31.043
	c26.75,26.75,93.822,61.605,116.129,56.289c10.634-2.513,21.197,4.033,23.71,14.612c2.513,10.579-4.033,21.189-14.612,23.71
	C415.818,435.159,411.392,435.616,406.721,435.616z"/>
<path style="fill:#0D89BA;" d="M306.912,326.599c-5.041,0-10.075-1.922-13.926-5.766l-67.111-67.111
	c-7.696-7.696-7.696-20.157,0-27.845c7.696-7.688,20.157-7.696,27.845,0l67.111,67.111c7.696,7.696,7.696,20.157,0,27.845
	C316.987,324.677,311.945,326.599,306.912,326.599z"/>
<path style="fill:#89FF78;" d="M87.745,87.385c-7.995,33.619,33.957,107.063,61.495,134.609c27.561,27.546,41.37,9.854,67.048-6.057
	"/>
<path style="fill:#0D89BA;" d="M175.84,256.109c-12.044,0-25.529-5.191-40.519-20.189C105.94,206.547,58.293,126.108,68.564,82.832
	c2.505-10.579,13.099-17.132,23.71-14.604c10.587,2.513,17.124,13.131,14.612,23.717c-5.341,22.418,29.507,89.372,56.273,116.129
	c11.839,11.847,12.209,11.579,31.051-1.189c3.663-2.481,7.538-5.096,11.697-7.68c9.255-5.727,21.394-2.867,27.097,6.372
	c5.742,9.248,2.883,21.386-6.365,27.104c-3.686,2.276-7.097,4.6-10.335,6.798C205.237,246.995,191.791,256.109,175.84,256.109z"/>
<path style="fill:#20D812;" d="M87.374,87.739c33.627-7.987,107.063,33.973,134.601,61.527c27.553,27.546,9.854,41.37-6.049,67.033"
	/>
<path style="fill:#0D89BA;" d="M215.91,235.983c-3.545,0-7.121-0.953-10.35-2.954c-9.248-5.734-12.099-17.865-6.372-27.104
	c2.568-4.159,5.183-8.034,7.68-11.697c12.784-18.849,13.013-19.204,1.189-31.035c-26.758-26.75-93.633-61.582-116.137-56.288
	c-10.5,2.521-21.189-4.033-23.71-14.612c-2.505-10.579,4.025-21.189,14.612-23.71c43.173-10.264,123.699,37.384,153.08,66.765
	c34.847,34.848,16.77,61.519,3.56,80.991c-2.198,3.237-4.521,6.656-6.798,10.335C228.938,232.675,222.495,235.983,215.91,235.983z"
	/>
<path style="fill:#0D89BA;" d="M262.943,282.646c-5.049,0-10.075-1.922-13.926-5.766l-67.096-67.096
	c-7.712-7.688-7.712-20.157,0-27.845c7.688-7.696,20.141-7.696,27.837,0l67.104,67.096c7.696,7.688,7.696,20.157,0,27.845
	C273.018,280.724,267.969,282.646,262.943,282.646z"/>
<g>
</g>
<g>
</g>
<g>
</g>
<g>
</g>
<g>
</g>
<g>
</g>
<g>
</g>
<g>
</g>
<g>
</g>
<g>
</g>
<g>
</g>
<g>
</g>
<g>
</g>
<g>
</g>
<g>
</g>
</svg>
