<?xml version="1.0" encoding="iso-8859-1"?>
<!-- Generator: Adobe Illustrator 19.0.0, SVG Export Plug-In . SVG Version: 6.00 Build 0)  -->
<svg version="1.1" id="Capa_1" xmlns="http://www.w3.org/2000/svg" xmlns:xlink="http://www.w3.org/1999/xlink" x="0px" y="0px"
	 viewBox="0 0 59 59" style="enable-background:new 0 0 59 59;" xml:space="preserve">
<g>
	<path style="fill:#A4E869;" d="M33,58V34c0-1.657,1.343-3,3-3h0c10.318,0,18.741-8.267,18.994-18.525
		c0.06-2.426-0.877-4.814-2.803-6.291C47.617,2.676,43,7.666,43,12c0,3.859-3.14,7-7,7h-0.196C34.256,19,33,17.744,33,16.196V6.209
		c0-3.049-2.186-5.77-5.211-6.158C24.13-0.419,21,2.432,21,6l0,29.285c0,0.33-0.304,0.593-0.625,0.516
		c-3.091-0.738-5.395-3.525-5.375-6.844c0.01-1.638-0.419-3.272-1.49-4.511C8.552,18.706,3,24.248,3,29
		c0,9.419,6.895,17.239,15.901,18.722C20.099,47.92,21,48.914,21,50.128V58H33z"/>
	
		<line style="fill:none;stroke:#4FBA6F;stroke-width:2;stroke-linecap:round;stroke-miterlimit:10;" x1="25" y1="15" x2="25" y2="6"/>
	
		<line style="fill:none;stroke:#4FBA6F;stroke-width:2;stroke-linecap:round;stroke-miterlimit:10;" x1="25" y1="41" x2="25" y2="19"/>
	
		<line style="fill:none;stroke:#4FBA6F;stroke-width:2;stroke-linecap:round;stroke-miterlimit:10;" x1="29" y1="44" x2="29" y2="52"/>
	
		<line style="fill:none;stroke:#4FBA6F;stroke-width:2;stroke-linecap:round;stroke-miterlimit:10;" x1="29" y1="9" x2="29" y2="37"/>
	<path style="fill:none;stroke:#4FBA6F;stroke-width:2;stroke-linecap:round;stroke-miterlimit:10;" d="M19.085,39
		C14.989,39,11,34.096,11,30"/>
	<path style="fill:none;stroke:#4FBA6F;stroke-width:2;stroke-linecap:round;stroke-miterlimit:10;" d="M7,29
		c0,7.168,6.019,14,13.188,14"/>
	<path style="fill:none;stroke:#4FBA6F;stroke-width:2;stroke-linecap:round;stroke-miterlimit:10;" d="M25,6c0-1.105,0.895-2,2-2"
		/>
	
		<line style="fill:none;stroke:#4FBA6F;stroke-width:2;stroke-linecap:round;stroke-miterlimit:10;" x1="25" y1="46" x2="25" y2="55"/>
	<path style="fill:none;stroke:#4FBA6F;stroke-width:2;stroke-linecap:round;stroke-miterlimit:10;" d="M7,29c0-1.105,0.895-3,2-3"
		/>
	<path style="fill:none;stroke:#4FBA6F;stroke-width:2;stroke-linecap:round;stroke-miterlimit:10;" d="M38,23c4.411,0,9-3.589,9-8
		v-4c0-1.105,0.895-2,2-2"/>
	<path style="fill:none;stroke:#4FBA6F;stroke-width:2;stroke-linecap:round;stroke-miterlimit:10;" d="M51,12v1
		c0,7.719-6.468,14-14.188,14h-2.625"/>
	
		<line style="fill:none;stroke:#F9EAB0;stroke-width:2;stroke-linecap:round;stroke-miterlimit:10;" x1="2" y1="58" x2="57" y2="58"/>
	
		<line style="fill:none;stroke:#A4E869;stroke-width:2;stroke-linecap:round;stroke-miterlimit:10;" x1="33" y1="10" x2="36" y2="7"/>
	
		<line style="fill:none;stroke:#A4E869;stroke-width:2;stroke-linecap:round;stroke-miterlimit:10;" x1="33" y1="14" x2="36" y2="11"/>
	
		<line style="fill:none;stroke:#A4E869;stroke-width:2;stroke-linecap:round;stroke-miterlimit:10;" x1="33" y1="5" x2="35" y2="3"/>
	
		<line style="fill:none;stroke:#A4E869;stroke-width:2;stroke-linecap:round;stroke-miterlimit:10;" x1="21" y1="31" x2="18" y2="28"/>
	
		<line style="fill:none;stroke:#A4E869;stroke-width:2;stroke-linecap:round;stroke-miterlimit:10;" x1="21" y1="27" x2="18" y2="24"/>
	
		<line style="fill:none;stroke:#A4E869;stroke-width:2;stroke-linecap:round;stroke-miterlimit:10;" x1="21" y1="23" x2="18" y2="20"/>
	
		<line style="fill:none;stroke:#A4E869;stroke-width:2;stroke-linecap:round;stroke-miterlimit:10;" x1="21" y1="19" x2="18" y2="16"/>
	
		<line style="fill:none;stroke:#A4E869;stroke-width:2;stroke-linecap:round;stroke-miterlimit:10;" x1="21" y1="15" x2="18" y2="12"/>
	
		<line style="fill:none;stroke:#A4E869;stroke-width:2;stroke-linecap:round;stroke-miterlimit:10;" x1="33" y1="38" x2="36" y2="35"/>
	
		<line style="fill:none;stroke:#A4E869;stroke-width:2;stroke-linecap:round;stroke-miterlimit:10;" x1="33" y1="42" x2="36" y2="39"/>
	
		<line style="fill:none;stroke:#A4E869;stroke-width:2;stroke-linecap:round;stroke-miterlimit:10;" x1="33" y1="46" x2="36" y2="43"/>
	
		<line style="fill:none;stroke:#A4E869;stroke-width:2;stroke-linecap:round;stroke-miterlimit:10;" x1="33" y1="50" x2="36" y2="47"/>
	
		<line style="fill:none;stroke:#A4E869;stroke-width:2;stroke-linecap:round;stroke-miterlimit:10;" x1="33" y1="54" x2="36" y2="51"/>
	
		<line style="fill:none;stroke:#A4E869;stroke-width:2;stroke-linecap:round;stroke-miterlimit:10;" x1="33" y1="58" x2="36" y2="55"/>
	
		<line style="fill:none;stroke:#A4E869;stroke-width:2;stroke-linecap:round;stroke-miterlimit:10;" x1="21" y1="54" x2="18" y2="51"/>
	
		<line style="fill:none;stroke:#A4E869;stroke-width:2;stroke-linecap:round;stroke-miterlimit:10;" x1="21" y1="58" x2="18" y2="55"/>
</g>
<g>
</g>
<g>
</g>
<g>
</g>
<g>
</g>
<g>
</g>
<g>
</g>
<g>
</g>
<g>
</g>
<g>
</g>
<g>
</g>
<g>
</g>
<g>
</g>
<g>
</g>
<g>
</g>
<g>
</g>
</svg>
