<?xml version="1.0" encoding="iso-8859-1"?>
<!-- Generator: Adobe Illustrator 19.0.0, SVG Export Plug-In . SVG Version: 6.00 Build 0)  -->
<svg version="1.1" id="Layer_1" xmlns="http://www.w3.org/2000/svg" xmlns:xlink="http://www.w3.org/1999/xlink" x="0px" y="0px"
	 viewBox="0 0 494.896 494.896" style="enable-background:new 0 0 494.896 494.896;" xml:space="preserve">
<g>
	<path style="fill:#00665A;" d="M267.448,352.807v-94.44c-6.53,1.288-13.23,1.96-20,1.96c-6.771,0-13.47-0.671-20-1.96v94.44
		l20,28.244L267.448,352.807z"/>
	<polygon style="fill:#E4187A;" points="182.264,43.625 149.642,19.26 149.642,165.338 247.448,92.305 	"/>
	<path style="fill:#C61469;" d="M267.448,258.367c42.525-8.39,77.806-43.212,77.806-93.03V19.26l-32.622,24.364l-65.184,48.68
		l-97.806,73.033c0,49.818,35.281,84.64,77.806,93.03c6.53,1.288,13.229,1.96,20,1.96
		C254.219,260.327,260.918,259.656,267.448,258.367z"/>
	<polygon style="fill:#FF7956;" points="247.448,92.305 312.632,43.625 247.448,0 182.265,43.624 	"/>
	<path style="fill:#00CCB3;" d="M424.603,179.075l-15.858-25.805L247.448,381.051v113.845c114.229,0,207.162-92.932,207.162-207.162
		C454.61,248.593,444.234,211.02,424.603,179.075z"/>
	<path style="fill:#00DDC2;" d="M227.448,352.808L86.151,153.27l-15.858,25.805c-19.631,31.945-30.007,69.519-30.007,108.66
		c0,114.229,92.933,207.162,207.162,207.162V381.051L227.448,352.808z"/>
</g>
<g>
</g>
<g>
</g>
<g>
</g>
<g>
</g>
<g>
</g>
<g>
</g>
<g>
</g>
<g>
</g>
<g>
</g>
<g>
</g>
<g>
</g>
<g>
</g>
<g>
</g>
<g>
</g>
<g>
</g>
</svg>
