<?xml version="1.0" encoding="iso-8859-1"?>
<!-- Generator: Adobe Illustrator 19.0.0, SVG Export Plug-In . SVG Version: 6.00 Build 0)  -->
<svg xmlns="http://www.w3.org/2000/svg" xmlns:xlink="http://www.w3.org/1999/xlink" version="1.1" id="Layer_1" x="0px" y="0px" viewBox="0 0 502.01 502.01" style="enable-background:new 0 0 502.01 502.01;" xml:space="preserve" width="512" height="512">
<g>
	<g>
		<g>
			<circle style="fill:#662D91;" cx="87.989" cy="153.354" r="54.339"/>
			<circle style="fill:#662D91;" cx="305.343" cy="153.354" r="54.339"/>
			<circle style="fill:#662D91;" cx="414.021" cy="153.354" r="54.339"/>
			<circle style="fill:#662D91;" cx="142.877" cy="248.858" r="54.339"/>
			<circle style="fill:#662D91;" cx="251.554" cy="248.858" r="54.339"/>
			<circle style="fill:#662D91;" cx="251.554" cy="437.671" r="54.339"/>
			<circle style="fill:#662D91;" cx="360.231" cy="248.858" r="54.339"/>
			<circle style="fill:#662D91;" cx="197.764" cy="343.265" r="54.339"/>
			<circle style="fill:#662D91;" cx="306.441" cy="343.265" r="54.339"/>
		</g>
		<g>
			<path style="fill:#C69C6D;" d="M267.162,110.749c-4.069,4.288-9.829,6.952-16.208,6.925     c-12.268-0.05-22.172-10.037-22.122-22.305l0.257-62.229c0.05-12.268,10.036-22.172,22.305-22.122     c12.268,0.05,22.172,10.037,22.122,22.305l-0.257,62.229C273.235,101.442,270.92,106.789,267.162,110.749z"/>
		</g>
		<g>
			<path style="fill:#39B54A;" d="M254.818,97.398c24.19,24.19,24.19,63.409,0,87.598s-128.694,41.096-128.694,41.096     s16.906-104.504,41.096-128.694S230.628,73.208,254.818,97.398z"/>
		</g>
	</g>
	<g>
		<path d="M478.359,153.354c0-35.477-28.862-64.339-64.339-64.339c-22.836,0-42.917,11.97-54.338,29.954    c-11.421-17.985-31.502-29.954-54.339-29.954c-1.359,0-2.71,0.058-4.056,0.142l38.507-38.507c0.169-0.169,0.332-0.344,0.488-0.524    c9.366-10.815,40.307-39.026,58.993-27.189c13.576,8.598,14.472,21.183,11.115,29.348c-3.125,7.601-11.27,14.667-24.753,11.715    c-1.948-0.427-2.954-1.43-2.99-2.982c-0.059-2.489,2.447-5.69,8.176-7.231c5.333-1.435,8.494-6.922,7.059-12.255    c-1.435-5.334-6.92-8.488-12.254-7.06c-16.208,4.36-23.218,16.71-22.975,27.017c0.254,10.792,7.77,19.652,18.704,22.049    c23.963,5.249,41.136-8.095,47.531-23.646c6.58-16.001,3.468-39.678-18.911-53.851c-36.008-22.806-80.393,25.979-84.559,30.702    L283.329,78.83l0.188-45.466c0.073-17.762-14.318-32.272-32.08-32.346C242.8,0.972,234.728,4.3,228.618,10.36    c-6.109,6.06-9.494,14.135-9.529,22.727l-0.196,36.649c-20.95-2.287-42.718,4.565-58.745,20.591    c-6.323,6.323-12.08,16.98-17.196,29.615c-11.306-18.53-31.713-30.927-54.962-30.927c-35.477,0-64.339,28.862-64.339,64.339    c0,35.016,28.124,63.568,62.968,64.303c-5.255,9.492-8.08,20.254-8.08,31.201c0,34.825,27.816,63.256,62.394,64.29    c-4.784,8.992-7.507,19.24-7.507,30.117c0,34.461,27.236,62.675,61.312,64.262c-4.794,8.998-7.522,19.257-7.522,30.144    c0,35.477,28.862,64.339,64.338,64.339c35.477,0,64.339-28.862,64.339-64.339c0-10.876-2.723-21.125-7.507-30.117    c34.578-1.034,62.395-29.465,62.395-64.29c0-10.887-2.728-21.146-7.521-30.144c34.075-1.587,61.311-29.801,61.311-64.262    c0-11.327-2.953-21.973-8.114-31.228C450.806,216.344,478.359,188.013,478.359,153.354z M251.554,293.197    c-24.448,0-44.338-19.891-44.338-44.339c0-7.07,1.739-14.103,4.992-20.377c3.569-6.884,9.034-13.097,15.713-17.099    c6.343-3.801,13.938-6.471,21.357-6.856c5.468-0.283,10.997,0.508,16.191,2.229c6.058,2.007,11.653,5.343,16.317,9.697    c4.65,4.341,8.355,9.674,10.781,15.555c2.199,5.332,3.326,11.084,3.326,16.851C295.893,273.307,276.002,293.197,251.554,293.197z     M349.682,153.354c0,24.448-19.89,44.338-44.339,44.338c-13.614,0-26.151-6.079-34.525-16.504    c12.656-18.913,15.385-42.542,8.182-63.49c7.592-5.625,16.761-8.683,26.343-8.683    C329.792,109.016,349.682,128.906,349.682,153.354z M239.089,33.182c0.013-3.263,1.296-6.324,3.613-8.621    c2.304-2.285,5.356-3.542,8.6-3.542c0.017,0,0.035,0,0.052,0c6.734,0.027,12.191,5.529,12.163,12.264l-0.241,58.503    c-0.461-0.487-0.909-0.981-1.386-1.458h0c-6.805-6.805-14.65-11.943-23.023-15.446L239.089,33.182z M174.29,104.47    c10.125-10.126,23.427-15.189,36.728-15.189c10.187,0,20.37,2.982,29.131,8.922l-30.672,30.672    c-3.905,3.905-3.905,10.237,0,14.143c1.953,1.952,4.512,2.929,7.071,2.929s5.119-0.977,7.071-2.929l30.622-30.622    c13.45,20.171,11.289,47.747-6.495,65.531c-14.187,14.187-69.659,28.422-109.314,35.856c3.289-17.544,7.91-38.182,13.268-56.972    c0.181-0.49,0.332-0.993,0.434-1.516C158.793,132.245,166.549,112.211,174.29,104.47z M43.65,153.354    c0-24.448,19.89-44.339,44.339-44.339c23.884,0,43.407,18.986,44.296,42.657c-2.402,8.423-4.56,16.903-6.458,24.966    c-0.237,0.287-0.464,0.587-0.672,0.906c-8.232,12.615-22.126,20.147-37.166,20.147C63.54,197.692,43.65,177.803,43.65,153.354z     M98.538,248.858c0-15.099,7.83-28.9,19.912-36.961c-1.148,6.227-1.89,10.697-2.198,12.598c-0.513,3.171,0.529,6.396,2.8,8.668    c1.891,1.89,4.44,2.929,7.071,2.929c0.531,0,1.065-0.042,1.597-0.128c4.942-0.8,27.252-4.535,52.68-10.73    c4.467,7.05,6.815,15.125,6.815,23.625c0,24.448-19.89,44.339-44.339,44.339C118.428,293.197,98.538,273.307,98.538,248.858z     M153.425,343.265c0-24.448,19.89-44.339,44.339-44.339c24.448,0,44.338,19.891,44.338,44.339s-19.89,44.339-44.338,44.339    C173.315,387.603,153.425,367.713,153.425,343.265z M251.554,482.01c-24.448,0-44.338-19.891-44.338-44.339    s19.89-44.338,44.338-44.338c24.449,0,44.339,19.89,44.339,44.338S276.002,482.01,251.554,482.01z M306.441,387.603    c-24.449,0-44.339-19.891-44.339-44.339s19.89-44.339,44.339-44.339c24.448,0,44.338,19.891,44.338,44.339    S330.89,387.603,306.441,387.603z M360.231,293.197c-24.448,0-44.338-19.891-44.338-44.339s19.89-44.339,44.338-44.339    s44.338,19.891,44.338,44.339S384.679,293.197,360.231,293.197z M414.02,197.692c-24.448,0-44.338-19.89-44.338-44.338    s19.89-44.339,44.338-44.339c24.449,0,44.339,19.891,44.339,44.339S438.469,197.692,414.02,197.692z"/>
		<path d="M170.817,181.678c1.953,1.952,4.512,2.929,7.071,2.929s5.119-0.977,7.071-2.93l12.713-12.714    c3.905-3.905,3.905-10.236,0-14.142c-3.905-3.904-10.237-3.905-14.142,0.001l-12.713,12.714    C166.912,171.441,166.912,177.772,170.817,181.678z"/>
	</g>
</g>















</svg>
