<?xml version="1.0" encoding="iso-8859-1"?>
<!-- Generator: Adobe Illustrator 19.0.0, SVG Export Plug-In . SVG Version: 6.00 Build 0)  -->
<svg version="1.1" id="Layer_1" xmlns="http://www.w3.org/2000/svg" xmlns:xlink="http://www.w3.org/1999/xlink" x="0px" y="0px"
	 viewBox="0 0 512 512" style="enable-background:new 0 0 512 512;" xml:space="preserve">
<path style="fill:#08AA6E;" d="M7.604,118.368v26.867c0,137.186,111.21,248.396,248.396,248.396s248.396-111.21,248.396-248.396
	v-26.867H7.604z"/>
<path style="fill:#D53349;" d="M49.172,118.368v26.867c0,114.229,92.6,206.829,206.829,206.829
	c114.228,0,206.828-92.6,206.828-206.829v-26.867H49.172z"/>
<g>
	<path style="fill:#53180F;" d="M470.433,110.764H41.568H0v34.471c0,68.38,26.629,132.668,74.981,181.019
		C123.333,374.607,187.62,401.236,256,401.236s132.667-26.629,181.019-74.981C485.371,277.903,512,213.616,512,145.236v-34.471
		H470.433z M455.225,125.972v19.263c0,109.853-89.372,199.225-199.224,199.225c-109.853,0-199.225-89.372-199.225-199.225v-19.263
		H455.225z M496.792,145.236c0,64.318-25.046,124.786-70.526,170.266S320.317,386.028,256,386.028s-124.786-25.046-170.266-70.526
		S15.208,209.554,15.208,145.236v-19.263h26.36v19.263c0,118.239,96.194,214.433,214.433,214.433s214.432-96.194,214.432-214.433
		v-19.263h26.359V145.236z"/>
	<rect x="168.798" y="141.18" style="fill:#53180F;" width="23.749" height="15.208"/>
	<rect x="206.463" y="174.313" style="fill:#53180F;" width="23.749" height="15.208"/>
	<rect x="131.133" y="174.313" style="fill:#53180F;" width="23.75" height="15.208"/>
	<rect x="357.123" y="174.313" style="fill:#53180F;" width="23.749" height="15.208"/>
	<rect x="281.793" y="174.313" style="fill:#53180F;" width="23.749" height="15.208"/>
	<rect x="244.128" y="141.18" style="fill:#53180F;" width="23.75" height="15.208"/>
	<rect x="319.458" y="141.18" style="fill:#53180F;" width="23.75" height="15.208"/>
	<rect x="319.458" y="207.456" style="fill:#53180F;" width="23.75" height="15.208"/>
	<rect x="244.128" y="207.456" style="fill:#53180F;" width="23.75" height="15.208"/>
	<rect x="168.798" y="207.456" style="fill:#53180F;" width="23.749" height="15.208"/>
	<rect x="93.468" y="207.456" style="fill:#53180F;" width="23.749" height="15.208"/>
	<rect x="206.463" y="240.589" style="fill:#53180F;" width="23.749" height="15.208"/>
	<rect x="131.133" y="240.589" style="fill:#53180F;" width="23.75" height="15.208"/>
	<rect x="357.123" y="240.589" style="fill:#53180F;" width="23.749" height="15.208"/>
	<rect x="281.793" y="240.589" style="fill:#53180F;" width="23.749" height="15.208"/>
	<rect x="206.463" y="308.224" style="fill:#53180F;" width="23.749" height="15.208"/>
	<rect x="281.793" y="308.224" style="fill:#53180F;" width="23.749" height="15.208"/>
	<rect x="319.458" y="273.722" style="fill:#53180F;" width="23.75" height="15.208"/>
	<rect x="244.128" y="273.722" style="fill:#53180F;" width="23.75" height="15.208"/>
	<rect x="168.798" y="273.722" style="fill:#53180F;" width="23.749" height="15.208"/>
	<rect x="394.788" y="207.456" style="fill:#53180F;" width="23.75" height="15.208"/>
	<rect x="93.468" y="141.18" style="fill:#53180F;" width="23.749" height="15.208"/>
	<rect x="394.788" y="141.18" style="fill:#53180F;" width="23.75" height="15.208"/>
</g>
<g>
</g>
<g>
</g>
<g>
</g>
<g>
</g>
<g>
</g>
<g>
</g>
<g>
</g>
<g>
</g>
<g>
</g>
<g>
</g>
<g>
</g>
<g>
</g>
<g>
</g>
<g>
</g>
<g>
</g>
</svg>
