<?xml version="1.0" encoding="iso-8859-1"?>
<!-- Generator: Adobe Illustrator 19.0.0, SVG Export Plug-In . SVG Version: 6.00 Build 0)  -->
<svg version="1.1" id="Layer_1" xmlns="http://www.w3.org/2000/svg" xmlns:xlink="http://www.w3.org/1999/xlink" x="0px" y="0px"
	 viewBox="0 0 512 512" style="enable-background:new 0 0 512 512;" xml:space="preserve">
<g>
	<path style="fill:#FFDA44;" d="M110.208,102.8H95.746c-5.654,14.234-9.42,18-23.654,23.654v14.462
		c14.234,5.654,18,9.42,23.654,23.654h14.462c5.654-14.234,9.42-18,23.654-23.654v-14.462
		C119.628,120.8,115.862,117.034,110.208,102.8z"/>
	<path style="fill:#FFDA44;" d="M171.417,50.306h-14.462c-5.654,14.244-9.42,18-23.654,23.654v14.462
		c14.234,5.654,18,9.41,23.654,23.654h14.462c5.654-14.244,9.42-18,23.654-23.654V73.96
		C180.837,68.305,177.071,64.55,171.417,50.306z"/>
</g>
<path style="fill:#FF5023;" d="M481.344,326.111l30.397,51.571l-128.602-54.715c-6.878,7.553-14.95,14.493-23.944,20.645
	c0.809,0.342,1.629,0.674,2.49,1.017v14.462c-20.251,8.051-25.978,13.777-34.028,34.028h-14.462
	c-4.679-11.775-8.58-18.633-14.991-23.892c-13.84,2.988-28.187,4.523-42.722,4.523c-41.021,0-79.665-11.982-108.828-33.758
	c-6.847-5.104-12.978-10.613-18.363-16.454L0,377.806l30.625-51.177L9.887,291.968l20.759-34.962L9.897,222.065l20.759-35.138
	L0.259,135.356l127.44,53.895c6.878-7.604,14.939-14.618,24.069-20.863c-0.809-0.342-1.629-0.674-2.49-1.017v-14.462
	c20.251-8.051,25.978-13.777,34.028-34.028h14.462c4.679,11.775,8.58,18.632,14.991,23.892c13.84-2.988,28.187-4.523,42.722-4.523
	c41.021,0,79.665,11.982,108.828,33.758c7.293,5.447,13.788,11.35,19.421,17.616L512,135.231l-30.625,51.177l20.738,34.661
	l-20.759,34.962l20.749,34.941L481.344,326.111z"/>
<g>
	<path style="fill:#FFDA44;" d="M415.217,347.43h-14.462c-5.654,14.234-9.42,18-23.654,23.654v14.462
		c14.234,5.654,18,9.42,23.654,23.654h14.462c5.654-14.234,9.42-18,23.654-23.654v-14.462
		C424.637,365.43,420.871,361.664,415.217,347.43z"/>
	<path style="fill:#FFDA44;" d="M354.007,399.925h-14.462c-5.654,14.244-9.42,18-23.654,23.654v14.462
		c14.234,5.654,18,9.41,23.654,23.654h14.462c5.654-14.244,9.42-18,23.654-23.654v-14.462
		C363.427,417.924,359.662,414.169,354.007,399.925z"/>
	<path style="fill:#FFDA44;" d="M313.194,393.119c-8.05-20.255-13.773-25.98-34.028-34.028V344.63
		c20.254-8.05,25.979-13.773,34.028-34.028h14.461c8.048,20.254,13.773,25.979,34.028,34.028v14.461
		c-20.255,8.048-25.98,13.772-34.028,34.028H313.194z"/>
	<path style="fill:#FFDA44;" d="M197.768,201.398h-14.462c-8.048-20.254-13.773-25.979-34.028-34.028v-14.461
		c20.255-8.048,25.98-13.772,34.028-34.028h14.461c8.05,20.255,13.773,25.98,34.028,34.028v14.461
		C211.541,175.42,205.817,181.144,197.768,201.398z"/>
</g>
<g>
	<path style="fill:#FF9811;" d="M375.317,203.713L244.899,334.12l-21.361,21.361c10.26,1.774,20.956,2.708,31.943,2.708
		c7.988,0,15.894-0.508,23.685-1.494v-12.065c20.251-8.051,25.978-13.777,34.028-34.028h14.462
		c4.886,12.294,8.922,19.234,15.863,24.587c32.783-19.556,51.499-48.22,51.499-79.188
		C395.018,236.901,387.818,219.015,375.317,203.713z"/>
	<path style="fill:#FF9811;" d="M267.931,154.227c-4.108-0.27-8.258-0.415-12.449-0.415c-7.988,0-15.894,0.508-23.685,1.494v12.065
		c-20.251,8.051-25.978,13.777-34.028,34.028h-14.462c-4.886-12.294-8.922-19.224-15.852-24.587
		c-32.348,19.369-51.509,48.646-51.509,79.188c0,13.964,3.849,27.274,10.8,39.413l131.538-131.538L267.931,154.227z"/>
</g>
<polygon points="502.099,290.976 481.356,256.028 502.114,221.069 481.375,186.41 511.999,135.235 398.718,183.364 404.804,197.686 
	474.114,168.238 463.24,186.41 483.998,221.099 463.259,256.026 484.014,290.994 463.273,326.106 474.368,344.925 404.802,315.424 
	398.726,329.752 511.745,377.677 481.342,326.115 "/>
<rect x="437.034" y="274.155" width="25.936" height="15.562"/>
<rect x="47.992" y="222.283" width="25.936" height="15.562"/>
<path d="M361.685,359.091V344.63c-0.859-0.341-1.684-0.677-2.492-1.013c13.763-9.404,25.334-20.674,33.872-33.102
	c4.555-6.631,8.241-13.609,11.049-20.799h22.548v-15.562h-17.935c0.701-3.436,1.203-6.898,1.505-10.374h39.254v-15.562h-39.243
	c-0.296-3.491-0.785-6.952-1.474-10.374h19.969v-15.562h-24.544c-7.352-18.873-20.9-36.106-39.886-50.278
	c-29.159-21.768-67.807-33.755-108.824-33.755c-14.538,0-28.887,1.534-42.721,4.527c-6.416-5.264-10.314-12.125-14.992-23.897
	h-14.463c-8.048,20.255-13.773,25.98-34.028,34.028v14.461c0.86,0.342,1.685,0.678,2.494,1.014
	c-21.267,14.54-36.738,33.268-44.867,53.899H84.303v15.562h17.953c-0.706,3.428-1.215,6.889-1.52,10.374H61.479v15.562h39.243
	c0.296,3.491,0.785,6.952,1.474,10.374H82.228v15.562h24.544c7.352,18.873,20.9,36.106,39.886,50.279
	c29.159,21.767,67.807,33.754,108.823,33.754c14.539,0,28.888-1.534,42.722-4.527c6.416,5.264,10.314,12.125,14.992,23.897h14.461
	C335.705,372.863,341.429,367.139,361.685,359.091z M190.537,140.021c5.181,8.942,11.177,14.937,20.119,20.119
	c-8.944,5.182-14.937,11.175-20.119,20.12c-5.182-8.944-11.175-14.937-20.119-20.12C179.36,154.958,185.356,148.963,190.537,140.021
	z M223.542,355.484l10.467-10.467l-11.003-11.004l-17.418,17.418c-29.307-8.246-53.882-23.529-69.845-43.015l123.164-123.164
	l-11.003-11.004l-121.162,121.16c-6.951-12.133-10.798-25.447-10.798-39.407c0-30.54,19.156-59.819,51.506-79.185
	c6.938,5.356,10.972,12.294,15.855,24.583h14.461c8.05-20.254,13.773-25.979,34.028-34.028v-12.068
	c7.788-0.98,15.702-1.492,23.686-1.492c4.195,0,8.344,0.144,12.446,0.411l-9.648,9.648l11.003,11.004l18.325-18.325
	c30.884,5.35,57.829,18.236,77.009,35.851L233.899,323.119l11.003,11.004l130.415-130.415
	c12.502,15.309,19.699,33.195,19.699,52.292c0,30.967-18.71,59.628-51.498,79.191c-6.943-5.357-10.977-12.295-15.864-24.59h-14.461
	c-8.05,20.254-13.773,25.979-34.028,34.028v12.068c-7.788,0.979-15.702,1.491-23.686,1.491
	C244.495,358.188,233.803,357.251,223.542,355.484z M300.306,351.86c8.944-5.182,14.937-11.175,20.119-20.12
	c5.182,8.944,11.175,14.937,20.119,20.12c-8.942,5.181-14.938,11.176-20.119,20.119C315.244,363.037,309.248,357.042,300.306,351.86
	z"/>
<path d="M415.217,347.431h-14.462c-5.658,14.238-9.416,17.996-23.654,23.654l0.001,14.461c14.238,5.657,17.996,9.415,23.654,23.654
	h14.461c5.658-14.239,9.416-17.997,23.654-23.654v-14.461C424.633,365.427,420.874,361.669,415.217,347.431z M407.986,389.069
	c-2.963-4.385-6.37-7.79-10.753-10.753c4.384-2.964,7.789-6.37,10.753-10.753c2.964,4.383,6.369,7.789,10.753,10.753
	C414.356,381.279,410.949,384.684,407.986,389.069z"/>
<path d="M354.007,399.926h-14.462c-5.658,14.239-9.416,17.997-23.654,23.654v14.461c14.238,5.657,17.996,9.415,23.654,23.654h14.461
	c5.658-14.239,9.416-17.997,23.654-23.654v-14.462C363.423,417.921,359.666,414.164,354.007,399.926z M346.776,441.563
	c-2.963-4.385-6.369-7.79-10.753-10.753c4.383-2.963,7.789-6.369,10.753-10.753c2.963,4.385,6.369,7.79,10.753,10.753
	C353.145,433.772,349.739,437.178,346.776,441.563z"/>
<path d="M95.746,164.569h14.461c5.658-14.238,9.416-17.996,23.654-23.654l-0.001-14.461c-14.238-5.657-17.996-9.415-23.654-23.654
	h-14.46c-5.658,14.239-9.416,17.997-23.654,23.654l-0.001,14.461C86.33,146.573,90.089,150.332,95.746,164.569z M102.977,122.931
	c2.963,4.385,6.37,7.79,10.753,10.753c-4.384,2.964-7.789,6.37-10.753,10.753c-2.964-4.383-6.369-7.789-10.753-10.753
	C96.607,130.721,100.014,127.316,102.977,122.931z"/>
<path d="M156.955,112.075h14.461c5.658-14.239,9.416-17.997,23.654-23.654V73.96c-14.238-5.657-17.996-9.415-23.654-23.654h-14.461
	c-5.658,14.239-9.416,17.997-23.654,23.654v14.462C147.539,94.079,151.297,97.836,156.955,112.075z M164.186,70.437
	c2.963,4.385,6.369,7.79,10.753,10.753c-4.383,2.963-7.789,6.369-10.753,10.753c-2.963-4.385-6.369-7.79-10.753-10.753
	C157.817,78.228,161.223,74.822,164.186,70.437z"/>
<polygon points="37.886,344.799 48.76,326.627 28.002,291.938 48.741,257.012 27.986,222.043 48.727,186.931 37.632,168.113 
	107.198,197.614 113.274,183.285 0.255,135.361 30.659,186.923 9.901,222.061 30.644,257.009 9.886,291.968 30.625,326.627 
	0.001,377.802 113.282,329.673 107.196,315.351 "/>
<g>
</g>
<g>
</g>
<g>
</g>
<g>
</g>
<g>
</g>
<g>
</g>
<g>
</g>
<g>
</g>
<g>
</g>
<g>
</g>
<g>
</g>
<g>
</g>
<g>
</g>
<g>
</g>
<g>
</g>
</svg>
