<?xml version="1.0" encoding="iso-8859-1"?>
<!-- Generator: Adobe Illustrator 19.0.0, SVG Export Plug-In . SVG Version: 6.00 Build 0)  -->
<svg version="1.1" id="Layer_1" xmlns="http://www.w3.org/2000/svg" xmlns:xlink="http://www.w3.org/1999/xlink" x="0px" y="0px"
	 viewBox="0 0 512 512" style="enable-background:new 0 0 512 512;" xml:space="preserve">
<g>
	<polygon style="fill:#D1F0EF;" points="173.088,215.226 351.564,215.226 287.063,512 237.584,512 	"/>
	<polygon style="fill:#D2B4B3;" points="313.104,392.176 291.809,490.172 232.841,490.172 211.543,392.176 	"/>
	<path style="fill:#E4EABA;" d="M319.6,362.3l-18.77,86.359c-30.52-4.079-57.801-10.467-80.794-17.419L205.05,362.3H319.6z"/>
	<path style="fill:#D2B4B3;" d="M329.67,315.961l-19.034,87.581c-39.539-4.526-74.064-13.06-101.415-22.048l-14.241-65.532H329.67z"
		/>
	<path style="fill:#E4EABA;" d="M340.617,265.592l-19.193,88.307c-50.763-5.144-93.677-17.024-124.379-28.445l-13.012-59.861
		H340.617L340.617,265.592z"/>
	<path style="fill:#D2B4B3;" d="M173.088,215.226h178.476l-19.404,89.283c-62.578-5.029-114.167-20.616-147.077-34.087
		L173.088,215.226z"/>
	<path style="fill:#FFF1AD;" d="M347.821,512h-170.99v-10.914c0-6.002,4.909-10.914,10.914-10.914h149.163
		c6.002,0,10.914,4.911,10.914,10.914L347.821,512L347.821,512z"/>
	<path style="fill:#D33B3A;" d="M309.419,223.736c-49.001,21.705-163.873,28.212-155.461-23.88
		C162.369,147.766,366.259,178.774,309.419,223.736z"/>
	<path style="fill:#F6E385;" d="M191.771,144.985c-47.616,0.986-65.172,37.138-26.08,62.167
		c50.628,32.409,194.56,40.207,201.77,8.392C374.668,183.733,262.714,143.518,191.771,144.985z"/>
	<path style="fill:#D33B3A;" d="M216.634,108.052c-47.243-2.276-87.206,30.488-38.659,59.446
		c53.385,31.842,133.478-1.704,185.967,34.356C376.252,170.533,287.022,111.439,216.634,108.052z"/>
	<path style="fill:#F6E385;" d="M352.165,169.853c-50.15-41.207-97.237-21.183-141.988-39.08s-27.599-49.412-4.185-55.784
		c23.414-6.373-18.404-35.582,41.765-74.417c5.471,32.46,11.57,74.535,49.869,89.684S361.853,142.216,352.165,169.853z"/>
	<path style="fill:#D33B3A;" d="M206.363,61.503c-3.024-11.998,0.236-35.505,32.508-58.087c5.296-3.702,13.558-5.933,14.332,1.606
		c3.151,30.645,10.209,71.705,44.419,85.234c9.993,3.954,19.197,9.656,27.125,16.44C296.097,88.035,214.151,92.378,206.363,61.503z"
		/>
	<g>
		
			<path style="fill:none;stroke:#E66363;stroke-width:2.4;stroke-linecap:round;stroke-linejoin:round;stroke-miterlimit:22.926;" d="
			M237.954,16.106c-5.808,3.452-13.173,12.815-17.036,23.883"/>
		
			<path style="fill:none;stroke:#FFF1AD;stroke-width:2.4;stroke-linecap:round;stroke-linejoin:round;stroke-miterlimit:22.926;" d="
			M205.812,84.054c-6.539,0.536-15.483,11.567-15.392,21.58"/>
		
			<path style="fill:none;stroke:#E66363;stroke-width:2.4;stroke-linecap:round;stroke-linejoin:round;stroke-miterlimit:22.926;" d="
			M178.182,126.184c-4.998,0.409-11.832,8.839-11.762,16.488"/>
		
			<path style="fill:none;stroke:#FFF1AD;stroke-width:2.4;stroke-linecap:round;stroke-linejoin:round;stroke-miterlimit:22.926;" d="
			M159.867,163.786c-5.188,1.887-11.43,10.89-11.339,20.902"/>
	</g>
</g>
<g>
</g>
<g>
</g>
<g>
</g>
<g>
</g>
<g>
</g>
<g>
</g>
<g>
</g>
<g>
</g>
<g>
</g>
<g>
</g>
<g>
</g>
<g>
</g>
<g>
</g>
<g>
</g>
<g>
</g>
</svg>
