<?xml version="1.0" encoding="iso-8859-1"?>
<!-- Generator: Adobe Illustrator 19.0.0, SVG Export Plug-In . SVG Version: 6.00 Build 0)  -->
<svg version="1.1" id="Layer_1" xmlns="http://www.w3.org/2000/svg" xmlns:xlink="http://www.w3.org/1999/xlink" x="0px" y="0px"
	 viewBox="0 0 512 512" style="enable-background:new 0 0 512 512;" xml:space="preserve">
<path style="fill:#E0E0E2;" d="M164.627,279.443L14.639,426.518c-19.519,19.519-19.519,51.318,0,70.836
	c19.519,19.519,51.318,19.519,70.837,0l150.934-147.966C205.95,333.948,180.83,309.445,164.627,279.443z"/>
<path style="fill:#C6C5CA;" d="M193.631,318.363L14.639,497.356c19.519,19.519,51.318,19.519,70.836,0l150.935-147.967
	C220.532,341.339,206.101,330.834,193.631,318.363z"/>
<path style="fill:#ED539D;" d="M111.285,200.362c0,110.473,89.885,200.357,200.357,200.357S512,310.835,512,200.362
	S422.115,0.005,311.643,0.005S111.285,89.89,111.285,200.362z"/>
<path style="fill:#EA348B;" d="M453.231,58.739C489.521,95.02,512,145.116,512,200.361c0,110.473-89.885,200.357-200.357,200.357
	c-55.245,0-105.341-22.479-141.623-58.769L453.231,58.739z"/>
<path style="fill:#FFCCE4;" d="M145.939,166.963c0-9.229,7.468-16.724,16.685-16.724c0.011,0,0.011,0,0.011,0
	c9.218,0,16.696,7.486,16.696,16.703c0.032,64.34,41.447,133.591,132.31,133.591c68.123,0,99.157-51.923,99.157-100.174
	c-0.011-48.253-31.045-100.176-99.157-100.176c-20.654,0-37.795,7.067-49.578,20.436c-10.501,11.902-16.512,28.796-16.501,46.35
	c0.011,33.24,20.446,66.786,66.079,66.786c24.327,0,32.958-17.99,32.958-33.382c-0.011-15.414-8.642-33.404-32.958-33.404
	c-9.218,0-16.696-7.479-16.696-16.696c0-9.218,7.479-16.696,16.696-16.696c43.545,0,66.341,33.589,66.351,66.786
	c0,33.186-22.795,66.786-66.351,66.786c-65.285,0-99.461-50.393-99.472-100.168c-0.011-25.947,8.805-50.252,24.838-68.449
	c18.305-20.761,44.111-31.741,74.634-31.741c87.004,0,132.539,67.188,132.55,133.572c0,66.373-45.535,133.563-132.55,133.563
	C202.91,333.925,145.971,249.923,145.939,166.963z"/>
<g>
	<path style="fill:#F7AFD1;" d="M344.6,200.372c0,15.392-8.631,33.382-32.958,33.382c-10.803,0-20.176-1.898-28.218-5.209
		l-24.789,24.789c14.419,8.648,32.117,13.814,53.007,13.814c43.557,0,66.351-33.6,66.351-66.786
		c-0.006-17.459-6.322-35.018-18.634-47.751l-23.605,23.605C342.021,182.818,344.595,191.974,344.6,200.372z"/>
	<path style="fill:#F7AFD1;" d="M444.192,200.362c-0.006-34.881-12.588-69.979-37.144-95.44l-23.601,23.601
		c18.532,19.385,27.345,46.133,27.351,71.84c0,48.253-31.034,100.179-99.157,100.179c-31.917,0-57.724-8.552-77.789-22.426
		l-23.81,23.81c26.129,19.755,60.084,32.008,101.598,32.008C398.658,333.934,444.192,266.734,444.192,200.362z"/>
</g>
<g>
</g>
<g>
</g>
<g>
</g>
<g>
</g>
<g>
</g>
<g>
</g>
<g>
</g>
<g>
</g>
<g>
</g>
<g>
</g>
<g>
</g>
<g>
</g>
<g>
</g>
<g>
</g>
<g>
</g>
</svg>
