<?xml version="1.0" encoding="iso-8859-1"?>
<!-- Generator: Adobe Illustrator 19.0.0, SVG Export Plug-In . SVG Version: 6.00 Build 0)  -->
<svg version="1.1" id="Layer_1" xmlns="http://www.w3.org/2000/svg" xmlns:xlink="http://www.w3.org/1999/xlink" x="0px" y="0px"
	 viewBox="0 0 512 512" style="enable-background:new 0 0 512 512;" xml:space="preserve">
<path style="fill:#FFD248;" d="M245.225,104.653c0,51.852-42.021,93.878-93.878,93.878s-93.878-42.026-93.878-93.878
	s42.021-93.878,93.878-93.878C203.204,10.776,245.225,52.801,245.225,104.653z"/>
<g>
	<path style="fill:#231F20;" d="M151.51,208.98c-57.617,0-104.49-46.874-104.49-104.49S93.894,0,151.51,0S256,46.874,256,104.49
		h-20.898c0-46.093-37.499-83.592-83.592-83.592S67.918,58.397,67.918,104.49s37.499,83.592,83.592,83.592V208.98z"/>
	<rect x="135.837" y="41.796" style="fill:#231F20;" width="26.122" height="20.898"/>
	<rect x="83.592" y="83.592" style="fill:#231F20;" width="26.122" height="20.898"/>
	<rect x="109.714" y="135.837" style="fill:#231F20;" width="26.122" height="20.898"/>
</g>
<polygon style="fill:#F1F2F2;" points="454.531,104.49 401.136,182.857 194.456,182.857 141.061,104.49 334.367,104.49 "/>
<polygon style="fill:#31C0D8;" points="297.796,334.367 194.456,182.857 401.136,182.857 "/>
<polygon style="fill:#BCBEC0;" points="370.939,470.204 370.939,501.551 224.653,501.551 224.653,470.204 297.796,470.204 "/>
<path style="fill:#231F20;" d="M463.769,99.606c-1.811-3.423-5.366-5.565-9.238-5.565H348.332l19.975-67.918h75.774V5.224H360.49
	c-4.635,0-8.717,3.053-10.025,7.5l-23.916,81.316H141.061c-3.872,0-7.427,2.142-9.238,5.565c-1.809,3.423-1.578,7.567,0.602,10.768
	l53.396,78.372l101.525,148.847v122.163h-62.694c-5.771,0-10.449,4.678-10.449,10.449v20.898h-20.898V512h208.98v-20.898h-20.898
	v-20.898c0-5.771-4.679-10.449-10.449-10.449h-62.694V337.592L409.772,188.74l53.394-78.367
	C465.346,107.173,465.577,103.029,463.769,99.606z M360.49,491.102H235.102v-10.449H360.49V491.102z M214.23,193.306h167.13
	l-83.565,122.517L214.23,193.306z M395.612,172.408H199.981l-39.157-57.469h273.943L395.612,172.408z"/>
<g>
</g>
<g>
</g>
<g>
</g>
<g>
</g>
<g>
</g>
<g>
</g>
<g>
</g>
<g>
</g>
<g>
</g>
<g>
</g>
<g>
</g>
<g>
</g>
<g>
</g>
<g>
</g>
<g>
</g>
</svg>
