<?xml version="1.0" encoding="iso-8859-1"?>
<!-- Generator: Adobe Illustrator 19.0.0, SVG Export Plug-In . SVG Version: 6.00 Build 0)  -->
<svg version="1.1" id="Layer_1" xmlns="http://www.w3.org/2000/svg" xmlns:xlink="http://www.w3.org/1999/xlink" x="0px" y="0px"
	 viewBox="0 0 511.983 511.983" style="enable-background:new 0 0 511.983 511.983;" xml:space="preserve">
<path style="fill:#FB6D51;" d="M248.896,138.651l21.327-106.652l-85.341-10.672l-85.34,10.672l21.327,106.652
	C-7.157,338.722,76.668,502.748,76.668,502.748s19.452,7.641,107.544,9.234h1.343c88.091-1.594,107.544-9.234,107.544-9.234
	S376.923,338.722,248.896,138.651z"/>
<path style="fill:#FECD57;" d="M355.581,405.299v85.341c0,0,5.015,10.734,23.405,16.968c1.952,2.657,5.062,4.375,8.593,4.375h42.687
	c3.516,0,6.641-1.718,8.577-4.375c18.406-6.233,23.421-16.968,23.421-16.968v-85.341H355.581z"/>
<g style="opacity:0.2;">
	<path style="fill:#FFFFFF;" d="M451.593,405.299v85.341c0,0-5.015,10.734-23.405,16.968c-1.953,2.657-5.063,4.375-8.594,4.375
		h10.672c3.516,0,6.641-1.718,8.577-4.375c18.406-6.233,23.421-16.968,23.421-16.968v-85.341H451.593z"/>
</g>
<g>
	<path style="fill:#D94452;" d="M252.803,144.87c-12.203,18.858-36.718,48.764-77.731,67.06
		c-63.857,28.469-100.919,68.091-120.543,95.685c-9.234,57.951-3.656,106.794,4.203,141.136
		c19.155-28.249,67.311-91.466,129.011-116.152c62.404-24.968,94.403-77.122,106.934-102.871
		C284.583,202.524,270.942,174.103,252.803,144.87z"/>
	<path style="fill:#D94452;" d="M228.475,428.673c-44.873,27.343-73.17,63.42-85.747,81.919c11.765,0.609,25.483,1.094,41.483,1.391
		h1.343c88.091-1.594,107.544-9.234,107.544-9.234s31.654-61.951,26.342-156.15C301.942,368.175,269.568,403.641,228.475,428.673z"
		/>
</g>
<g style="opacity:0.2;">
	<path style="fill:#FFFFFF;" d="M248.896,138.651l21.327-106.652l-85.341-10.672l-10.671,1.344l74.685,9.328l-21.342,106.652
		c128.027,200.071,44.201,364.097,44.201,364.097s-17.983,7.063-97.543,9.017c3.234,0.077,6.563,0.155,10,0.218h1.343
		c88.091-1.594,107.544-9.234,107.544-9.234S376.923,338.722,248.896,138.651z"/>
</g>
<path style="fill:#424953;" d="M184.883,53.342c-21.546,0-41.654-3.094-56.607-8.703c-14.749-5.531-18.077-11.109-18.077-12.64
	c0-1.516,3.328-7.109,18.077-12.641c14.953-5.609,35.062-8.688,56.607-8.688c21.547,0,41.655,3.078,56.607,8.688
	c14.75,5.531,18.078,11.125,18.078,12.641c0,1.53-3.328,7.108-18.078,12.64C226.538,50.248,206.429,53.342,184.883,53.342z"/>
<path style="fill:#E8563F;" d="M184.883,0c-47.139,0-85.341,14.327-85.341,31.999c0,17.671,38.202,32.015,85.341,32.015
	c47.14,0,85.341-14.344,85.341-32.015C270.223,14.327,232.022,0,184.883,0z M230.71,36.952c-12.891,3.687-29.171,5.718-45.827,5.718
	c-16.655,0-32.936-2.031-45.826-5.718c-5.828-1.657-10.125-3.406-13.172-4.953c3.047-1.531,7.344-3.281,13.172-4.953
	c12.891-3.688,29.171-5.719,45.826-5.719c16.656,0,32.937,2.031,45.827,5.719c5.828,1.672,10.125,3.422,13.171,4.953
	C240.835,33.546,236.538,35.295,230.71,36.952z"/>
<g>
</g>
<g>
</g>
<g>
</g>
<g>
</g>
<g>
</g>
<g>
</g>
<g>
</g>
<g>
</g>
<g>
</g>
<g>
</g>
<g>
</g>
<g>
</g>
<g>
</g>
<g>
</g>
<g>
</g>
</svg>
