<?xml version="1.0" encoding="iso-8859-1"?>
<!-- Generator: Adobe Illustrator 19.0.0, SVG Export Plug-In . SVG Version: 6.00 Build 0)  -->
<svg version="1.1" id="Layer_1" xmlns="http://www.w3.org/2000/svg" xmlns:xlink="http://www.w3.org/1999/xlink" x="0px" y="0px"
	 viewBox="0 0 492.8 492.8" style="enable-background:new 0 0 492.8 492.8;" xml:space="preserve">
<path style="fill:#FFFCEE;" d="M246.4,0L246.4,0H95.2c3.2,64-22.4,87.2-22.4,113.6c0,95.2,77.6,173.6,173.6,175.2l0,0l0,0l0,0l0,0
	c96-1.6,173.6-80,173.6-175.2C420,87.2,395.2,64,397.6,0C397.6,0,246.4,0,246.4,0z"/>
<path style="fill:#EDE9D9;" d="M246.4,288L246.4,288C246.4,288.8,246.4,288.8,246.4,288C246.4,288.8,246.4,288.8,246.4,288
	L246.4,288c96-0.8,173.6-79.2,173.6-174.4C420,87.2,395.2,64,397.6,0H246.4l0,0"/>
<path style="fill:#E8E3CF;" d="M246.4,0L246.4,0H105.6C108,56,96,76,96,98.4c0,82.4,70.4,151.2,150.4,152l0,0l0,0l0,0l0,0
	c80-1.6,150.4-69.6,150.4-152c0-23.2-12-42.4-9.6-98.4C387.2,0,246.4,0,246.4,0z"/>
<path style="fill:#D8D2BA;" d="M246.4,248v2.4l0,0l0,0l0,0c80-1.6,150.4-69.6,150.4-152c0-23.2-12-42.4-9.6-98.4H246.4l0,0"/>
<g>
	<path style="fill:#F4F2EA;" d="M226.4,98.4l-28-34.4c-4-4.8-10.4-5.6-15.2-1.6l-35.2,28c-4.8,4-5.6,10.4-1.6,15.2l28,35.2
		c4,4.8,10.4,5.6,15.2,1.6l35.2-28C229.6,110.4,230.4,103.2,226.4,98.4z"/>
	<path style="fill:#F4F2EA;" d="M272.8,140.8l-41.6-16c-5.6-2.4-12,0.8-14.4,6.4l-16,41.6c-2.4,5.6,0.8,12,6.4,14.4l41.6,16
		c5.6,2.4,12-0.8,14.4-6.4l16-41.6C281.6,148.8,278.4,143.2,272.8,140.8z"/>
	<path style="fill:#F4F2EA;" d="M347.2,114.4l-25.6-36.8c-3.2-4.8-10.4-6.4-15.2-2.4l-36.8,25.6c-4.8,3.2-6.4,10.4-2.4,15.2
		l25.6,36.8c3.2,4.8,10.4,6.4,15.2,2.4l36.8-25.6C349.6,126.4,350.4,120,347.2,114.4z"/>
</g>
<path style="fill:#9B0B4D;" d="M96,104c2.4,80,70.4,145.6,150.4,146.4l0,0l0,0l0,0l0,0c80-0.8,148-66.4,150.4-146.4H96z"/>
<path style="fill:#77003C;" d="M246.4,248v2.4l0,0l0,0l0,0c80-1.6,147.2-65.6,150.4-145.6L246.4,104"/>
<g>
	<path style="fill:#4C002D;" d="M146.4,104.8l28,35.2c4,4.8,10.4,5.6,15.2,1.6l35.2-28c3.2-2.4,4-1.6,4-9.6h-83.2
		C146.4,104,146.4,104.8,146.4,104.8z"/>
	<path style="fill:#4C002D;" d="M272.8,140.8l-41.6-16c-5.6-2.4-12,0.8-14.4,6.4l-16,41.6c-2.4,5.6,0.8,12,6.4,14.4l41.6,16
		c5.6,2.4,12-0.8,14.4-6.4l16-41.6C281.6,148.8,278.4,143.2,272.8,140.8z"/>
	<path style="fill:#4C002D;" d="M266.4,116l25.6,36.8c3.2,4.8,10.4,6.4,15.2,2.4l36.8-25.6c4.8-3.2,6.4-10.4,2.4-16L340,104h-73.6
		C264,112,264,112.8,266.4,116z"/>
</g>
<path style="fill:#FFFCEE;" d="M369.6,478.4c0,8-55.2,14.4-123.2,14.4s-123.2-6.4-123.2-14.4s55.2-31.2,123.2-31.2
	C314.4,446.4,369.6,469.6,369.6,478.4z"/>
<path style="fill:#EDE9D9;" d="M246.4,446.4c68,0,123.2,23.2,123.2,31.2S314.4,492,246.4,492"/>
<polygon style="fill:#FFFCEE;" points="260.8,464.8 246.4,469.6 232,464.8 239.2,284.8 246.4,274.4 253.6,284.8 "/>
<polyline style="fill:#EDE9D9;" points="246.4,274.4 253.6,284.8 260.8,464.8 246.4,469.6 "/>
<path style="fill:#FFFCEE;" d="M374.4,12c0,2.4-1.6,4-4,4h-248c-2.4,0-4-1.6-4-4l0,0c0-2.4,1.6-4,4-4h248
	C372.8,8,374.4,9.6,374.4,12L374.4,12z"/>
<ellipse transform="matrix(0.2034 0.9791 -0.9791 0.2034 599.5127 189.9054)" style="fill:#FFFFFF;" cx="183.051" cy="463.381" rx="5.6" ry="34.4"/>
<g>
</g>
<g>
</g>
<g>
</g>
<g>
</g>
<g>
</g>
<g>
</g>
<g>
</g>
<g>
</g>
<g>
</g>
<g>
</g>
<g>
</g>
<g>
</g>
<g>
</g>
<g>
</g>
<g>
</g>
</svg>
