<?xml version="1.0" encoding="iso-8859-1"?>
<!-- Generator: Adobe Illustrator 19.0.0, SVG Export Plug-In . SVG Version: 6.00 Build 0)  -->
<svg version="1.1" id="Layer_1" xmlns="http://www.w3.org/2000/svg" xmlns:xlink="http://www.w3.org/1999/xlink" x="0px" y="0px"
	 viewBox="0 0 512 512" style="enable-background:new 0 0 512 512;" xml:space="preserve">
<g transform="translate(1 1)">
	<path style="fill:#1CD759;" d="M327.533,263.533L327.533,263.533C305.347,230.253,293.4,191,293.4,150.893V87.747
		c0-23.893,8.533-47.787,23.04-66.56c6.827-8.533,17.067-13.653,28.16-13.653c5.12,0,8.533,3.413,8.533,8.533v247.467H327.533z"/>
	<g>
		<path style="fill:#FD9808;" d="M378.733,468.333c0,18.773-15.36,34.133-34.133,34.133h-17.067
			c-18.773,0-34.133-15.36-34.133-34.133V297.667c0-18.773,15.36-34.133,34.133-34.133l0,0H344.6
			c18.773,0,34.133,15.36,34.133,34.133V468.333z"/>
		<path style="fill:#FD9808;" d="M216.6,468.333c0,18.773-15.36,34.133-34.133,34.133H165.4c-18.773,0-34.133-15.36-34.133-34.133
			V297.667c0-18.773,15.36-34.133,34.133-34.133l0,0h17.067c18.773,0,34.133,15.36,34.133,34.133V468.333z"/>
	</g>
	<g>
		<path style="fill:#FFDD09;" d="M353.133,468.333c0,18.773-11.093,34.133-23.893,34.133h-11.947
			c-12.8,0-23.893-15.36-23.893-34.133V297.667c0-18.773,11.093-34.133,23.893-34.133h11.947c12.8,0,23.893,15.36,23.893,34.133
			V468.333z"/>
		<path style="fill:#FFDD09;" d="M191,468.333c0,18.773-11.093,34.133-23.893,34.133H155.16c-12.8,0-23.893-15.36-23.893-34.133
			V297.667c0-18.773,11.093-34.133,23.893-34.133h11.947c13.653,0,23.893,15.36,23.893,34.133V468.333z"/>
	</g>
	<path d="M173.933,272.067c-5.12,0-8.533-3.413-8.533-8.533v-93.867c0-5.12,3.413-8.533,8.533-8.533c5.12,0,8.533,3.413,8.533,8.533
		v93.867C182.467,268.653,179.053,272.067,173.933,272.067z"/>
	<path d="M173.933,178.2c-5.12,0-8.533-3.413-8.533-8.533V7.533c0-5.12,3.413-8.533,8.533-8.533c5.12,0,8.533,3.413,8.533,8.533
		v162.133C182.467,174.787,179.053,178.2,173.933,178.2z"/>
	<path d="M353.133,272.067h-25.6c-2.56,0-5.12-1.707-6.827-3.413c-23.04-34.987-35.84-75.093-35.84-117.76V87.747
		c0-26.453,8.533-51.2,24.747-71.68C318.147,5.827,330.947-1,344.6-1c9.387,0,17.067,7.68,17.067,17.067v247.467
		C361.667,268.653,358.253,272.067,353.133,272.067z M332.653,255H344.6V16.067c-8.533,0-16.213,3.413-21.333,10.24
		c-13.653,17.067-21.333,39.253-21.333,61.44v63.147C301.933,187.587,312.173,223.427,332.653,255z"/>
	<path d="M173.933,178.2c-28.16,0-51.2-23.04-51.2-51.2V7.533c0-5.12,3.413-8.533,8.533-8.533c5.12,0,8.533,3.413,8.533,8.533V127
		c0,18.773,15.36,34.133,34.133,34.133s34.133-15.36,34.133-34.133V7.533c0-5.12,3.413-8.533,8.533-8.533
		c5.12,0,8.533,3.413,8.533,8.533V127C225.133,155.16,202.093,178.2,173.933,178.2z"/>
	<path d="M344.6,383c0-5.12-3.413-8.533-8.533-8.533s-8.533,3.413-8.533,8.533c0,5.12,3.413,8.533,8.533,8.533
		S344.6,388.12,344.6,383"/>
	<path d="M344.6,511h-17.067c-23.893,0-42.667-18.773-42.667-42.667V297.667c0-23.893,18.773-42.667,42.667-42.667H344.6
		c23.893,0,42.667,18.773,42.667,42.667v170.667C387.267,492.227,368.493,511,344.6,511z M327.533,272.067
		c-14.507,0-25.6,11.093-25.6,25.6v170.667c0,14.507,11.093,25.6,25.6,25.6H344.6c14.507,0,25.6-11.093,25.6-25.6V297.667
		c0-14.507-11.093-25.6-25.6-25.6H327.533z"/>
	<path d="M182.467,383c0-5.12-3.413-8.533-8.533-8.533c-5.12,0-8.533,3.413-8.533,8.533c0,5.12,3.413,8.533,8.533,8.533
		C179.053,391.533,182.467,388.12,182.467,383"/>
	<path d="M182.467,511H165.4c-23.893,0-42.667-18.773-42.667-42.667V297.667c0-23.893,18.773-42.667,42.667-42.667h17.067
		c23.893,0,42.667,18.773,42.667,42.667v170.667C225.133,492.227,206.36,511,182.467,511z M165.4,272.067
		c-14.507,0-25.6,11.093-25.6,25.6v170.667c0,14.507,11.093,25.6,25.6,25.6h17.067c14.507,0,25.6-11.093,25.6-25.6V297.667
		c0-14.507-11.093-25.6-25.6-25.6H165.4z"/>
</g>
<g>
</g>
<g>
</g>
<g>
</g>
<g>
</g>
<g>
</g>
<g>
</g>
<g>
</g>
<g>
</g>
<g>
</g>
<g>
</g>
<g>
</g>
<g>
</g>
<g>
</g>
<g>
</g>
<g>
</g>
</svg>
