<?xml version="1.0" encoding="iso-8859-1"?>
<!-- Generator: Adobe Illustrator 19.0.0, SVG Export Plug-In . SVG Version: 6.00 Build 0)  -->
<svg version="1.1" id="Layer_1" xmlns="http://www.w3.org/2000/svg" xmlns:xlink="http://www.w3.org/1999/xlink" x="0px" y="0px"
	 viewBox="0 0 504.747 504.747" style="enable-background:new 0 0 504.747 504.747;" xml:space="preserve">
<g transform="translate(1 1)">
	<path style="fill:#7EE1E6;" d="M489.667,13.08c13.653,13.653,13.653,34.987,0,47.787c-11.947,11.947-23.893,11.947-48.64,35.84
		c5.973,5.973,23.893,35.84,5.973,66.56L338.627,54.894c29.867-17.92,60.587,0,66.56,5.973c23.893-23.893,23.893-35.84,35.84-47.787
		C454.68-0.573,476.014-0.573,489.667,13.08"/>
	<path style="fill:#FFD0A1;" d="M447,163.267c6.827,6.827,6.827,17.067,0,23.893L411.16,223l0,0L278.894,90.733l0.853-0.853
		l35.84-35.84c6.827-6.827,17.92-6.827,23.893,0L447,163.267z"/>
	<path style="fill:#F2EDDA;" d="M411.16,223.854c13.653,13.653,13.653,34.987,0,47.787L194.414,488.387
		c-13.653,13.653-34.987,13.653-48.64,0L13.507,356.12c-13.653-13.653-13.653-34.987,0-48.64L230.254,90.733
		c13.653-13.653,34.987-13.653,47.787,0L411.16,223.854L411.16,223.854z"/>
</g>
<path style="fill:#51565F;" d="M170.667,504.747c-10.24,0-19.627-3.413-27.307-11.093L11.094,361.387
	C4.267,354.561,0,344.32,0,334.08s4.267-19.627,11.093-27.307L227.84,90.027c15.36-15.36,39.253-15.36,54.613,0L390.827,198.4
	c1.707,1.707,1.707,4.267,0,5.973c-1.707,1.707-4.267,1.707-5.973,0L276.48,96c-11.947-11.947-30.72-11.947-41.813,0L17.92,312.747
	c-5.973,5.973-8.533,12.8-8.533,21.333s3.413,15.36,8.533,21.333L150.187,487.68c11.947,11.947,30.72,11.947,41.813,0
	l216.747-216.747c11.947-11.947,11.947-30.72,0-41.813c-1.707-1.707-1.707-4.267,0-5.973l35.84-35.84
	c2.56-2.56,3.413-5.973,3.413-9.387c0-3.413-1.707-6.827-3.413-9.387l0,0L336.213,60.16l0,0c-2.56-2.56-5.973-3.413-9.387-3.413l0,0
	c-3.413,0-6.827,1.707-9.387,3.413l-11.947,11.947c-1.707,1.707-4.267,1.707-5.973,0s-1.707-4.267,0-5.973l11.947-11.947
	c4.267-4.267,9.387-5.973,15.36-5.973l0,0c4.267,0,8.533,1.707,12.8,4.267c27.307-14.507,54.613-2.56,65.707,5.12
	c11.947-11.947,17.067-21.333,21.333-29.013c3.413-5.973,6.827-11.093,11.947-17.067c15.36-15.36,39.253-15.36,54.613,0
	c15.36,15.36,15.36,39.253,0,54.613c-5.12,5.12-10.24,8.533-17.067,11.947c-7.68,4.267-16.213,9.387-29.013,21.333
	c8.533,11.093,19.627,38.4,5.12,65.707c2.56,3.413,4.267,7.68,4.267,12.8c0,5.973-2.56,11.093-5.973,15.36l-33.28,33.28
	c11.947,15.36,11.093,37.547-2.56,51.2L197.973,494.506C190.294,500.48,180.907,504.747,170.667,504.747z M347.307,56.747
	L448,157.44c12.8-27.307-4.267-52.053-7.68-56.32c-1.707-1.707-1.707-4.267,0-5.973c14.507-14.507,24.747-20.48,33.28-25.6
	c5.973-3.413,10.24-5.973,15.36-11.093c11.947-11.947,11.947-30.72,0-41.813c-11.947-11.947-30.72-11.947-41.813,0
	c-4.267,4.267-7.68,9.387-11.093,15.36c-5.12,8.533-11.093,18.773-25.6,33.28c-0.853,0.853-1.707,0.853-3.413,0.853l0,0
	c-0.853,0-2.56-0.853-3.413-0.853C399.36,61.014,373.76,44.8,347.307,56.747z M158.72,433.92c-0.853,0-2.56,0-3.413-0.853
	l-11.947-11.947c-1.707-1.707-1.707-4.267,0-5.973c1.707-1.707,4.267-1.707,5.973,0l11.947,11.947c1.707,1.707,1.707,4.267,0,5.973
	C161.28,433.92,160.427,433.92,158.72,433.92z M183.467,410.027c-0.853,0-2.56,0-3.413-0.853l-11.947-11.947
	c-1.707-1.707-1.707-4.267,0-5.973c1.707-1.707,4.267-1.707,5.973,0l11.947,11.947c1.707,1.707,1.707,4.267,0,5.973
	C185.174,410.027,184.32,410.027,183.467,410.027z M207.36,386.133c-0.853,0-2.56,0-3.413-0.853l-35.84-35.84
	c-1.707-1.707-1.707-4.267,0-5.973c1.707-1.707,4.267-1.707,5.973,0l35.84,35.84c1.707,1.707,1.707,4.267,0,5.973
	C209.067,385.28,208.214,386.133,207.36,386.133z M231.254,361.387c-0.853,0-2.56,0-3.413-0.853l-11.947-11.947
	c-1.707-1.707-1.707-4.267,0-5.973c1.707-1.707,4.267-1.707,5.973,0l11.947,11.947c1.707,1.707,1.707,4.267,0,5.973
	C233.814,361.387,232.107,361.387,231.254,361.387z M255.147,337.494c-0.853,0-2.56,0-3.413-0.853l-11.947-11.947
	c-1.707-1.707-1.707-4.267,0-5.973c1.707-1.707,4.267-1.707,5.973,0l11.947,11.947c1.707,1.707,1.707,4.267,0,5.973
	C257.707,337.494,256.854,337.494,255.147,337.494z M279.894,313.6c-0.853,0-2.56,0-3.413-0.853l-35.84-35.84
	c-1.707-1.707-1.707-4.267,0-5.973c1.707-1.707,4.267-1.707,5.973,0l35.84,35.84c1.707,1.707,1.707,4.267,0,5.973
	C281.6,312.747,280.747,313.6,279.894,313.6z M303.787,289.707c-0.853,0-2.56,0-3.413-0.853l-11.947-11.947
	c-1.707-1.707-1.707-4.267,0-5.973c1.707-1.707,4.267-1.707,5.973,0l11.947,11.947c1.707,1.707,1.707,4.267,0,5.973
	C305.494,288.854,304.64,289.707,303.787,289.707z M327.68,264.96c-0.853,0-2.56,0-3.413-0.853L312.32,252.16
	c-1.707-1.707-1.707-4.267,0-5.973c1.707-1.707,4.267-1.707,5.973,0l11.947,11.947c1.707,1.707,1.707,4.267,0,5.973
	C330.24,264.96,328.534,264.96,327.68,264.96z M351.574,241.067c-0.853,0-2.56,0-3.413-0.853l-35.84-35.84
	c-1.707-1.707-1.707-4.267,0-5.973c1.707-1.707,4.267-1.707,5.973,0l35.84,35.84c1.707,1.707,1.707,4.267,0,5.973
	C354.134,241.067,353.28,241.067,351.574,241.067z"/>
<g>
</g>
<g>
</g>
<g>
</g>
<g>
</g>
<g>
</g>
<g>
</g>
<g>
</g>
<g>
</g>
<g>
</g>
<g>
</g>
<g>
</g>
<g>
</g>
<g>
</g>
<g>
</g>
<g>
</g>
</svg>
