<?xml version="1.0" encoding="iso-8859-1"?>
<!-- Generator: Adobe Illustrator 19.0.0, SVG Export Plug-In . SVG Version: 6.00 Build 0)  -->
<svg version="1.1" id="Layer_1" xmlns="http://www.w3.org/2000/svg" xmlns:xlink="http://www.w3.org/1999/xlink" x="0px" y="0px"
	 viewBox="0 0 347.955 347.955" style="enable-background:new 0 0 347.955 347.955;" xml:space="preserve">
<g>
	<circle style="fill:#FFDB77;" cx="173.977" cy="221.247" r="83.048"/>
	<path style="fill:#28D2E4;" d="M147.77,142.444L92.143,43.657H7.508l86.799,154.146C101.97,171.723,122.078,150.985,147.77,142.444
		z"/>
	<path style="fill:#13829B;" d="M253.647,197.803l86.799-154.146h-84.635l-55.626,98.787
		C225.877,150.985,245.984,171.723,253.647,197.803z"/>
	<g>
		<path style="fill:#22313F;" d="M340.446,36.158h-84.635c-2.709,0-5.206,1.46-6.535,3.82l-52.693,93.577
			c-14.675-3.785-30.345-3.835-45.211,0L98.678,39.978c-1.329-2.36-3.827-3.82-6.535-3.82H7.508c-5.731,0-9.346,6.187-6.535,11.18
			l85.278,151.445c-14.681,57.298,28.852,113.013,87.726,113.013c58.839,0,102.421-55.66,87.726-113.013l85.278-151.445
			C349.793,42.344,346.175,36.158,340.446,36.158z M93.139,180.444l-72.8-129.286h67.42l49.236,87.438
			C117.816,147.208,102.377,162.14,93.139,180.444z M173.977,296.795c-41.657,0-75.548-33.891-75.548-75.548
			c0-41.708,33.956-75.548,75.548-75.548c41.916,0,75.548,34.15,75.548,75.548C249.525,262.904,215.634,296.795,173.977,296.795z
			 M254.815,180.444c-9.272-18.371-24.747-33.268-43.856-41.849l49.236-87.438h67.42L254.815,180.444z"/>
		<path style="fill:#22313F;" d="M213.39,199.874l-19.13-2.779l-8.556-17.336c-4.795-9.716-18.66-9.712-23.452,0l-8.556,17.336
			l-19.132,2.779c-10.72,1.559-15.004,14.745-7.247,22.304l13.844,13.495l-3.268,19.054c-1.831,10.678,9.386,18.825,18.973,13.784
			l17.112-8.995l17.111,8.994c9.588,5.045,20.805-3.107,18.974-13.783l-3.268-19.054l13.843-13.494
			C228.395,214.617,224.111,201.433,213.39,199.874z M174.865,259.048l0.007-0.004c0,0,0.001-0.001,0.002-0.001
			C174.871,259.045,174.868,259.046,174.865,259.048z M195.6,225.636c-3.083,3.005-4.489,7.331-3.761,11.574l2.78,16.209
			l-14.555-7.651c-3.774-1.985-8.32-2.025-12.172,0l-14.555,7.651l2.78-16.209c0.727-4.243-0.679-8.569-3.761-11.573l-11.777-11.48
			l16.274-2.364c4.26-0.618,7.941-3.293,9.847-7.153l7.278-14.747l7.278,14.747c1.905,3.86,5.586,6.535,9.846,7.153l16.275,2.364
			L195.6,225.636z"/>
	</g>
</g>
<g>
</g>
<g>
</g>
<g>
</g>
<g>
</g>
<g>
</g>
<g>
</g>
<g>
</g>
<g>
</g>
<g>
</g>
<g>
</g>
<g>
</g>
<g>
</g>
<g>
</g>
<g>
</g>
<g>
</g>
</svg>
