<?xml version="1.0" encoding="iso-8859-1"?>
<!-- Generator: Adobe Illustrator 19.0.0, SVG Export Plug-In . SVG Version: 6.00 Build 0)  -->
<svg version="1.1" id="Layer_1" xmlns="http://www.w3.org/2000/svg" xmlns:xlink="http://www.w3.org/1999/xlink" x="0px" y="0px"
	 viewBox="0 0 503.467 503.467" style="enable-background:new 0 0 503.467 503.467;" xml:space="preserve">
<g transform="translate(1 13)">
	<path style="fill:#AE938D;" d="M3.267,435v-34.133l110.933-204.8c0,0,7.68-17.067,25.6-17.067c6.827,0,12.8,5.12,17.067,8.533
		l34.133,25.6l51.2-51.2l34.133,34.133l46.933-46.933l1.707-0.853l52.907,97.28c4.267-3.413,10.24-6.827,17.92-6.827
		c17.92,0,25.6,17.067,25.6,17.067l76.8,145.067V435H3.267z"/>
	<path style="fill:#ECF4F7;" d="M276.333,59.533l48.64,88.747l-1.707,0.853l-46.933,46.933L242.2,161.933l-51.2,51.2l-34.133-25.6
		l68.267-128c0,0,7.68-17.067,25.6-17.067S276.333,59.533,276.333,59.533"/>
	<path style="fill:#50DD8E;" d="M344.6,332.6l25.6,68.267h-25.6H319L344.6,332.6z M293.4,332.6l25.6,68.267h-25.6h-25.6L293.4,332.6
		z M139.8,332.6l25.6,68.267h-25.6h-25.6L139.8,332.6z"/>
</g>
<path style="fill:#51565F;" d="M499.2,452.267h-17.067c-2.56,0-4.267-1.707-4.267-4.267c0-2.56,1.707-4.267,4.267-4.267H499.2
	c2.56,0,4.267,1.707,4.267,4.267C503.467,450.56,501.76,452.267,499.2,452.267z M448,452.267H140.8c-2.56,0-4.267-1.707-4.267-4.267
	v-29.867H115.2c-1.707,0-2.56-0.853-3.413-1.707c-0.853-0.853-0.853-2.56-0.853-4.267l25.6-68.267c0.853-3.413,6.827-3.413,7.68,0
	l25.6,68.267c0.853,1.707,0,2.56-0.853,4.267c-0.853,0.853-1.707,1.707-3.413,1.707h-21.333v25.6H289.28v-25.6h-21.333
	c-1.707,0-2.56-0.853-3.413-1.707c-0.853-0.853-0.853-2.56-0.853-4.267l25.6-68.267c0.853-1.707,2.56-2.56,4.267-2.56l0,0
	c1.707,0,3.413,0.853,4.267,2.56l10.24,25.6c0.853,2.56,0,4.267-2.56,5.12c-2.56,0.853-4.267,0-5.12-2.56l-5.973-15.36
	l-19.627,52.053H294.4c2.56,0,4.267,1.707,4.267,4.267v29.867h42.667v-25.6H320c-1.707,0-2.56-0.853-3.413-1.707
	c-0.853-0.853-0.853-2.56-0.853-4.267l25.6-68.267c0.853-3.413,6.827-3.413,7.68,0l25.6,68.267c0.853,1.707,0,2.56-0.853,4.267
	c-0.853,0.853-1.707,1.707-3.413,1.707h-21.333v25.6h98.133c2.56,0,4.267,1.707,4.267,4.267
	C451.413,449.707,450.56,452.267,448,452.267z M325.973,409.6h39.253L345.6,357.547L325.973,409.6z M121.173,409.6h39.253
	L140.8,357.547L121.173,409.6z M106.667,452.267H4.267C1.707,452.267,0,450.56,0,448c0-2.56,1.707-4.267,4.267-4.267h102.4
	c2.56,0,4.267,1.707,4.267,4.267C110.933,450.56,109.227,452.267,106.667,452.267z M499.2,418.133c-1.707,0-3.413-0.853-3.413-2.56
	l-76.8-145.067c0-0.853-6.827-14.507-22.187-14.507c-4.267,0-8.533,1.707-12.8,4.267l40.96,75.093c0.853,1.707,0,4.267-1.707,5.973
	c-1.707,0.853-4.267,0-5.973-1.707l-42.667-78.507l0,0L273.067,75.093c0-0.853-6.827-14.507-22.187-14.507
	c-14.507,0-21.333,13.653-21.333,14.507l-52.907,98.133c-0.853,1.707-3.413,2.56-5.973,1.707c-1.707-0.853-2.56-3.413-1.707-5.973
	l52.907-98.133c0-0.853,9.387-19.627,29.013-19.627s29.013,18.773,29.867,19.627l98.987,181.76c5.12-3.413,10.24-5.12,16.213-5.12
	c20.48,0,29.013,18.773,29.867,19.627l76.8,145.067c0.853,1.707,0,4.267-1.707,5.973C500.907,418.133,500.053,418.133,499.2,418.133
	z M4.267,418.133c-0.853,0-1.707,0-1.707-0.853c-1.707-0.853-2.56-3.413-1.707-5.973l110.933-204.8
	c0-0.853,9.387-19.627,29.013-19.627c7.68,0,14.507,5.12,18.773,8.533l0.853,0.853l30.72,23.04l48.64-48.64
	c1.707-1.707,4.267-1.707,5.973,0l30.72,30.72l22.187-22.187c1.707-1.707,4.267-1.707,5.973,0s1.707,4.267,0,5.973l-25.6,25.6
	c-1.707,1.707-4.267,1.707-5.973,0l-30.72-30.72L194.56,227.84c-1.707,1.707-4.267,1.707-5.973,0l-30.72-23.04l-74.24,132.267
	c-0.853,1.707-3.413,2.56-5.973,1.707c-1.707-0.853-2.56-3.413-1.707-5.973l74.24-133.973c-3.413-2.56-6.827-5.12-11.093-5.12
	c-14.507,0-21.333,13.653-21.333,14.507L6.826,413.013C6.827,417.28,5.973,418.133,4.267,418.133z"/>
<g>
</g>
<g>
</g>
<g>
</g>
<g>
</g>
<g>
</g>
<g>
</g>
<g>
</g>
<g>
</g>
<g>
</g>
<g>
</g>
<g>
</g>
<g>
</g>
<g>
</g>
<g>
</g>
<g>
</g>
</svg>
