<?xml version="1.0" encoding="iso-8859-1"?>
<!-- Generator: Adobe Illustrator 19.0.0, SVG Export Plug-In . SVG Version: 6.00 Build 0)  -->
<svg version="1.1" id="Layer_1" xmlns="http://www.w3.org/2000/svg" xmlns:xlink="http://www.w3.org/1999/xlink" x="0px" y="0px"
	 viewBox="0 0 512 512" style="enable-background:new 0 0 512 512;" xml:space="preserve">
<rect x="50.772" y="409.921" style="fill:#FCB82D;" width="410.455" height="51.307"/>
<rect x="50.772" y="409.921" style="fill:#FF8B1B;" width="25.653" height="51.307"/>
<polygon style="fill:#3C6168;" points="256,84.977 461.228,409.921 50.772,409.921 "/>
<polygon style="fill:#ABD46E;" points="256,84.977 461.228,409.921 256,409.921 "/>
<polygon style="fill:#94C54B;" points="256,84.977 50.772,409.921 188.304,409.921 256,342.224 "/>
<polygon style="fill:#75B22D;" points="256,84.977 50.772,409.921 76.426,409.921 256,125.595 "/>
<polygon style="fill:#ABD46E;" points="188.304,409.921 256,342.224 188.304,342.224 "/>
<g>
	<rect x="187.591" y="238.898" style="fill:#9DB0B3;" width="42.756" height="34.205"/>
	<rect x="281.653" y="238.898" style="fill:#9DB0B3;" width="42.756" height="34.205"/>
</g>
<path d="M503.983,401.904h-5.23l-85.301-85.301c-0.832-0.831-1.801-1.433-2.834-1.824l-93.836-148.573
	c-2.333-3.693-7.365-4.83-11.059-2.497c-3.693,2.333-4.83,7.365-2.497,11.059l143.456,227.136H264.017V112.683l23.011,36.434
	c2.516,3.984,8.099,4.923,11.787,1.979c3.149-2.515,3.919-7.136,1.768-10.54l-36.566-57.897V50.772c0-4.428-3.588-8.017-8.017-8.017
	c-4.427,0-8.017,3.588-8.017,8.017v31.885L101.782,314.142c-0.882,0.389-1.71,0.936-2.432,1.658l-86.104,86.104h-5.23
	c-4.427,0-8.017,3.588-8.017,8.017s3.589,8.017,8.017,8.017h0.534v43.29c0,4.428,3.589,8.017,8.017,8.017s8.017-3.588,8.017-8.017
	v-43.29h18.171v43.29c0,4.428,3.589,8.017,8.017,8.017h410.455c4.428,0,8.017-3.588,8.017-8.017v-43.29h18.171v43.29
	c0,4.428,3.588,8.017,8.017,8.017s8.017-3.588,8.017-8.017v-43.29h0.534c4.428,0,8.017-3.588,8.017-8.017
	S508.412,401.904,503.983,401.904z M476.078,401.904h-10.432l-17.884-28.316L476.078,401.904z M207.658,401.904l40.325-40.326
	v40.326H207.658z M196.32,390.567V350.24h40.326L196.32,390.567z M64.237,373.589l-17.884,28.315H35.921L64.237,373.589z
	 M58.789,453.211v-35.273h51.841c4.427,0,8.017-3.588,8.017-8.017s-3.589-8.017-8.017-8.017H65.318l182.665-289.222v221.525h-59.68
	c-4.427,0-8.017,3.588-8.017,8.017v59.681h-35.452c-4.427,0-8.017,3.588-8.017,8.017s3.589,8.017,8.017,8.017h308.376v35.273H58.789
	z"/>
<path d="M187.591,281.119h42.756c4.427,0,8.017-3.588,8.017-8.017v-34.205c0-4.428-3.589-8.017-8.017-8.017h-42.756
	c-4.427,0-8.017,3.588-8.017,8.017v34.205C179.574,277.531,183.163,281.119,187.591,281.119z M195.608,246.914h26.722v18.171
	h-26.722V246.914z"/>
<path d="M273.637,238.898v34.205c0,4.428,3.588,8.017,8.017,8.017h42.756c4.428,0,8.017-3.588,8.017-8.017v-34.205
	c0-4.428-3.588-8.017-8.017-8.017h-42.756C277.225,230.881,273.637,234.469,273.637,238.898z M289.67,246.914h26.722v18.171H289.67
	V246.914z"/>
<g>
</g>
<g>
</g>
<g>
</g>
<g>
</g>
<g>
</g>
<g>
</g>
<g>
</g>
<g>
</g>
<g>
</g>
<g>
</g>
<g>
</g>
<g>
</g>
<g>
</g>
<g>
</g>
<g>
</g>
</svg>
