<?xml version="1.0" encoding="iso-8859-1"?>
<!-- Generator: Adobe Illustrator 19.0.0, SVG Export Plug-In . SVG Version: 6.00 Build 0)  -->
<svg version="1.1" id="Layer_1" xmlns="http://www.w3.org/2000/svg" xmlns:xlink="http://www.w3.org/1999/xlink" x="0px" y="0px"
	 viewBox="0 0 512 512" style="enable-background:new 0 0 512 512;" xml:space="preserve">
<g>
	<polygon style="fill:#4281CD;" points="256,21.943 256,21.943 10.45,192.237 501.55,192.237 	"/>
	<rect x="20.898" y="423.131" style="fill:#4281CD;" width="470.202" height="33.468"/>
</g>
<g>
	<rect x="10.449" y="456.599" style="fill:#0F8EE3;" width="491.1" height="33.468"/>
	<rect x="21.943" y="192.24" style="fill:#0F8EE3;" width="468.112" height="33.468"/>
</g>
<g>
	<rect x="42.841" y="387.604" style="fill:#003A7F;" width="64.783" height="35.526"/>
	<rect x="42.841" y="225.698" style="fill:#003A7F;" width="64.783" height="35.526"/>
</g>
<rect x="55.379" y="261.224" style="fill:#0F8EE3;" width="39.706" height="126.38"/>
<g>
	<rect x="404.374" y="387.604" style="fill:#003A7F;" width="64.783" height="35.526"/>
	<rect x="404.374" y="225.698" style="fill:#003A7F;" width="64.783" height="35.526"/>
</g>
<rect x="416.913" y="261.224" style="fill:#0F8EE3;" width="39.706" height="126.38"/>
<rect x="191.916" y="265.404" style="fill:#C2EDFF;" width="128.177" height="157.727"/>
<path d="M501.55,446.146v-23.014c0-5.77-4.679-10.449-10.449-10.449h-11.494v-25.077c0-5.77-4.679-10.449-10.449-10.449h-2.09
	V271.675h2.09c5.77,0,10.449-4.679,10.449-10.449v-25.077h10.449c5.77,0,10.449-4.679,10.449-10.449v-23.014h1.045
	c4.569,0,8.608-2.969,9.972-7.33c1.365-4.36-0.263-9.102-4.018-11.705L261.955,13.357c-3.582-2.484-8.329-2.484-11.91,0
	L4.495,183.651c-3.754,2.603-5.382,7.345-4.018,11.705c1.365,4.361,5.403,7.33,9.972,7.33h1.045V225.7
	c0,5.77,4.679,10.449,10.449,10.449h10.449v25.077c0,5.77,4.679,10.449,10.449,10.449h2.09v105.481h-2.09
	c-5.77,0-10.449,4.679-10.449,10.449v25.077H20.899c-5.77,0-10.449,4.679-10.449,10.449v23.014c-5.771,0-10.449,4.679-10.449,10.449
	v33.463c0,5.77,4.678,10.449,10.449,10.449h491.1c5.77,0,10.449-4.679,10.449-10.449v-33.463
	C511.999,450.824,507.32,446.146,501.55,446.146z M330.535,412.684V265.403c0-5.77-4.679-10.449-10.449-10.449H191.914
	c-5.77,0-10.449,4.679-10.449,10.449v147.28h-63.391v-25.077c0-5.77-4.679-10.449-10.449-10.449h-2.09V271.675h2.09
	c5.77,0,10.449-4.679,10.449-10.449v-25.077h275.852v25.077c0,5.77,4.679,10.449,10.449,10.449h2.09v105.481h-2.09
	c-5.77,0-10.449,4.679-10.449,10.449v25.077h-63.391V412.684z M256,328.098c-5.77,0-10.449,4.679-10.449,10.449v74.136h-43.189
	V275.852h107.275v136.831h-43.189v-74.136C266.449,332.777,261.77,328.098,256,328.098z M414.824,398.055h2.09h39.706h2.09v14.629
	h-43.886V398.055z M446.171,377.157h-18.808V271.675h18.808V377.157z M458.709,250.777h-43.886v-14.629h43.886V250.777z M256,34.659
	l212.148,147.129H43.852L256,34.659z M479.607,202.686v12.565h-10.449H42.842H32.393v-12.565H479.607z M97.176,236.149v14.629
	H53.291v-14.629H97.176z M65.829,271.675h18.808v105.481H65.829V271.675z M53.291,398.055h2.09h39.706h2.09v14.629H53.291V398.055z
	 M31.348,433.582h449.304v12.565H31.348C31.348,446.146,31.348,433.582,31.348,433.582z M491.101,479.609H20.899v-12.565h470.202
	V479.609z"/>
<path d="M255.999,294.156c-5.77,0-10.449,4.679-10.449,10.449v0.138c0,5.77,4.679,10.449,10.449,10.449
	c5.77,0,10.449-4.679,10.449-10.449v-0.138C266.448,298.834,261.769,294.156,255.999,294.156z"/>
<path d="M266.449,99.936V76.93c2.76,2.284,4.477,5.46,4.477,8.968c0,5.77,4.679,10.449,10.449,10.449
	c5.77,0,10.449-4.679,10.449-10.449c0-15.064-10.703-27.833-25.375-32.022v-0.587c0-5.77-4.679-10.449-10.449-10.449
	c-5.77,0-10.449,4.679-10.449,10.449v0.587c-14.672,4.189-25.375,16.958-25.375,32.022s10.703,27.833,25.375,32.022v23.005
	c-2.76-2.284-4.477-5.46-4.477-8.968c0-5.77-4.679-10.449-10.449-10.449c-5.77,0-10.449,4.679-10.449,10.449
	c0,15.064,10.703,27.833,25.375,32.022v1.469c0,5.77,4.679,10.449,10.449,10.449c5.77,0,10.449-4.679,10.449-10.449v-1.469
	c14.672-4.189,25.375-16.958,25.375-32.022S281.121,104.126,266.449,99.936z M241.074,85.898c0-3.51,1.718-6.684,4.477-8.968v17.938
	C242.791,92.584,241.074,89.408,241.074,85.898z M266.449,140.927v-17.938c2.76,2.284,4.477,5.46,4.477,8.968
	C270.926,135.467,269.208,138.643,266.449,140.927z"/>
<g>
</g>
<g>
</g>
<g>
</g>
<g>
</g>
<g>
</g>
<g>
</g>
<g>
</g>
<g>
</g>
<g>
</g>
<g>
</g>
<g>
</g>
<g>
</g>
<g>
</g>
<g>
</g>
<g>
</g>
</svg>
