<?xml version="1.0" encoding="iso-8859-1"?>
<!-- Generator: Adobe Illustrator 18.0.0, SVG Export Plug-In . SVG Version: 6.00 Build 0)  -->
<!DOCTYPE svg PUBLIC "-//W3C//DTD SVG 1.1//EN" "http://www.w3.org/Graphics/SVG/1.1/DTD/svg11.dtd">
<svg version="1.1" id="Capa_1" xmlns="http://www.w3.org/2000/svg" xmlns:xlink="http://www.w3.org/1999/xlink" x="0px" y="0px"
	 viewBox="0 0 491.497 491.497" style="enable-background:new 0 0 491.497 491.497;" xml:space="preserve">
<g id="XMLID_166_">
	<path id="XMLID_171_" d="M356.775,244.688c-1.288-10.686-2.17-21.397-2.561-32.1c-36.111,0.382-72.236,0.823-108.467,0.823
		c-36.244,0-72.355-0.441-108.482-0.823c-0.389,10.702-1.254,21.413-2.544,32.1c-38.959,3.519-69.71,35.973-69.71,75.841
		c0,42.198,34.328,76.528,76.529,76.528c10.906,0,21.234-2.365,30.631-6.496c7.174,5.716,15.063,10.558,23.457,14.501v19.395
		c0,20.039-6.377,39.563-18.215,55.752c-1.58,2.163-1.8,5.021-0.594,7.404c1.203,2.383,3.663,3.884,6.324,3.884h125.191
		c2.68,0,5.123-1.5,6.326-3.892c1.221-2.383,0.983-5.25-0.594-7.412c-11.84-16.18-18.199-35.678-18.199-55.7v-19.446
		c8.397-3.936,16.266-8.778,23.441-14.493c9.413,4.13,19.742,6.504,30.647,6.504c42.2,0,76.529-34.33,76.529-76.528
		C426.486,280.662,395.736,248.208,356.775,244.688z M99.747,320.53c0-18.564,12.246-34.16,29.021-39.587
		c-0.814,5.563-1.375,11.211-1.375,17.019c0,23.551,6.971,45.447,18.828,63.885c-1.561,0.177-3.089,0.474-4.682,0.474
		C118.491,362.321,99.747,343.57,99.747,320.53z M349.957,362.321c-1.611,0-3.137-0.297-4.697-0.474
		c11.855-18.438,18.827-40.334,18.827-63.885c0-5.808-0.561-11.456-1.374-17.019c16.791,5.427,29.038,21.023,29.038,39.587
		C391.75,343.57,373.007,362.321,349.957,362.321z"/>
	<path id="XMLID_170_" d="M201.513,173.484c-21.675-0.212-43.351-0.627-65.01-1.169c0.626,7.614,1,15.248,1.103,22.905
		c72.015,0.771,144.253,0.771,216.27,0c0.103-7.674,0.476-15.324,1.086-22.948c-3.969,0.094-7.939,0.271-11.924,0.356l-8.872,0.196
		v-66.005c-17.927,0.696-35.855,1.179-53.781,1.451v16.3c9.361-0.102,18.725-0.255,28.07-0.45l8.869-0.178v49.187l-8.564,0.128
		c-17.776,0.254-35.569,0.398-53.343,0.439l-28.004-0.024v-65.199c-17.52-0.144-35.059-0.492-52.58-1.043l0.104,15.477
		c8.919,0.221,17.859,0.39,26.797,0.526l8.549,0.127v50.01L201.513,173.484z"/>
	<path id="XMLID_169_" d="M133.076,88.35l8.24,0.412v66.318c17.201,0.424,34.398,0.729,51.6,0.941v-15.363
		c-8.957-0.164-17.914-0.357-26.852-0.597l-8.396-0.228l-0.305-50.382l9.041,0.32c23.235,0.817,46.491,1.281,69.726,1.385
		l8.648,0.033v65.141h10.604c14.842-0.036,29.717-0.145,44.572-0.325v-14.35c-9.393,0.164-18.791,0.288-28.172,0.377l-8.77,0.076
		V91.121l8.585-0.1c23.624-0.272,47.251-0.917,70.878-1.926l9.058-0.392v66.354c1.798-0.036,3.596-0.12,5.394-0.16
		c2.29-17.337,5.834-34.458,10.738-51.251l-0.104-15.756l5.257-0.304c7.8-22.532,17.786-44.382,30.15-65.077
		c2.745-4.595,2.809-10.311,0.166-14.965c-2.644-4.654-7.584-7.515-12.936-7.516L101.28,0c-5.348,0-10.284,2.872-12.927,7.522
		c-2.643,4.65-2.59,10.365,0.152,14.957c12.324,20.64,22.29,42.434,30.084,64.91C123.421,87.669,128.239,88.109,133.076,88.35z"/>
</g>
<g>
</g>
<g>
</g>
<g>
</g>
<g>
</g>
<g>
</g>
<g>
</g>
<g>
</g>
<g>
</g>
<g>
</g>
<g>
</g>
<g>
</g>
<g>
</g>
<g>
</g>
<g>
</g>
<g>
</g>
</svg>
