<?xml version="1.0" encoding="iso-8859-1"?>
<!-- Generator: Adobe Illustrator 19.0.0, SVG Export Plug-In . SVG Version: 6.00 Build 0)  -->
<svg version="1.1" id="Layer_1" xmlns="http://www.w3.org/2000/svg" xmlns:xlink="http://www.w3.org/1999/xlink" x="0px" y="0px"
	 viewBox="0 0 511.978 511.978" style="enable-background:new 0 0 511.978 511.978;" xml:space="preserve">
<path style="fill:#F6BB42;" d="M234.52,429.512c-5.891,0-10.664-4.781-10.664-10.672v-10.656c0-5.89,4.773-10.671,10.664-10.671
	c5.89,0,10.664,4.781,10.664,10.671v10.656C245.183,424.731,240.41,429.512,234.52,429.512z"/>
<path style="fill:#FFCE54;" d="M275.643,400.576c-2.547-4.484-7.562-18.828-8.523-41.593c-0.397-9.453-7.71-25.468-32.6-25.468
	c-24.882,0-32.202,16.015-32.6,25.468c-0.961,22.765-5.977,37.108-8.531,41.593c-1.859,2.921-2.117,6.452-0.805,9.655
	c1.312,3.219,4.195,5.484,7.585,6.25c1.07,0.25,11.109,2.359,34.35,2.359c23.25,0,33.28-2.109,34.35-2.359
	c3.383-0.766,6.273-3.031,7.586-6.25C277.768,407.028,277.503,403.497,275.643,400.576z"/>
<path style="fill:#965353;" d="M475.807,273.846c-13.328-20.031-26.796-38.531-32.233-45.921c0.406-5.125,0.734-14.218-0.422-26.53
	c-1.109-11.953-15.374-47.905-31.123-78.481c-9.422-18.28-18.5-33.077-26.984-43.998c-12.077-15.5-22.576-22.718-33.061-22.718
	c-15.953,0-31.311,11.281-45.685,33.561c-5.047,7.812-9.047,15.578-11.766,21.328c-37.71-12.156-179.111-55.81-264.662-55.81
	c-7.312,0-14.148,0.328-20.312,0.969c-2.929,0.312-5.601,1.812-7.382,4.156c-1.781,2.328-2.516,5.312-2.031,8.219l63.998,383.985
	c0.609,3.672,3.101,6.766,6.578,8.155c1.273,0.5,2.609,0.75,3.938,0.75c2.289,0,4.562-0.734,6.444-2.171l148.588-112.56
	c7.688-3.719,15.976-7.155,21.031-8.796c36.999,57.889,123.042,62.686,141.541,63.045c9.453,5.702,31.125,17.812,44.343,17.812
	c13.655,0,45.764-7.906,49.388-8.812c2.812-0.703,5.219-2.516,6.656-5.031c0.797-1.359,19.327-33.873,19.327-59.295
	C511.977,337.562,507.868,322.015,475.807,273.846z"/>
<g>
	<path style="fill:#434A54;" d="M373.343,205.52c0,5.891-4.781,10.672-10.671,10.672c-5.891,0-10.672-4.781-10.672-10.672
		c0-5.89,4.781-10.671,10.672-10.671C368.561,194.849,373.343,199.63,373.343,205.52z"/>
	<path style="fill:#434A54;" d="M501.837,316.564c-0.391-0.594-0.656-1.094-0.781-1.469v-0.016
		c-8.265,2.359-29.482,19.779,5.922,57.481l0,0c2.859-8.766,5-18.219,5-26.859C511.977,340.703,510.43,332.937,501.837,316.564z"/>
</g>
<path style="fill:#CCD1D9;" d="M490.681,60.448c-0.266-4.078-2.828-7.64-6.609-9.187c-3.78-1.547-8.124-0.797-11.171,1.937
	c-0.328,0.281-33.404,29.499-79.794,34.389c-10.344,1.078-20.562,1.64-30.373,1.64c-14.797,0-26.125-1.203-35.218-2.171
	c-5.983-0.641-10.702-1.141-14.858-1.141c-3.093,0-5.608,0.281-7.921,0.875c-9.484,2.421-17.094,7.828-21.984,15.64
	c-4.375,6.953-6.203,15.374-5.156,23.687c2.203,17.468,16.094,29.67,33.78,29.67c41.436,0,76.543-4.734,104.34-14.077
	c22.937-7.703,41.107-18.578,54.013-32.327c9.109-9.703,15.608-21.015,18.812-32.702C491.041,67.573,490.728,61.151,490.681,60.448z
	"/>
<path style="fill:#ED5564;" d="M255.988,99.197c-12.578-3.719-27.046-7.844-42.662-12.046v272.021l16.366-12.391
	c7.688-3.719,15.976-7.155,21.031-8.796c1.656,2.594,3.421,5.077,5.265,7.468V99.197z"/>
<path style="opacity:0.1;enable-background:new    ;" d="M331.968,392.107c27.062,7.547,51.436,8.75,60.295,8.922l9.938-10.656
	L331.968,392.107z"/>
<g>
</g>
<g>
</g>
<g>
</g>
<g>
</g>
<g>
</g>
<g>
</g>
<g>
</g>
<g>
</g>
<g>
</g>
<g>
</g>
<g>
</g>
<g>
</g>
<g>
</g>
<g>
</g>
<g>
</g>
</svg>
