<?xml version="1.0" encoding="iso-8859-1"?>
<!-- Generator: Adobe Illustrator 19.0.0, SVG Export Plug-In . SVG Version: 6.00 Build 0)  -->
<svg version="1.1" id="Layer_1" xmlns="http://www.w3.org/2000/svg" xmlns:xlink="http://www.w3.org/1999/xlink" x="0px" y="0px"
	 viewBox="0 0 512 512" style="enable-background:new 0 0 512 512;" xml:space="preserve">
<path style="fill:#D37B93;" d="M44.843,223.059C-12.053,163.731,1.141,55.642,1.73,51.069l1.508-11.693l11.653-1.792
	c4.05-0.624,99.935-14.684,163.434,35.411L44.843,223.059z"/>
<path style="fill:#EDCAD4;" d="M67.464,201.365C30.907,163.246,30.352,95.133,31.836,67.363
	c25.679-1.776,86.284-1.941,127.075,30.239L67.464,201.365z"/>
<path style="fill:#9D5B6E;" d="M467.157,223.059c56.896-59.329,43.702-167.417,43.114-171.99l-1.508-11.693l-11.653-1.791
	c-4.05-0.625-99.935-14.684-163.434,35.41L467.157,223.059"/>
<path style="fill:#B0969F;" d="M444.537,201.365c36.557-38.119,37.112-106.233,35.627-134.002
	c-25.679-1.777-86.283-1.942-127.075,30.237L444.537,201.365"/>
<path style="fill:#D37B93;" d="M255.999,476.696c-59.841,0-114.506-17.902-153.931-50.407
	c-42.741-35.241-65.332-84.514-65.332-142.492c0-58.106,23.174-117.541,63.581-163.07c20.292-22.863,43.665-40.946,69.47-53.749
	c27.568-13.679,56.573-20.613,86.211-20.613s58.644,6.935,86.212,20.613c25.805,12.802,49.177,30.886,69.469,53.75
	c40.407,45.528,63.581,104.964,63.581,163.068c0,57.977-22.591,107.25-65.332,142.492
	C370.507,458.793,315.84,476.696,255.999,476.696"/>
<g>
	<path style="fill:#333333;" d="M183.282,189.771c0-11.511,9.227-20.832,20.565-20.832c11.353,0,20.579,9.321,20.579,20.832
		c0,11.509-9.225,20.839-20.579,20.839C192.509,210.61,183.282,201.28,183.282,189.771z"/>
	<path style="fill:#333333;" d="M328.723,189.771c0-11.595-9.287-20.994-20.721-20.994c-11.448,0-20.735,9.399-20.735,20.994
		c0,11.596,9.287,20.996,20.735,20.996C319.436,210.767,328.723,201.368,328.723,189.771"/>
</g>
<path style="fill:#EDCAD4;" d="M256.003,400.512c-20.768,0-40.427-6.312-55.355-17.775c-15.939-12.239-24.718-28.825-24.718-46.701
	c0-17.877,8.777-34.463,24.717-46.702c14.929-11.463,34.588-17.777,55.356-17.777c20.768,0,40.427,6.313,55.356,17.777
	c15.938,12.239,24.717,28.825,24.717,46.702c0,17.876-8.779,34.462-24.717,46.701C296.429,394.2,276.771,400.512,256.003,400.512"/>
<g>
	<path style="fill:#333333;" d="M218.567,336.035c0-6.911,5.539-12.506,12.347-12.506c6.816,0,12.354,5.596,12.354,12.506
		c0,6.909-5.538,12.511-12.354,12.511C224.107,348.544,218.567,342.944,218.567,336.035z"/>
	<path style="fill:#333333;" d="M293.437,336.035c0-6.962-5.576-12.604-12.44-12.604c-6.872,0-12.448,5.643-12.448,12.604
		s5.576,12.603,12.448,12.603C287.861,348.638,293.437,342.996,293.437,336.035"/>
</g>
<path style="fill:#BDBDBF;" d="M475.261,283.255c0,0.04,0,0.074,0,0.113C475.261,283.332,475.261,283.292,475.261,283.255
	 M475.26,282.818c0,0.028,0,0.059,0,0.087C475.26,282.874,475.26,282.847,475.26,282.818 M475.257,282.331c0,0.018,0,0.029,0,0.047
	C475.257,282.362,475.257,282.346,475.257,282.331 M475.254,281.859c0,0.021,0,0.045,0,0.067
	C475.254,281.903,475.254,281.882,475.254,281.859 M466.974,222.853L466.974,222.853l0.184,0.206L466.974,222.853 M257.973,46.374
	c0.034,0,0.073,0,0.108,0.001C258.044,46.375,258.008,46.375,257.973,46.374 M257.646,46.371c0.027,0,0.06,0,0.087,0
	C257.703,46.372,257.675,46.371,257.646,46.371 M257.263,46.368c0.042,0,0.082,0,0.123,0
	C257.345,46.369,257.305,46.368,257.263,46.368 M256.43,46.365c0.205,0,0.405,0.001,0.61,0.002
	C256.835,46.366,256.634,46.365,256.43,46.365 M496.975,37.564c0.053,0.008,0.098,0.015,0.136,0.021l11.653,1.791l1.508,11.693
	c0.192,1.496,1.734,14.07,1.729,32.393c0.005-18.322-1.537-30.897-1.729-32.393l-1.508-11.693l-11.653-1.791
	C497.073,37.58,497.028,37.572,496.975,37.564"/>
<path style="fill:#9D5B6E;" d="M308.002,210.767c-11.448,0-20.735-9.399-20.735-20.996c0-11.595,9.287-20.994,20.735-20.994
	c11.435,0,20.721,9.399,20.721,20.994C328.723,201.368,319.436,210.767,308.002,210.767 M255.999,46.364v225.192
	c0.001,0,0.001,0,0.003,0c20.768,0,40.427,6.313,55.356,17.777c15.938,12.239,24.717,28.825,24.717,46.702
	c0,17.876-8.779,34.462-24.717,46.701c-14.929,11.463-34.588,17.775-55.356,17.775c-0.001,0-0.001,0-0.003,0v76.183
	c59.841,0,114.506-17.902,153.93-50.407c42.741-35.241,65.332-84.514,65.332-142.492l0,0c0-0.143,0-0.285,0-0.428
	c0-0.04,0-0.074,0-0.113c0-0.117-0.001-0.234-0.001-0.351c0-0.028,0-0.059,0-0.087c-0.001-0.146-0.001-0.294-0.002-0.439
	c0-0.018,0-0.03,0-0.047c-0.001-0.135-0.002-0.271-0.003-0.405c0-0.022,0-0.046,0-0.067c-0.176-19.74-3.024-39.612-8.297-59.024
	l0.018,0.02v-0.001c-3.169-11.671-7.215-23.174-12.091-34.381c-10.634-24.441-25.21-47.473-43.201-67.744
	c-12.017-13.541-25.117-25.406-39.16-35.489c-9.67-6.943-19.786-13.04-30.309-18.261c-0.057-0.028-0.116-0.057-0.173-0.086
	c-0.002,0.001-0.002,0.001-0.002,0.001c-26.871-13.3-55.105-20.202-83.957-20.518c-0.034,0-0.073-0.001-0.108-0.001
	c-0.079-0.001-0.161-0.002-0.24-0.002c-0.027,0-0.06,0-0.087,0c-0.087-0.001-0.173-0.001-0.259-0.002c-0.042,0-0.081,0-0.123,0
	c-0.074,0-0.15-0.001-0.225-0.001c-0.205-0.001-0.405-0.001-0.61-0.002C256.288,46.364,256.143,46.364,255.999,46.364
	L255.999,46.364"/>
<path style="fill:#B0969F;" d="M280.998,348.638c-6.872,0-12.448-5.643-12.448-12.603c0-6.962,5.576-12.604,12.448-12.604
	c6.864,0,12.44,5.643,12.44,12.604C293.437,342.996,287.861,348.638,280.998,348.638 M256.003,271.556c-0.001,0-0.001,0-0.003,0
	v128.956c0.001,0,0.001,0,0.003,0c20.768,0,40.427-6.312,55.356-17.775c15.938-12.239,24.717-28.825,24.717-46.701
	c0-17.877-8.779-34.463-24.717-46.702C296.429,277.87,276.771,271.556,256.003,271.556"/>
<g>
</g>
<g>
</g>
<g>
</g>
<g>
</g>
<g>
</g>
<g>
</g>
<g>
</g>
<g>
</g>
<g>
</g>
<g>
</g>
<g>
</g>
<g>
</g>
<g>
</g>
<g>
</g>
<g>
</g>
</svg>
