<?xml version="1.0" encoding="iso-8859-1"?>
<!-- Generator: Adobe Illustrator 19.0.0, SVG Export Plug-In . SVG Version: 6.00 Build 0)  -->
<svg version="1.1" id="Layer_1" xmlns="http://www.w3.org/2000/svg" xmlns:xlink="http://www.w3.org/1999/xlink" x="0px" y="0px"
	 viewBox="0 0 511.999 511.999" style="enable-background:new 0 0 511.999 511.999;" xml:space="preserve">
<g>
	<path style="fill:#D21E1E;" d="M72.778,240.904c21.012,5.097,50.807,11.023,75.793,11.023c23.808,0,42.961-5.575,61.482-10.968
		c15.454-4.498,30.051-8.746,45.089-8.746c15.038,0,29.635,4.25,45.089,8.746c18.523,5.393,37.674,10.968,61.482,10.968
		c25.621,0,56.225-6.207,77.281-11.379c-14.203-11.707-25.594-29.175-36.75-46.331c-19.683-30.269-38.274-58.859-69.388-58.859
		c-47.718,0-62.219,59.528-62.36,60.128c-1.454,6.201-6.984,10.586-13.352,10.586h-1.143c-6.291,0-11.774-4.279-13.303-10.382
		c-0.622-2.433-15.987-60.332-63.553-60.332c-31.111,0-49.705,28.639-69.392,58.959C98.537,211.589,87.087,229.175,72.778,240.904z"
		/>
	<path style="fill:#D21E1E;" d="M408.524,297.014c7.07-8.801,14.239-17.69,21.989-26.331c-20.77,4.491-46.177,8.674-68.802,8.674
		c-22.832,0-41.785-4.347-58.612-9.039c-7.956,13.688-26.045,23.254-47.101,23.254c-21.269,0-39.521-9.756-47.348-23.667
		c-17.192,4.846-36.579,9.452-60.08,9.452c-21.932,0-46.472-3.931-66.877-8.261c7.661,8.546,14.755,17.333,21.754,26.036
		c63.961,79.511,105.014,79.511,152.549,79.511C344.565,376.64,374.205,339.739,408.524,297.014z"/>
</g>
<path d="M510.684,229.362c-3.226-6.84-11.381-9.78-18.233-6.562c-6.146,2.885-11.82,4.347-16.862,4.347
	c-19.215,0.002-33.646-22.189-50.353-47.885c-21.744-33.437-46.388-71.334-92.384-71.334c-37.997,0-62.677,25.033-76.556,49.829
	c-1.555-2.755-3.267-5.568-5.15-8.383c-18.128-27.115-43.03-41.446-72.004-41.446c-46.006,0-70.652,37.961-92.394,71.451
	c-16.714,25.745-31.15,47.975-50.369,47.975c-5.033,0-10.699-1.461-16.834-4.341c-6.85-3.218-15.005-0.281-18.233,6.562
	c-3.228,6.842-0.305,15.005,6.533,18.245c33.509,15.878,53.29,40.465,74.233,66.5c35.492,44.122,72.195,89.749,173.921,89.749
	c101.716,0,138.417-45.69,173.909-89.877c20.947-26.077,40.731-50.706,74.245-66.586
	C510.99,244.367,513.912,236.204,510.684,229.362z M255.999,376.64c-47.535,0-88.59,0-152.549-79.511
	c-6.999-8.702-14.095-17.489-21.754-26.036c20.403,4.33,44.945,8.261,66.877,8.261c23.501,0,42.888-4.605,60.08-9.452
	c7.827,13.91,26.079,23.667,47.348,23.667c21.055,0,39.145-9.566,47.101-23.254c16.827,4.692,35.78,9.039,58.612,9.039
	c22.625,0,48.03-4.181,68.802-8.674c-7.75,8.642-14.919,17.532-21.989,26.331C374.205,339.739,344.565,376.64,255.999,376.64z
	 M109.752,194.314c19.685-30.32,38.28-58.959,69.392-58.959c47.566,0,62.931,57.899,63.553,60.332
	c1.529,6.103,7.011,10.382,13.303,10.382h1.143c6.368,0,11.899-4.385,13.352-10.586c0.141-0.602,14.642-60.128,62.36-60.128
	c31.112,0,49.705,28.591,69.388,58.859c11.158,17.158,22.548,34.625,36.75,46.331c-21.056,5.172-51.659,11.379-77.281,11.379
	c-23.808,0-42.961-5.575-61.482-10.968c-15.454-4.498-30.051-8.746-45.089-8.746c-15.038,0-29.635,4.25-45.089,8.746
	c-18.523,5.393-37.674,10.968-61.482,10.968c-24.985,0-54.781-5.926-75.793-11.023C87.087,229.175,98.537,211.589,109.752,194.314z"
	/>
<g>
</g>
<g>
</g>
<g>
</g>
<g>
</g>
<g>
</g>
<g>
</g>
<g>
</g>
<g>
</g>
<g>
</g>
<g>
</g>
<g>
</g>
<g>
</g>
<g>
</g>
<g>
</g>
<g>
</g>
</svg>
