<?xml version="1.0" encoding="iso-8859-1"?>
<!-- Generator: Adobe Illustrator 19.0.0, SVG Export Plug-In . SVG Version: 6.00 Build 0)  -->
<svg version="1.1" id="Layer_1" xmlns="http://www.w3.org/2000/svg" xmlns:xlink="http://www.w3.org/1999/xlink" x="0px" y="0px"
	 viewBox="0 0 511.983 511.983" style="enable-background:new 0 0 511.983 511.983;" xml:space="preserve">
<path style="fill:#FFCE54;" d="M181.198,108.735c-11.672-1.297-29.202,2.953-38.952,9.469L17.75,201.201
	C7.969,207.701,0,222.638,0,234.356v255.999c0,11.719,9.593,21.343,21.328,21.343H490.64c11.733,0,21.343-9.624,21.343-21.343
	V234.356c0-11.719-7.984-26.655-17.749-33.155l-85.903-57.264c-9.766-6.516-27.296-12.906-38.951-14.203L181.198,108.735z"/>
<path style="fill:#F6BB42;" d="M369.395,129.734l-94.107-10.499l-94.09-10.5c-11.656-1.297-29.171,2.953-38.952,9.453
	l-62.248,41.514L17.75,201.201c-5.938,3.953-11.218,11.03-14.437,18.593l252.288,165.909l252.866-166.394
	c-3.25-7.391-8.421-14.233-14.233-18.108l-42.952-28.64l-42.982-28.64C398.55,137.422,381.051,131.031,369.395,129.734z"/>
<g>
	<path style="fill:#434A54;" d="M95.997,426.357h-42.67c-5.89,0-10.671-4.781-10.671-10.656c0-5.906,4.781-10.688,10.671-10.688
		h42.67c5.875,0,10.656,4.781,10.656,10.688C106.654,421.576,101.872,426.357,95.997,426.357z"/>
	<path style="fill:#434A54;" d="M181.323,469.012H53.327c-5.89,0-10.671-4.781-10.671-10.655c0-5.906,4.781-10.656,10.671-10.656
		h127.996c5.89,0,10.671,4.75,10.671,10.656C191.994,464.23,187.213,469.012,181.323,469.012z"/>
</g>
<polygon style="fill:#E6E9ED;" points="447.97,259.105 255.508,385.703 63.983,259.699 63.983,0.286 362.645,0.286 447.97,85.627 
	"/>
<polygon style="fill:#CCD1D9;" points="362.645,85.627 447.97,85.627 362.645,0.286 "/>
<path style="fill:#DA4453;" d="M279.35,375.015c-5.859-6.531-14.358-10.656-23.843-10.656c-9.468,0-17.983,4.125-23.843,10.656
	l-8.156,10.688v10.655c0,17.687,14.328,31.999,31.999,31.999s31.999-14.312,31.999-31.999v-10.655L279.35,375.015z"/>
<g>
	<path style="fill:#ED5564;" d="M287.507,385.703c0,17.654-14.328,31.998-31.999,31.998s-31.999-14.344-31.999-31.998
		c0-17.688,14.328-32,31.999-32S287.507,368.015,287.507,385.703z"/>
	<path style="fill:#ED5564;" d="M300.429,102.821c-17.406,0-33.155,7.148-44.437,18.68c-11.296-11.531-27.046-18.68-44.452-18.68
		c-34.358,0-62.216,27.851-62.216,62.217c0,71.107,106.668,133.323,106.668,133.323s106.653-62.216,106.653-133.323
		C362.645,130.672,334.786,102.821,300.429,102.821z"/>
</g>
<g style="opacity:0.2;">
	<path style="fill:#FFFFFF;" d="M300.429,102.821c-3.641,0-7.203,0.312-10.656,0.914c29.265,5.062,51.545,30.577,51.545,61.303
		c0,57.186-68.982,108.621-95.997,126.573c6.578,4.375,10.671,6.75,10.671,6.75s106.653-62.216,106.653-133.323
		C362.645,130.672,334.786,102.821,300.429,102.821z"/>
</g>
<g>
</g>
<g>
</g>
<g>
</g>
<g>
</g>
<g>
</g>
<g>
</g>
<g>
</g>
<g>
</g>
<g>
</g>
<g>
</g>
<g>
</g>
<g>
</g>
<g>
</g>
<g>
</g>
<g>
</g>
</svg>
