<?xml version="1.0" encoding="iso-8859-1"?>
<!-- Generator: Adobe Illustrator 19.0.0, SVG Export Plug-In . SVG Version: 6.00 Build 0)  -->
<svg version="1.1" id="Layer_1" xmlns="http://www.w3.org/2000/svg" xmlns:xlink="http://www.w3.org/1999/xlink" x="0px" y="0px"
	 viewBox="0 0 512 512" style="enable-background:new 0 0 512 512;" xml:space="preserve">
<path style="fill:#C60024;" d="M499.341,206.474c0-71.767-56.483-129.945-128.25-129.945c-49.976,0-93.354,28.217-115.093,69.584
	c-21.74-41.366-65.118-69.583-115.094-69.583c-71.767,0-128.25,58.178-128.25,129.945c0,33.969,10.131,53.146,18.106,69.304
	c32.925,66.699,225.238,226.063,225.238,226.063s193.849-159.818,225.238-226.063C488.904,259.595,499.341,238.949,499.341,206.474z
	"/>
<path style="fill:#A50020;" d="M481.235,275.778c4.267-9.005,7.974-14.742,11.68-27.781c-14.253-15.179-32.079-23.546-52.486-26.321
	c-31.616-4.298-58.82-0.007-89.632,32.464c-11.833-20.587-41.907-32.464-77.942-32.464c-51.748,0-92.278,44.039-92.278,95.787
	c0,24.494,7.107,38.321,12.858,49.973c12.563,25.45,57.307,69.608,96.656,105.55C347.18,423.842,458.15,324.501,481.235,275.778z"/>
<path d="M255.986,512l-4.983-4.13c-7.905-6.55-193.982-161.203-227.262-228.626l-0.875-1.769c-8.037-16.234-18.039-36.437-18.039-71
	c0-36.88,14.012-71.461,39.456-97.371c25.583-26.056,59.899-40.404,96.622-40.404c46.775,0,89.734,23.448,115.093,62.014
	c25.36-38.567,68.319-62.014,115.094-62.014c36.724,0,71.039,14.35,96.624,40.404c25.444,25.91,39.456,60.491,39.456,97.371
	c0,32.982-10.38,54.817-17.96,70.761l-0.9,1.895C456.541,346.183,268.95,501.312,260.98,507.883L255.986,512z M140.904,84.36
	c-67.525,0-120.419,53.639-120.419,122.114c0,30.899,8.72,48.512,16.414,64.052l0.883,1.785
	C66.68,330.853,225.686,466.154,256.01,491.641c30.48-25.494,190.63-161.14,218.149-219.217l0.909-1.914
	c7.326-15.41,16.443-34.589,16.443-64.038c0-68.475-52.894-122.114-120.419-122.114c-45.518,0-86.963,25.059-108.162,65.396
	l-6.932,13.19l-6.932-13.19C227.867,109.419,186.423,84.36,140.904,84.36z"/>
<rect x="132.26" width="15.661" height="48.755"/>
<rect x="196.782" y="15.255" transform="matrix(-0.9076 -0.4198 0.4198 -0.9076 373.6837 161.4993)" width="15.661" height="48.754"/>
<rect x="51.188" y="31.796" transform="matrix(-0.4198 -0.9076 0.9076 -0.4198 71.3224 124.8453)" width="48.754" height="15.661"/>
<g>
	<path style="fill:#FFFFFF;" d="M41.513,244.28c-2.198-9.185-3.266-18.755-3.266-29.256c0-0.846,0.008-1.688,0.026-2.53
		l15.658,0.325c-0.016,0.733-0.023,1.468-0.023,2.205c0,9.259,0.928,17.636,2.836,25.611L41.513,244.28z"/>
	<path style="fill:#FFFFFF;" d="M55.201,198.52l-15.468-2.452c4.068-25.649,16.637-49.485,35.395-67.119l10.726,11.412
		C69.613,155.628,58.727,176.282,55.201,198.52z"/>
</g>
<path style="fill:#FF3E61;" d="M499.341,321.439c0-43.833-34.498-79.367-78.332-79.367c-30.524,0-57.018,17.234-70.297,42.5
	c-13.278-25.266-39.773-42.5-70.297-42.5c-43.833,0-78.164,35.534-78.164,79.367c0,20.747,6.019,32.46,10.891,42.329
	c20.11,40.738,137.569,138.073,137.569,138.073s118.398-97.613,137.569-138.073C492.966,353.883,499.341,341.274,499.341,321.439z"
	/>
<path d="M350.701,512l-4.983-4.13c-4.849-4.018-118.982-98.881-139.594-140.636l-0.323-0.653
	c-5.069-10.258-11.377-23.024-11.377-45.142c0-23.336,8.836-45.212,24.88-61.599c16.162-16.508,37.866-25.598,61.115-25.598
	c28.092,0,54.008,13.362,70.297,35.584c16.288-22.221,42.205-35.584,70.297-35.584c23.254,0,44.986,9.089,61.189,25.59
	c16.104,16.399,24.972,38.277,24.972,61.607c0,20.833-6.511,34.528-11.265,44.529l-0.548,1.153
	c-19.692,41.561-134.774,136.73-139.664,140.762L350.701,512z M280.417,249.902c-39.439,0-70.333,31.422-70.333,71.536
	c0,18.46,5.184,28.95,9.757,38.203l0.326,0.659c16.851,34.137,108.109,112.386,130.56,131.33
	c22.564-18.95,114.452-97.388,130.481-131.217l0.556-1.171c4.569-9.612,9.748-20.505,9.748-37.804
	c0-40.114-30.968-71.536-70.5-71.536c-26.665,0-50.945,14.681-63.364,38.312l-6.932,13.189l-6.932-13.189
	C331.363,264.582,307.083,249.902,280.417,249.902z"/>
<path style="fill:#FFFFFF;" d="M239.347,322.896l-15.643-0.736c1.136-24.14,15.218-45.337,36.75-55.323l6.589,14.208
	C250.819,288.567,240.207,304.604,239.347,322.896z"/>
<g>
</g>
<g>
</g>
<g>
</g>
<g>
</g>
<g>
</g>
<g>
</g>
<g>
</g>
<g>
</g>
<g>
</g>
<g>
</g>
<g>
</g>
<g>
</g>
<g>
</g>
<g>
</g>
<g>
</g>
</svg>
