<?xml version="1.0" encoding="iso-8859-1"?>
<!-- Generator: Adobe Illustrator 19.0.0, SVG Export Plug-In . SVG Version: 6.00 Build 0)  -->
<svg version="1.1" id="Layer_1" xmlns="http://www.w3.org/2000/svg" xmlns:xlink="http://www.w3.org/1999/xlink" x="0px" y="0px"
	 viewBox="0 0 512.001 512.001" style="enable-background:new 0 0 512.001 512.001;" xml:space="preserve">
<path style="fill:#FF5050;" d="M256.705,50.237l25.816-15.8C279.502,14.641,268.775,0,256.002,0
	c-12.605,0-23.212,14.258-26.389,33.654L256.705,50.237z"/>
<path style="fill:#EA3232;" d="M261.886,47.018l-49.812-30.487c-1.718,0-3.111,1.379-3.111,3.081v53.639
	c0,1.998,0.162,3.958,0.465,5.872L261.886,47.018z"/>
<path style="fill:#D32924;" d="M266.808,110.861c20.92,0,37.94-16.871,37.94-37.609V19.614c0-1.702-1.392-3.081-3.111-3.081
	l-92.673,56.72c0,20.737,17.02,37.609,37.94,37.609h19.903V110.861z"/>
<path style="fill:#B5261C;" d="M262.456,78.938l-68.029-41.637c-2.361,0-4.277,1.898-4.277,4.238v73.753
	c0,2.567,0.196,5.089,0.562,7.556L262.456,78.938z"/>
<path style="fill:#A5120F;" d="M269.685,167.003c28.764,0,52.168-23.197,52.168-51.711V41.539c0-2.341-1.914-4.238-4.277-4.238
	l-127.427,77.991c0,28.514,23.402,51.711,52.169,51.711H269.685z"/>
<path style="opacity:0.1;enable-background:new    ;" d="M216.009,115.292V50.511l-21.582-13.211c-2.361,0-4.277,1.898-4.277,4.238
	v73.753c0,28.514,23.402,51.711,52.169,51.711h25.861C239.412,167.003,216.009,143.806,216.009,115.292z"/>
<path style="fill:#F44D3B;" d="M196.356,135.011l25.816-15.8c-3.018-19.796-13.745-34.438-26.518-34.438
	c-12.605,0-23.212,14.259-26.389,33.655L196.356,135.011z"/>
<path style="fill:#D33E2A;" d="M201.536,131.792l-49.812-30.487c-1.718,0-3.11,1.379-3.11,3.081v53.639
	c0,1.998,0.162,3.958,0.465,5.872L201.536,131.792z"/>
<path style="fill:#B52A1F;" d="M206.459,195.634c20.92,0,37.94-16.871,37.94-37.609v-53.639c0-1.702-1.393-3.081-3.111-3.081
	l-92.673,56.72c0,20.738,17.021,37.609,37.941,37.609H206.459z"/>
<path style="fill:#9B2010;" d="M202.106,163.711l-68.029-41.637c-2.361,0-4.277,1.898-4.277,4.238v73.753
	c0,2.567,0.196,5.089,0.562,7.555L202.106,163.711z"/>
<path style="fill:#7F150D;" d="M209.335,251.778c28.765,0,52.168-23.197,52.168-51.711v-73.753c0-2.341-1.913-4.238-4.276-4.238
	L129.8,200.067c0,28.514,23.402,51.711,52.169,51.711H209.335z"/>
<path style="opacity:0.1;enable-background:new    ;" d="M155.66,200.066v-64.781l-21.584-13.211c-2.361,0-4.277,1.898-4.277,4.238
	v73.753c0,28.514,23.402,51.711,52.169,51.711h25.861C179.062,251.778,155.66,228.58,155.66,200.066z"/>
<path style="fill:#FFD1CF;" d="M320.2,133.773l25.816-15.8c-3.019-19.796-13.746-34.437-26.52-34.437
	c-12.605,0-23.212,14.259-26.39,33.655L320.2,133.773z"/>
<path style="fill:#FFC0BB;" d="M325.382,130.555l-49.812-30.487c-1.717,0-3.11,1.379-3.11,3.081v53.639
	c0,1.998,0.162,3.958,0.465,5.872L325.382,130.555z"/>
<path style="fill:#FFAA9F;" d="M330.303,194.397c20.92,0,37.94-16.871,37.94-37.609V103.15c0-1.702-1.392-3.081-3.111-3.081
	l-92.673,56.72c0,20.738,17.02,37.609,37.94,37.609h19.903V194.397z"/>
<path style="fill:#FF9783;" d="M325.951,162.474l-68.029-41.637c-2.361,0-4.277,1.898-4.277,4.238v73.753
	c0,2.567,0.196,5.089,0.562,7.556L325.951,162.474z"/>
<path style="fill:#FF8676;" d="M333.18,250.539c28.765,0,52.168-23.197,52.168-51.711v-73.753c0-2.341-1.913-4.238-4.276-4.238
	l-127.427,77.992c0,28.514,23.402,51.711,52.168,51.711h27.368V250.539z"/>
<path style="opacity:0.1;enable-background:new    ;" d="M279.504,198.829v-64.781l-21.582-13.211c-2.361,0-4.277,1.898-4.277,4.238
	v73.753c0,28.514,23.402,51.711,52.168,51.711h25.861C302.907,250.539,279.504,227.344,279.504,198.829z"/>
<path style="fill:#FF9783;" d="M189.578,512c-3.538,0-6.79-1.928-8.468-5.017c-1.677-3.09-1.508-6.845,0.44-9.775l46.776-70.356
	L89.708,248.814c-2.24-2.879-2.637-6.773-1.021-10.038c1.616-3.264,4.965-5.334,8.632-5.334h317.366c3.665,0,7.01,2.066,8.628,5.328
	c1.619,3.262,1.228,7.151-1.007,10.031l-138.151,178.04l46.782,70.369c1.948,2.93,2.117,6.684,0.44,9.775
	c-1.677,3.09-4.931,5.017-8.469,5.017H189.578V512z"/>
<path style="opacity:0.1;enable-background:new    ;" d="M214.673,506.983c-1.677-3.09-1.507-6.845,0.44-9.775l46.777-70.356
	l-138.62-178.038c-2.241-2.879-2.637-6.773-1.021-10.038c1.616-3.264,4.965-5.334,8.632-5.334H97.318
	c-3.667,0-7.014,2.07-8.632,5.334c-1.616,3.265-1.219,7.16,1.021,10.038l138.62,178.037l-46.776,70.356
	c-1.948,2.93-2.117,6.684-0.44,9.775c1.677,3.09,4.929,5.017,8.468,5.017h33.561C219.603,512,216.351,510.072,214.673,506.983
	C212.996,503.893,216.351,510.072,214.673,506.983z"/>
<path style="fill:#8EBA3F;" d="M368.529,217.324c-0.854-0.846-1.505-1.896-1.876-3.073c-5.415-17.159-0.82-35.707,11.989-48.404
	c12.809-12.697,31.521-17.249,48.831-11.884c1.187,0.368,2.244,1.012,3.098,1.859c0.855,0.846,1.505,1.894,1.876,3.072
	c5.416,17.159,0.821,35.707-11.988,48.404c-12.81,12.697-31.519,17.25-48.832,11.885
	C370.441,218.815,369.382,218.171,368.529,217.324z"/>
<path style="fill:#4A7730;" d="M349.858,243.916c-2.081,0-4.161-0.798-5.742-2.394c-3.143-3.17-3.12-8.289,0.05-11.432
	l44.063-43.678c3.172-3.142,8.291-3.12,11.432,0.05c3.143,3.17,3.121,8.289-0.05,11.432l-44.063,43.678
	C353.973,243.135,351.915,243.916,349.858,243.916z"/>
<path style="fill:#5D9341;" d="M142.892,217.596c-0.846,0.855-1.895,1.505-3.072,1.876c-17.158,5.415-35.707,0.821-48.403-11.988
	c-12.698-12.809-17.25-31.52-11.885-48.832c0.368-1.185,1.013-2.243,1.859-3.097c0.847-0.855,1.894-1.505,3.072-1.876
	c17.159-5.415,35.707-0.821,48.404,11.988c12.698,12.809,17.25,31.518,11.885,48.832
	C144.382,215.685,143.739,216.742,142.892,217.596z"/>
<path style="fill:#4A7730;" d="M161.401,244.351c-2.081,0-4.161-0.798-5.742-2.394l-43.677-44.062
	c-3.143-3.171-3.12-8.29,0.05-11.432c3.171-3.143,8.289-3.12,11.432,0.05l43.677,44.063c3.143,3.171,3.12,8.289-0.051,11.433
	C165.515,243.571,163.457,244.351,161.401,244.351z"/>
<path style="fill:#E84731;" d="M311.715,460.41l-26.772-26.558h-57.887l-26.77,26.556c-2.859,2.836-1.123,7.455,2.274,8.338
	l10.659,2.783l2.805,10.573c0.904,3.417,5.585,5.053,8.407,2.256l31.571-31.319l31.574,31.319c2.816,2.795,7.504,1.164,8.405-2.253
	l2.805-10.574l10.662-2.784C312.84,467.869,314.572,463.238,311.715,460.41z"/>
<path style="fill:#FFEAD7;" d="M389.844,208.236c-13.826,0-253.86,0-267.684,0c-22.623,0-40.961,18.191-40.961,40.63
	c0,22.44,18.338,40.631,40.961,40.631c13.824,0,26.043-6.801,33.459-17.209c7.417,10.408,19.636,17.209,33.461,17.209
	c13.825,0,26.044-6.801,33.461-17.209c7.417,10.408,19.634,17.209,33.461,17.209s26.044-6.801,33.462-17.209
	c7.417,10.408,19.633,17.209,33.46,17.209c13.825,0,26.044-6.801,33.461-17.209c7.419,10.408,19.635,17.209,33.461,17.209
	c22.621,0,40.96-18.191,40.96-40.631C430.804,226.426,412.465,208.236,389.844,208.236z"/>
<g style="opacity:0.1;">
	<path d="M114.796,248.865c0-22.439,18.338-40.63,40.961-40.63c-18.202,0-30.74,0-33.598,0c-22.623,0-40.961,18.191-40.961,40.63
		c0,22.44,18.338,40.631,40.961,40.631c5.989,0,11.676-1.281,16.803-3.575C124.717,279.559,114.796,265.366,114.796,248.865z"/>
</g>
<path style="fill:#E84731;" d="M255.999,361.682c-1.709,0-3.346-0.674-4.553-1.874l-44.429-44.075
	c-6.281-6.226-9.741-14.502-9.741-23.306c0-8.805,3.46-17.082,9.741-23.309c6.28-6.226,14.632-9.655,23.513-9.655
	c8.884,0,17.234,3.429,23.515,9.655l1.952,1.935l1.952-1.935c6.281-6.226,14.633-9.655,23.516-9.655
	c8.881,0,17.232,3.429,23.512,9.655c6.282,6.227,9.744,14.503,9.744,23.309c0,8.804-3.462,17.081-9.744,23.306l-44.427,44.075
	C259.345,361.008,257.709,361.682,255.999,361.682z"/>
<g style="opacity:0.1;">
	<path d="M229.137,304.907c-6.281-6.225-9.741-14.502-9.741-23.306c0-8.214,3.013-15.967,8.517-22.025
		c-7.894,0.606-15.236,3.936-20.895,9.544c-6.281,6.227-9.741,14.503-9.741,23.309c0,8.804,3.46,17.081,9.741,23.306l44.429,44.075
		c1.207,1.2,2.843,1.874,4.553,1.874c1.709,0,3.346-0.674,4.554-1.874l11.963-11.868L229.137,304.907z"/>
</g>
<path style="fill:#FFED84;" d="M410.701,82.642c-3.175,16.499-19.127,16.499-22.301,0c-16.5-3.176-16.499-19.126,0-22.301
	c3.174-16.499,19.125-16.5,22.301,0C427.2,63.516,427.2,79.467,410.701,82.642z"/>
<path style="fill:#FF8163;" d="M410.701,82.642c-3.175,16.499-19.127,16.499-22.301,0c-16.5-3.176-16.499-19.126,0-22.301
	c3.174-16.499,19.125-16.5,22.301,0C427.2,63.516,427.2,79.467,410.701,82.642z"/>
<path style="fill:#FFED84;" d="M137.097,34.66c16.5,3.175,16.5,19.125,0,22.301c-3.176,16.5-19.126,16.5-22.301,0
	c-16.499-3.176-16.499-19.126,0-22.301C117.972,18.16,133.923,18.16,137.097,34.66z"/>
<path style="fill:#FF8163;" d="M137.097,34.66c16.5,3.175,16.5,19.125,0,22.301c-3.176,16.5-19.126,16.5-22.301,0
	c-16.499-3.176-16.499-19.126,0-22.301C117.972,18.16,133.923,18.16,137.097,34.66z"/>
<path style="fill:#F4645D;" d="M305.849,439.54c0,2.788-2.277,5.047-5.084,5.047h-89.528c-2.809,0-5.086-2.259-5.086-5.047v-22.2
	c0-2.787,2.277-5.046,5.086-5.046h89.528c2.809,0,5.084,2.259,5.084,5.046V439.54z"/>
<g>
</g>
<g>
</g>
<g>
</g>
<g>
</g>
<g>
</g>
<g>
</g>
<g>
</g>
<g>
</g>
<g>
</g>
<g>
</g>
<g>
</g>
<g>
</g>
<g>
</g>
<g>
</g>
<g>
</g>
</svg>
