<?xml version="1.0" encoding="iso-8859-1"?>
<!-- Generator: Adobe Illustrator 18.0.0, SVG Export Plug-In . SVG Version: 6.00 Build 0)  -->
<!DOCTYPE svg PUBLIC "-//W3C//DTD SVG 1.1//EN" "http://www.w3.org/Graphics/SVG/1.1/DTD/svg11.dtd">
<svg version="1.1" id="Capa_1" xmlns="http://www.w3.org/2000/svg" xmlns:xlink="http://www.w3.org/1999/xlink" x="0px" y="0px"
	 viewBox="0 0 376.247 376.247" style="enable-background:new 0 0 376.247 376.247;" xml:space="preserve">
<g>
	<g>
		<path d="M375.452,314.414c-1.854-3.705-6.359-5.205-10.063-3.352c-0.801,0.402-19.098,9.955-28.736,14.99L322.28,311.68
			c11.424-5.965,23.566-12.303,24.342-12.697c3.699-1.857,5.193-6.359,3.338-10.061c-1.853-3.703-6.359-5.201-10.064-3.346
			c-0.799,0.4-19.094,9.953-28.73,14.986l-34.034-34.033c17.138-15.363,31.071-31.363,41.686-47.924
			c26.649-41.576,25.818-76.166,20.43-97.863c-4.941-19.904-16.152-37.82-31.563-50.451c-15.209-12.465-33.834-19.328-52.443-19.328
			c-25.916,0-49.41,12.729-67.113,36.105c-17.701-23.377-41.197-36.105-67.111-36.105c-15.811,0-31.623,4.969-45.352,14.102
			L55.233,44.633L79.946,19.92c2.043-2.045,2.73-5.08,1.768-7.805s-3.406-4.654-6.281-4.957L8.29,0.049
			C6.02-0.195,3.798,0.602,2.196,2.204C0.594,3.805-0.197,6.045,0.042,8.297L7.153,75.44c0.303,2.873,2.232,5.316,4.957,6.281
			c0.816,0.287,1.662,0.428,2.5,0.428c1.955,0,3.873-0.766,5.305-2.195l24.713-24.715c1.476,1.479,11.262,11.262,19.225,19.227
			c-12.979,12.264-22.429,28.469-26.852,46.277c-5.389,21.697-6.219,56.287,20.434,97.863
			c24.774,38.648,67.564,74.246,127.186,105.807c1.098,0.58,2.303,0.871,3.508,0.871c1.207,0,2.412-0.291,3.51-0.871
			c28.605-15.143,53.324-31.217,74.051-48.111l34.867,34.869c-5.033,9.639-14.586,27.932-14.984,28.73
			c-1.853,3.697-0.359,8.186,3.334,10.047c1.08,0.545,2.23,0.803,3.363,0.803c2.74,0,5.385-1.508,6.707-4.119
			c0.373-0.738,6.723-12.902,12.697-24.344l14.373,14.373c-5.033,9.637-14.586,27.932-14.986,28.73
			c-1.852,3.697-0.357,8.186,3.336,10.047c1.08,0.545,2.228,0.803,3.361,0.803c2.742,0,5.385-1.508,6.707-4.119
			c0.453-0.892,9.639-18.486,16.338-31.313c12.811-6.691,30.379-15.865,31.311-16.336
			C375.809,322.616,377.303,318.114,375.452,314.414z M58.231,20.42L20.415,58.239l-4.479-42.297L58.231,20.42z M200.956,190.354
			c-2.93-2.928-7.678-2.928-10.607,0c-2.93,2.93-2.93,7.678,0,10.607l64.709,64.709c-17.769,14.334-39.759,28.99-66.93,43.611
			C38.817,228.938,45.801,147.534,51.557,124.36c8.404-33.838,37.615-58.396,69.459-58.396c23.787,0,45.359,13.604,60.746,38.307
			c1.369,2.199,3.775,3.535,6.365,3.535c2.59,0,4.998-1.336,6.367-3.535c15.385-24.703,36.959-38.307,60.746-38.307
			c31.838,0,61.047,24.559,69.449,58.395c4.47,17.998,9.677,71.117-58.148,131.582L200.956,190.354z"/>
	</g>
</g>
<g>
</g>
<g>
</g>
<g>
</g>
<g>
</g>
<g>
</g>
<g>
</g>
<g>
</g>
<g>
</g>
<g>
</g>
<g>
</g>
<g>
</g>
<g>
</g>
<g>
</g>
<g>
</g>
<g>
</g>
</svg>
