<?xml version="1.0" encoding="iso-8859-1"?>
<!-- Generator: Adobe Illustrator 19.0.0, SVG Export Plug-In . SVG Version: 6.00 Build 0)  -->
<svg version="1.1" id="Layer_1" xmlns="http://www.w3.org/2000/svg" xmlns:xlink="http://www.w3.org/1999/xlink" x="0px" y="0px"
	 viewBox="0 0 206.49 206.49" style="enable-background:new 0 0 206.49 206.49;" xml:space="preserve">
<g>
	<g>
		<circle style="fill:#EF6099;" cx="103.245" cy="103.245" r="103.245"/>
		<path style="fill:#DC4A8C;" d="M103.244,0L103.244,0v206.49l0,0c57.022,0,103.246-46.224,103.246-103.245S160.266,0,103.244,0z"/>
	</g>
	<g>
		<g>
			<path style="fill:#FFFFFF;" d="M103.243,157.459l-3.19-2.061c-6.935-4.067-30.219-24.655-40.331-34.767
				c-12.531-12.53-13.558-22.281-13.309-31.189C46.732,78,56.804,64.993,70.247,61.949c2.799-0.633,5.548-0.955,8.174-0.955
				c7.527,0,14.216,2.487,21.052,7.828c1.367,1.068,2.627,2.263,3.771,3.575c1.144-1.311,2.403-2.506,3.771-3.575
				c6.836-5.341,13.524-7.828,21.052-7.828c2.624,0,5.373,0.321,8.171,0.955c13.445,3.044,23.077,15.468,23.835,27.493
				c0.561,8.893-0.775,18.657-13.307,31.189c-10.114,10.112-33.399,30.701-40.332,34.766L103.243,157.459z M78.421,67.995
				c-2.106,0-4.336,0.263-6.628,0.782c-10.038,2.273-17.81,12.641-18.38,20.774c-0.56,7.996,0.639,15.512,11.258,26.131
				c11.058,11.056,32.584,29.712,38.572,33.465c5.984-3.75,27.515-22.408,38.574-33.465c10.619-10.621,11.783-18.134,11.256-26.131
				c-0.591-8.967-8.341-18.501-18.38-20.774c-8.697-1.969-15.846-0.315-23.367,5.562c-2.016,1.575-3.723,3.526-5.075,5.799
				l-3.009,5.06l-3.008-5.061c-1.352-2.273-3.058-4.224-5.072-5.797C89.623,70.011,84.304,67.995,78.421,67.995z"/>
		</g>
		<path style="fill:#F4ABC9;" d="M160.073,89.442c-0.758-12.025-10.39-24.449-23.835-27.493c-2.798-0.633-5.547-0.955-8.171-0.955
			c-7.527,0-14.216,2.487-21.052,7.828c-1.354,1.058-2.601,2.242-3.735,3.538v12.772l2.971-4.996
			c1.353-2.272,3.06-4.224,5.075-5.799c7.521-5.877,14.67-7.531,23.367-5.562c10.039,2.273,17.789,11.807,18.38,20.774
			c0.527,7.997-0.637,15.51-11.256,26.131c-11.038,11.037-32.505,29.642-38.537,33.441v8.312l3.154-2.038
			c6.933-4.065,30.218-24.654,40.332-34.766C159.298,108.1,160.634,98.336,160.073,89.442z"/>
	</g>
</g>
<g>
</g>
<g>
</g>
<g>
</g>
<g>
</g>
<g>
</g>
<g>
</g>
<g>
</g>
<g>
</g>
<g>
</g>
<g>
</g>
<g>
</g>
<g>
</g>
<g>
</g>
<g>
</g>
<g>
</g>
</svg>
