<?xml version="1.0" encoding="iso-8859-1"?>
<!-- Generator: Adobe Illustrator 19.0.0, SVG Export Plug-In . SVG Version: 6.00 Build 0)  -->
<svg version="1.1" id="Layer_1" xmlns="http://www.w3.org/2000/svg" xmlns:xlink="http://www.w3.org/1999/xlink" x="0px" y="0px"
	 viewBox="0 0 511.218 511.218" style="enable-background:new 0 0 511.218 511.218;" xml:space="preserve">
<circle style="fill:#956EC4;" cx="201.092" cy="262.037" r="192.494"/>
<path style="fill:#B77FD8;" d="M95.145,388.586c-75.172-75.172-75.172-197.05,0-272.224c18.573-18.573,40-32.548,62.867-41.944
	c-34.095,7.794-66.481,24.955-93.036,51.51c-75.172,75.172-75.172,197.05,0,272.223c56.599,56.599,139.673,70.575,209.356,41.944
	C211.912,454.364,143.762,437.203,95.145,388.586z"/>
<path style="fill:#6D2C92;" d="M362.88,157.706l18.67-18.671c8.026-8.025,8.026-21.039,0.001-29.064l-25.993-25.993
	c-8.026-8.025-21.039-8.025-29.064,0.001l-18.168,18.168c-54.892-36.902-124.585-42.47-183.944-16.707
	c62.398-14.235,130.511,2.932,179.108,51.529c75.172,75.172,75.172,197.05,0,272.223c-17.634,17.634-37.838,31.13-59.406,40.491
	c34.124-7.785,66.54-24.952,93.116-51.529C402.514,332.837,411.065,232.268,362.88,157.706z"/>
<circle style="fill:#B77FD8;" cx="131.18" cy="303.648" r="58.396"/>
<g>
	<path style="fill:#1C2042;" d="M383.891,201.919c-4.405,1.224-6.982,5.787-5.758,10.192c0.911,3.277,1.738,6.607,2.46,9.898
		c0.849,3.869,4.274,6.508,8.078,6.508c0.586,0,1.183-0.064,1.78-0.194c4.466-0.98,7.291-5.394,6.313-9.86
		c-0.787-3.587-1.689-7.216-2.682-10.786C392.86,203.272,388.297,200.689,383.891,201.919z"/>
	<path style="fill:#1C2042;" d="M476.047,141.797c7.51-12.437,14.603-24.184,11.914-40.895
		c-3.693-22.954-25.949-48.568-56.803-51.702c-26.085-2.635-50.952,11.107-64.063,34.286l-6.097-6.097
		c-11.241-11.241-29.532-11.241-40.771,0.002l-13.641,13.642c-31.484-19.625-67.887-30.135-105.91-30.135
		c-53.628,0-104.045,20.884-141.965,58.803c-78.279,78.28-78.279,205.65,0,283.93c39.146,39.145,90.546,58.708,141.965,58.708
		c51.406,0,102.83-19.574,141.964-58.708c28.641-28.64,47.756-64.734,55.274-104.379c0.852-4.491-2.098-8.823-6.59-9.675
		c-4.485-0.852-8.823,2.097-9.675,6.591c-6.897,36.365-24.435,69.478-50.715,95.757c-71.823,71.825-188.692,71.825-260.515,0
		c-71.824-71.823-71.824-188.691,0-260.514C133.39,68.435,230.99,60.68,302.5,108.139c0.178,0.141,0.355,0.284,0.545,0.411
		c8.847,5.928,17.135,12.556,24.691,19.744c0.137,0.13,0.27,0.266,0.407,0.397c0.939,0.9,1.873,1.805,2.789,2.721
		c1.117,1.116,2.22,2.251,3.311,3.402c0.054,0.057,0.107,0.115,0.161,0.172c7.683,8.126,14.712,17.077,20.93,26.673
		c0.183,0.283,0.384,0.549,0.597,0.804c4.785,7.473,9.033,15.288,12.701,23.422c1.88,4.168,6.785,6.021,10.949,4.143
		c4.168-1.88,6.023-6.783,4.143-10.949c-3.226-7.155-6.863-14.083-10.885-20.773l14.151-14.151c11.241-11.242,11.241-29.531,0-40.77
		l-7.598-7.598c9.163-19.726,29.517-32.217,50.092-30.113c22.63,2.297,39.488,21.44,42.13,37.861
		c1.725,10.717-2.836,18.273-9.741,29.706c-5.394,8.934-12.107,20.052-16.763,35.332c-7.888,25.892-7.159,54.445,2.168,84.864
		c1.093,3.563,4.371,5.853,7.912,5.853c0.805,0,1.623-0.117,2.43-0.365c4.371-1.341,6.828-5.97,5.488-10.342
		c-8.344-27.207-9.071-52.503-2.159-75.184C465.004,160.086,470.872,150.368,476.047,141.797z M375.284,132.446L363.53,144.2
		c-4.714-6.518-9.836-12.762-15.343-18.717c-0.023-0.024-0.046-0.049-0.068-0.074c-0.852-0.921-1.71-1.838-2.581-2.745
		c-0.957-0.999-1.922-1.987-2.896-2.961l0,0l0,0c-1.621-1.621-3.274-3.2-4.94-4.758c-0.195-0.182-0.39-0.363-0.586-0.544
		c-5.324-4.943-10.868-9.572-16.616-13.865l11.436-11.436c4.786-4.788,12.574-4.786,17.358-0.002l25.992,25.994
		C380.07,119.874,380.07,127.661,375.284,132.446z"/>
</g>
<g>
	<g>
		
			<line style="fill:none;stroke:#FFA81E;stroke-width:15;stroke-linecap:round;stroke-linejoin:round;stroke-miterlimit:10;" x1="442.041" y1="261.64" x2="411.754" y2="291.916"/>
		
			<line style="fill:none;stroke:#FFA81E;stroke-width:15;stroke-linecap:round;stroke-linejoin:round;stroke-miterlimit:10;" x1="473.442" y1="257.556" x2="503.718" y2="287.832"/>
	</g>
	
		<line style="fill:none;stroke:#FFD92D;stroke-width:15;stroke-linecap:round;stroke-linejoin:round;stroke-miterlimit:10;" x1="458.365" y1="266.264" x2="458.365" y2="309.079"/>
</g>
<g>
	<path style="fill:#FFFFFF;" d="M103.842,395.611c-1.707,0-3.43-0.526-4.911-1.618c-23.402-17.277-35.308-34.565-45.983-55.21
		c-2.1-4.062-0.511-9.055,3.55-11.156c4.063-2.099,9.055-0.511,11.156,3.551c9.887,19.118,20.214,34.066,41.111,49.494
		c3.679,2.716,4.459,7.898,1.743,11.576C108.885,394.447,106.38,395.611,103.842,395.611z"/>
	<path style="fill:#FFFFFF;" d="M50.834,317.668c-3.597,0-6.907-2.362-7.951-5.991l-0.246-0.851
		c-0.215-0.738-0.215-0.738-0.394-1.485l-0.208-0.86c-1.082-4.441,1.642-8.919,6.084-10.002c4.441-1.085,8.921,1.642,10.002,6.085
		l0.22,0.911c0.087,0.363,0.087,0.363,0.192,0.722l0.26,0.9c1.265,4.393-1.273,8.981-5.667,10.245
		C52.363,317.565,51.592,317.668,50.834,317.668z"/>
</g>
<g>
</g>
<g>
</g>
<g>
</g>
<g>
</g>
<g>
</g>
<g>
</g>
<g>
</g>
<g>
</g>
<g>
</g>
<g>
</g>
<g>
</g>
<g>
</g>
<g>
</g>
<g>
</g>
<g>
</g>
</svg>
