<?xml version="1.0" encoding="iso-8859-1"?>
<!-- Generator: Adobe Illustrator 19.0.0, SVG Export Plug-In . SVG Version: 6.00 Build 0)  -->
<svg version="1.1" id="Layer_1" xmlns="http://www.w3.org/2000/svg" xmlns:xlink="http://www.w3.org/1999/xlink" x="0px" y="0px"
	 viewBox="0 0 512 512" style="enable-background:new 0 0 512 512;" xml:space="preserve">
<polygon style="fill:#D1F1FF;" points="336.664,138.965 312.793,162.835 336.663,218.534 376.448,178.75 "/>
<path style="fill:#A65A3A;" d="M360.535,162.835L503.759,11.655c10.988,10.988,10.988,28.796,0,39.784l-127.31,127.31
	L360.535,162.835z"/>
<path style="fill:#D3754F;" d="M360.535,162.835l127.31-127.31c10.988-10.988,18.11-21.675,15.914-23.87
	c-10.988-10.988-28.796-10.988-39.784,0l-127.311,127.31L360.535,162.835z"/>
<path style="fill:#74C8EE;" d="M23.87,451.757L0,475.628c43.944,43.944,115.193,43.945,159.137,0l233.223-233.223l-23.87-23.87
	L23.87,451.757z"/>
<path style="fill:#AEE6FF;" d="M135.267,451.757L368.49,218.534l-55.698-55.698L23.87,451.757
	C54.584,482.469,104.555,482.469,135.267,451.757z"/>
<g>
</g>
<g>
</g>
<g>
</g>
<g>
</g>
<g>
</g>
<g>
</g>
<g>
</g>
<g>
</g>
<g>
</g>
<g>
</g>
<g>
</g>
<g>
</g>
<g>
</g>
<g>
</g>
<g>
</g>
</svg>
