<?xml version="1.0" encoding="iso-8859-1"?>
<!-- Generator: Adobe Illustrator 19.0.0, SVG Export Plug-In . SVG Version: 6.00 Build 0)  -->
<svg version="1.1" id="Layer_1" xmlns="http://www.w3.org/2000/svg" xmlns:xlink="http://www.w3.org/1999/xlink" x="0px" y="0px"
	 viewBox="0 0 512.001 512.001" style="enable-background:new 0 0 512.001 512.001;" xml:space="preserve">
<g>
	<path style="fill:#F7B239;" d="M328.517,439.725v63.652h-47.998v-63.652c0-12.507,10.138-22.646,22.646-22.646h2.706
		C318.378,417.079,328.517,427.217,328.517,439.725z"/>
	<path style="fill:#F7B239;" d="M231.29,439.725v63.652h-47.998v-63.652c0-12.507,10.138-22.646,22.646-22.646h2.706
		C221.152,417.079,231.29,427.217,231.29,439.725z"/>
	<path style="fill:#F7B239;" d="M109.595,216.471v84.87H74.221v-84.87c0-9.767,7.92-17.687,17.687-17.687
		S109.595,206.705,109.595,216.471z"/>
	<path style="fill:#F7B239;" d="M109.595,382.367v45.907H74.221v-45.907c0-9.767,7.92-17.687,17.687-17.687
		S109.595,372.6,109.595,382.367z"/>
	<path style="fill:#F7B239;" d="M437.589,382.367v45.907h-35.362v-45.907c0-9.767,7.909-17.687,17.675-17.687
		C429.68,364.68,437.589,372.6,437.589,382.367z"/>
	<path style="fill:#F7B239;" d="M437.589,216.471v84.87h-35.362v-84.87c0-9.767,7.909-17.687,17.675-17.687
		C429.68,198.784,437.589,206.705,437.589,216.471z"/>
	<path style="fill:#F7B239;" d="M482.671,113.404c0,15.237-5.435,29.196-14.47,40.066h-96.588
		c-9.035-10.87-14.47-24.829-14.47-40.066c0-34.666,28.104-62.77,62.758-62.77C454.567,50.634,482.671,78.738,482.671,113.404z"/>
	<path style="fill:#F7B239;" d="M154.666,113.404c0,15.237-5.435,29.196-14.459,40.066H43.608
		c-9.035-10.87-14.459-24.829-14.459-40.066c0-34.666,28.092-62.77,62.758-62.77S154.666,78.738,154.666,113.404z"/>
</g>
<g>
	<path style="fill:#F2F2F2;" d="M468.201,153.469v175h-96.588v-76.891v-98.109H468.201z M437.589,301.341v-84.87
		c0-9.767-7.909-17.687-17.687-17.687c-9.767,0-17.675,7.92-17.675,17.687v84.87L437.589,301.341L437.589,301.341z"/>
	<path style="fill:#F2F2F2;" d="M140.208,251.578v76.891H43.608v-175h96.599C140.208,153.469,140.208,251.578,140.208,251.578z
		 M109.595,301.341v-84.87c0-9.767-7.92-17.687-17.687-17.687s-17.687,7.92-17.687,17.687v84.87L109.595,301.341L109.595,301.341z"
		/>
	<path style="fill:#F2F2F2;" d="M468.201,328.47v174.907h-96.588V328.47H468.201z M437.589,428.274v-45.907
		c0-9.767-7.909-17.687-17.687-17.687c-9.767,0-17.675,7.92-17.675,17.687v45.907H437.589z"/>
	<path style="fill:#F2F2F2;" d="M140.208,328.47v174.907H43.608V328.47H140.208z M109.595,428.274v-45.907
		c0-9.767-7.92-17.687-17.687-17.687s-17.687,7.92-17.687,17.687v45.907H109.595z"/>
</g>
<path style="fill:#E6E6E6;" d="M371.614,328.47v174.907h-43.097v-63.652c0-12.507-10.138-22.646-22.646-22.646h-2.706
	c-12.508,0-22.646,10.138-22.646,22.646v63.652H231.29v-63.652c0-12.507-10.138-22.646-22.646-22.646h-2.706
	c-12.507,0-22.646,10.138-22.646,22.646v63.652h-43.085V328.47v-76.891l115.703-109.502l115.703,109.502L371.614,328.47
	L371.614,328.47z"/>
<path d="M428.708,42.387V8.71c0-4.81-3.899-8.71-8.71-8.71c-4.811,0-8.71,3.9-8.71,8.71v33.676
	c-35.315,4.311-62.764,34.465-62.764,70.93c0,15.558,5.117,30.738,14.47,43.097v74.842l-98.283-93.015v-19.884
	c0-4.81-3.899-8.71-8.71-8.71c-4.811,0-8.71,3.9-8.71,8.71v19.884l-51.223,48.477c-3.494,3.306-3.647,8.819-0.339,12.314
	c3.306,3.494,8.819,3.644,12.314,0.339l47.959-45.388L362.995,255.24v239.34h-25.677v-54.942c0-17.29-14.066-31.356-31.356-31.356
	h-2.705c-17.29,0-31.356,14.066-31.356,31.356v54.942h-31.81v-54.942c0-17.29-14.066-31.356-31.356-31.356h-2.706
	c-17.29,0-31.356,14.066-31.356,31.356v54.942h-25.665V255.241l41.148-38.943c3.494-3.306,3.647-8.819,0.339-12.314
	c-3.307-3.494-8.82-3.645-12.314-0.339l-29.174,27.611v-74.845c9.345-12.365,14.459-27.543,14.459-43.095
	c0-36.465-27.448-66.618-62.76-70.93V8.71c0-4.81-3.899-8.71-8.71-8.71c-4.811,0-8.71,3.9-8.71,8.71v33.677
	c-35.312,4.314-62.757,34.467-62.757,70.93c0,15.565,5.113,30.745,14.459,43.097v296.162c0,4.81,3.899,8.71,8.71,8.71
	s8.71-3.9,8.71-8.71V337.094h79.179v157.488H52.409v-12.972c0-4.81-3.899-8.71-8.71-8.71s-8.71,3.9-8.71,8.71v21.682
	c0,4.81,3.899,8.71,8.71,8.71h424.592c4.811,0,8.71-3.9,8.71-8.71V156.414c9.353-12.36,14.47-27.539,14.47-43.097
	C491.472,76.855,464.023,46.703,428.708,42.387z M419.943,59.258c0.019,0,0.036,0.002,0.055,0.002c0.017,0,0.034-0.002,0.05-0.002
	c29.783,0.03,54.003,24.268,54.003,54.059c0,11.257-3.551,22.243-10.051,31.356h-88.007c-6.5-9.113-10.051-20.099-10.051-31.356
	C365.944,83.525,390.163,59.285,419.943,59.258z M91.945,59.259c0.017,0,0.034,0.002,0.051,0.002s0.035-0.002,0.053-0.002
	c29.779,0.028,53.997,24.267,53.997,54.059c0,11.251-3.548,22.237-10.043,31.356H47.99c-6.493-9.106-10.04-20.093-10.04-31.356
	C37.95,83.526,62.168,59.288,91.945,59.259z M52.409,319.674v-157.58h79.179v157.58H52.409z M192.092,439.638
	c0-7.685,6.251-13.936,13.936-13.936h2.706c7.685,0,13.936,6.251,13.936,13.936v54.942h-30.578V439.638z M289.32,439.638
	c0-7.685,6.251-13.936,13.936-13.936h2.705c7.685,0,13.936,6.251,13.936,13.936v54.942H289.32V439.638z M380.414,494.58V337.093
	H430.2c4.811,0,8.71-3.9,8.71-8.71c0-4.81-3.899-8.71-8.71-8.71h-49.786v-157.58h79.168v157.58h-6.155c-4.811,0-8.71,3.9-8.71,8.71
	c0,4.81,3.899,8.71,8.71,8.71h6.155V494.58H380.414z"/>
<path d="M419.992,355.884c-14.548,0-26.385,11.842-26.385,26.397v45.907c0,4.81,3.899,8.71,8.71,8.71h35.362
	c4.811,0,8.71-3.9,8.71-8.71v-45.907C446.389,367.726,434.547,355.884,419.992,355.884z M428.969,419.478h-17.943v-37.197
	c0-4.95,4.022-8.977,8.965-8.977c4.951,0,8.977,4.027,8.977,8.977V419.478z"/>
<path d="M446.389,301.255v-84.87c0-14.555-11.842-26.397-26.397-26.397c-14.548,0-26.385,11.842-26.385,26.397v84.87
	c0,4.81,3.899,8.71,8.71,8.71h35.362C442.491,309.965,446.389,306.065,446.389,301.255z M428.969,292.545h-17.943v-76.16
	c0-4.95,4.022-8.977,8.965-8.977c4.951,0,8.977,4.027,8.977,8.977V292.545z"/>
<path d="M109.686,436.898c4.811,0,8.71-3.9,8.71-8.71v-45.907c0-14.555-11.841-26.397-26.396-26.397s-26.397,11.842-26.397,26.397
	v45.907c0,4.81,3.899,8.71,8.71,8.71H109.686z M83.022,382.281c0-4.95,4.027-8.977,8.977-8.977s8.976,4.027,8.976,8.977v37.197
	H83.02v-37.197H83.022z"/>
<path d="M91.999,189.988c-14.555,0-26.397,11.842-26.397,26.397v84.87c0,4.81,3.899,8.71,8.71,8.71h35.374
	c4.811,0,8.71-3.9,8.71-8.71v-84.87C118.396,201.829,106.553,189.988,91.999,189.988z M100.976,292.545H83.022v-76.16
	c0-4.95,4.027-8.977,8.977-8.977s8.976,4.027,8.976,8.977v76.16H100.976z"/>
<path d="M335.602,251.146c-1.556-2.694-4.43-4.355-7.543-4.355h-43.012l-21.507-37.251c-1.556-2.694-4.43-4.355-7.543-4.355
	s-5.987,1.661-7.543,4.355l-21.507,37.251h-43.013c-3.112,0-5.987,1.661-7.543,4.355c-1.556,2.694-1.556,6.016,0,8.71l21.507,37.25
	l-21.507,37.25c-1.556,2.694-1.556,6.016,0,8.71c1.556,2.694,4.43,4.355,7.543,4.355h43.013l21.507,37.251
	c1.556,2.694,4.43,4.355,7.543,4.355s5.987-1.661,7.543-4.355l21.507-37.251h43.012c3.112,0,5.987-1.661,7.543-4.355
	c1.556-2.694,1.556-6.016,0-8.71l-21.507-37.25l21.507-37.25C337.158,257.162,337.158,253.841,335.602,251.146z M255.998,231.315
	l8.935,15.476h-17.869L255.998,231.315z M274.99,264.211l18.991,32.895L274.99,330h-37.985l-18.992-32.895l18.992-32.895H274.99z
	 M199.021,264.211h17.869l-8.935,15.475L199.021,264.211z M199.021,330l8.935-15.475L216.891,330H199.021z M255.998,362.896
	l-8.935-15.476h17.869L255.998,362.896z M312.972,330h-17.868l8.934-15.475L312.972,330z M295.104,264.211h17.868l-8.934,15.475
	L295.104,264.211z"/>
<g>
</g>
<g>
</g>
<g>
</g>
<g>
</g>
<g>
</g>
<g>
</g>
<g>
</g>
<g>
</g>
<g>
</g>
<g>
</g>
<g>
</g>
<g>
</g>
<g>
</g>
<g>
</g>
<g>
</g>
</svg>
