<?xml version="1.0" encoding="iso-8859-1"?>
<!-- Generator: Adobe Illustrator 19.0.0, SVG Export Plug-In . SVG Version: 6.00 Build 0)  -->
<svg version="1.1" id="Layer_1" xmlns="http://www.w3.org/2000/svg" xmlns:xlink="http://www.w3.org/1999/xlink" x="0px" y="0px"
	 viewBox="0 0 512 512" style="enable-background:new 0 0 512 512;" xml:space="preserve">
<g>
	<rect x="144.014" y="72.179" style="fill:#FBB03B;" width="46.253" height="25.901"/>
	<polygon style="fill:#FBB03B;" points="179.164,98.077 155.113,98.077 155.113,154.909 179.164,150.804 	"/>
</g>
<g>
	<path style="fill:#F15A24;" d="M189.414,133.357L189.414,133.357v193.972l0,0c-22.673,0-41.052-18.38-41.052-41.052V174.409
		C148.361,151.736,166.741,133.357,189.414,133.357z"/>
	<path style="fill:#F15A24;" d="M339.662,311.933h-12.723v92.368h12.723c15.646,0,28.328-12.684,28.328-28.328v-35.71
		C367.99,324.617,355.308,311.933,339.662,311.933z"/>
	<circle style="fill:#F15A24;" cx="258.174" cy="189.806" r="33.871"/>
	<path style="fill:#F15A24;" d="M186.564,52.751c0-20.35,9.251-42.551,9.251-42.551S147.714,25,147.714,52.751
		c0,10.729,8.697,19.425,19.425,19.425C177.867,72.176,186.564,63.479,186.564,52.751z"/>
	<polygon style="fill:#F15A24;" points="189.414,501.8 326.939,501.8 326.939,374.843 189.414,461.923 	"/>
</g>
<polygon style="fill:#FBB03B;" points="189.414,407.08 189.414,461.923 326.939,374.843 326.939,320.001 "/>
<path style="fill:#F15A24;" d="M326.939,306.461c0-45.723-37.066-82.789-82.789-82.789h-54.736V407.08L326.939,320V306.461z"/>
<path d="M179.214,501.8c0,5.632,4.566,10.199,10.199,10.199h137.525c5.633,0,10.199-4.567,10.199-10.199v-87.3h2.524
	c21.245,0,38.527-17.284,38.527-38.527v-35.71c0-21.244-17.284-38.527-38.527-38.527h-2.644
	c-1.713-34.074-21.855-63.373-50.636-78.106c9.685-8.09,15.861-20.248,15.861-33.826c0-7.253-1.773-14.095-4.889-20.135l9.599-9.599
	c3.983-3.983,3.983-10.441,0-14.425c-3.983-3.982-10.441-3.982-14.425,0l-8.503,8.503c-4.623-3.362-9.922-5.843-15.651-7.206
	v-11.532c0-5.632-4.566-10.199-10.199-10.199c-5.633,0-10.199,4.567-10.199,10.199v11.532c-5.606,1.334-10.799,3.74-15.351,6.993
	l-8.29-8.29c-3.983-3.982-10.441-3.982-14.425,0c-3.983,3.983-3.983,10.441,0,14.425l9.26,9.26
	c-3.227,6.123-5.064,13.087-5.064,20.475c0,8.708,2.549,16.827,6.925,23.669H199.61v-80.116c0-5.632-4.566-10.199-10.199-10.199
	c-0.017,0-0.034,0.001-0.05,0.001v-14.883h0.902c5.633,0,10.199-4.567,10.199-10.199v-25.9c0-3.963-2.265-7.391-5.569-9.079
	c1.206-3.223,1.868-6.709,1.868-10.347c0-17.992,8.385-38.433,8.465-38.628c1.521-3.65,0.795-7.85-1.864-10.778
	c-2.659-2.929-6.771-4.056-10.55-2.891c-5.661,1.742-55.301,18.006-55.301,52.298c0,3.638,0.663,7.124,1.868,10.347
	c-3.302,1.688-5.569,5.116-5.569,9.079v25.901c0,5.632,4.566,10.199,10.199,10.199h0.901v40.755
	c-4.287,7.488-6.752,16.147-6.752,25.377v111.868c0,24.769,17.662,45.487,41.052,50.23V501.8H179.214z M199.612,412.694
	l117.126-74.162v30.699l-117.126,74.162V412.694z M258.176,166.135c13.051,0,23.669,10.617,23.669,23.668
	c0,13.052-10.618,23.669-23.669,23.669s-23.669-10.617-23.669-23.669C234.507,176.752,245.125,166.135,258.176,166.135z
	 M244.15,233.871c40.026,0,72.59,32.564,72.59,72.59v5.474v2.453L199.613,388.55v-61.221v-93.458L244.15,233.871L244.15,233.871z
	 M154.212,87.878v-5.502h25.853v5.502h-0.902h-24.051H154.212z M179.476,28.388c-1.735,7.444-3.111,15.99-3.111,24.363
	c0,5.087-4.139,9.227-9.226,9.227c-5.087,0-9.226-4.14-9.226-9.227C157.913,43.009,168.584,34.436,179.476,28.388z M168.965,108.276
	v19.15c-1.243,0.544-2.462,1.131-3.652,1.769v-20.919H168.965z M158.56,286.276V174.409c0-5.958,1.704-11.522,4.641-16.244
	c0.29-0.377,0.557-0.773,0.792-1.19c3.681-5.349,8.989-9.496,15.22-11.686v78.384v91.726
	C167.199,311.177,158.56,299.715,158.56,286.276z M316.739,491.601H199.612v-24.065l117.126-74.162v10.927v87.3H316.739z
	 M357.791,375.973c0,9.997-8.133,18.129-18.129,18.129h-2.524v-19.259v-52.71h2.524c9.996,0,18.129,8.133,18.129,18.129V375.973z"/>
<path d="M221.229,274.924c5.633,0,10.199-4.567,10.199-10.199v-3.08c0-5.632-4.566-10.199-10.199-10.199
	c-5.633,0-10.199,4.567-10.199,10.199v3.08C211.03,270.356,215.596,274.924,221.229,274.924z"/>
<path d="M221.229,358.054c5.633,0,10.199-4.567,10.199-10.199V296.54c0-5.632-4.566-10.199-10.199-10.199
	c-5.633,0-10.199,4.567-10.199,10.199v51.315C211.03,353.487,215.596,358.054,221.229,358.054z"/>
<g>
</g>
<g>
</g>
<g>
</g>
<g>
</g>
<g>
</g>
<g>
</g>
<g>
</g>
<g>
</g>
<g>
</g>
<g>
</g>
<g>
</g>
<g>
</g>
<g>
</g>
<g>
</g>
<g>
</g>
</svg>
