<?xml version="1.0" encoding="iso-8859-1"?>
<!-- Generator: Adobe Illustrator 19.0.0, SVG Export Plug-In . SVG Version: 6.00 Build 0)  -->
<svg version="1.1" id="Layer_1" xmlns="http://www.w3.org/2000/svg" xmlns:xlink="http://www.w3.org/1999/xlink" x="0px" y="0px"
	 viewBox="0 0 511.999 511.999" style="enable-background:new 0 0 511.999 511.999;" xml:space="preserve">
<circle style="fill:#FDDF6D;" cx="256" cy="236.99" r="227.726"/>
<path style="fill:#FCC56B;" d="M304.8,431.095c-125.769,0-227.724-101.955-227.724-227.724c0-67.194,29.108-127.581,75.396-169.264
	C78.747,71.802,28.275,148.501,28.275,236.989c0,125.769,101.955,227.724,227.725,227.724c58.576,0,111.979-22.123,152.329-58.459
	C377.268,422.135,342.081,431.095,304.8,431.095z"/>
<g>
	<path style="fill:#F9A880;" d="M158.138,224.523c-16.911,0-30.622,13.71-30.622,30.621h61.244
		C188.759,238.233,175.05,224.523,158.138,224.523z"/>
	<path style="fill:#F9A880;" d="M425.238,224.523c-16.911,0-30.622,13.71-30.622,30.621h61.244
		C455.86,238.233,442.151,224.523,425.238,224.523z"/>
</g>
<path style="fill:#7F184C;" d="M300.236,395.375L300.236,395.375c-50.908,0-92.179-41.27-92.179-92.179l0,0h184.357l0,0
	C392.414,354.105,351.146,395.375,300.236,395.375z"/>
<path style="fill:#F2F2F2;" d="M230.548,303.195v14.389c0,6.067,4.919,10.985,10.985,10.985h117.404
	c6.067,0,10.985-4.919,10.985-10.985v-14.389H230.548z"/>
<path style="fill:#FC4C59;" d="M327.597,349.285h-64.773v0.107c-12.509,0.6-24.7,3.992-35.642,9.852
	c6.685,8.713,14.891,16.196,24.22,22.055c7.105,4.463,11.423,12.257,11.423,20.648v49.061c0,28.568,23.159,51.726,51.726,51.726l0,0
	c28.568,0,51.726-23.159,51.726-51.726v-63.043C366.278,366.603,348.96,349.285,327.597,349.285z"/>
<path style="fill:#BC3B4A;" d="M314.349,481.956c-5.118,0-9.264-4.147-9.264-9.264v-88.027c0-1.03-2.415-3.554-4.614-4.821
	c-4.478-2.478-6.065-8.097-3.587-12.573c2.478-4.478,8.149-6.077,12.625-3.602c1.444,0.799,14.105,8.176,14.105,20.996v88.027
	C323.614,477.808,319.467,481.956,314.349,481.956z"/>
<g>
	<path style="fill:#7F184C;" d="M183.206,208.034c-3.574,0-6.977-2.079-8.497-5.563c-2.044-4.69,0.099-10.15,4.789-12.195
		l38.005-16.573l-38.044-16.795c-4.68-2.067-6.8-7.536-4.733-12.218c2.068-4.68,7.535-6.799,12.218-4.733l57.359,25.322
		c3.364,1.485,5.531,4.819,5.523,8.496c-0.009,3.678-2.19,7.001-5.561,8.471l-57.359,25.013
		C185.7,207.786,184.442,208.034,183.206,208.034z"/>
	<path style="fill:#7F184C;" d="M421.089,208.034c-1.236,0-2.493-0.248-3.698-0.774l-57.359-25.013
		c-3.371-1.47-5.552-4.794-5.561-8.471c-0.009-3.677,2.159-7.011,5.523-8.496l57.359-25.322c4.683-2.065,10.15,0.053,12.218,4.733
		c2.067,4.682-0.053,10.151-4.733,12.218l-38.044,16.795l38.005,16.573c4.69,2.046,6.833,7.505,4.789,12.195
		C428.067,205.954,424.662,208.034,421.089,208.034z"/>
</g>
<path d="M256,0C125.323,0,19.011,106.312,19.011,236.989c0,130.676,106.312,236.987,236.989,236.987c0.683,0,1.371-0.014,2.058-0.02
	c9.086,22.287,30.979,38.042,56.494,38.042c33.631,0,60.992-27.36,60.992-60.99v-63.043c0-5.029-0.782-9.876-2.225-14.434
	c18.092-18.821,28.361-44.105,28.361-70.337c0-5.118-4.147-9.264-9.264-9.264H208.059c-5.118,0-9.264,4.147-9.264,9.264
	c0,34.212,17.072,65.894,45.671,84.749c0.209,0.137,0.429,0.241,0.644,0.359c5.303,3.8,8.453,9.962,8.453,16.651v46.055
	c0,1.485,0.072,2.952,0.177,4.411c-119.42-1.22-216.199-98.728-216.199-218.431c0-120.459,98-218.46,218.46-218.46
	s218.46,98.001,218.46,218.46c0,52.394-18.83,103.065-53.021,142.674c-3.342,3.874-2.913,9.722,0.96,13.066
	c3.871,3.344,9.722,2.914,13.066-0.96c37.094-42.973,57.522-97.942,57.522-154.781C492.989,106.312,386.677,0,256,0z
	 M357.014,451.01c0,23.414-19.05,42.462-42.463,42.462c-19.402,0-35.793-13.083-40.845-30.887c-0.084-0.385-0.183-0.762-0.313-1.127
	c-0.85-3.344-1.304-6.843-1.304-10.448v-46.055c0-13.185-6.497-25.349-17.378-32.543c-4.367-2.887-8.43-6.158-12.16-9.784
	c6.676-2.289,13.685-3.644,20.717-3.982c0.325-0.016,0.644-0.048,0.957-0.096h63.371c16.221,0,29.417,13.197,29.417,29.417v63.043
	H357.014z M382.628,312.46c-1.833,16.199-8.437,31.555-18.9,44.041c-8.796-10.087-21.726-16.48-36.13-16.48h-64.773
	c-0.651,0-1.286,0.069-1.899,0.199c-10.543,0.674-20.999,3.205-30.727,7.35c-6.671-10.523-10.955-22.491-12.363-35.11h164.792
	V312.46z"/>
<path d="M174.709,202.472c1.519,3.485,4.924,5.563,8.497,5.563c1.236,0,2.494-0.248,3.698-0.774l57.359-25.013
	c3.371-1.47,5.552-4.794,5.561-8.471s-2.159-7.011-5.523-8.496l-57.359-25.322c-4.683-2.064-10.15,0.053-12.218,4.733
	c-2.067,4.681,0.053,10.151,4.733,12.218l38.044,16.795l-38.005,16.573C174.809,192.322,172.664,197.781,174.709,202.472z"/>
<path d="M429.586,202.472c2.044-4.69-0.099-10.15-4.789-12.195l-38.005-16.573l38.044-16.795c4.68-2.067,6.8-7.536,4.733-12.218
	c-2.068-4.68-7.535-6.797-12.218-4.733l-57.359,25.322c-3.363,1.485-5.531,4.819-5.523,8.496c0.009,3.678,2.19,7.001,5.561,8.471
	l57.359,25.013c1.207,0.526,2.462,0.774,3.698,0.774C424.662,208.035,428.067,205.955,429.586,202.472z"/>
<circle cx="404.536" cy="409.995" r="9.264"/>
<g>
</g>
<g>
</g>
<g>
</g>
<g>
</g>
<g>
</g>
<g>
</g>
<g>
</g>
<g>
</g>
<g>
</g>
<g>
</g>
<g>
</g>
<g>
</g>
<g>
</g>
<g>
</g>
<g>
</g>
</svg>
