<?xml version="1.0" encoding="iso-8859-1"?>
<!-- Generator: Adobe Illustrator 19.0.0, SVG Export Plug-In . SVG Version: 6.00 Build 0)  -->
<svg version="1.1" id="Layer_1" xmlns="http://www.w3.org/2000/svg" xmlns:xlink="http://www.w3.org/1999/xlink" x="0px" y="0px"
	 viewBox="0 0 504 504" style="enable-background:new 0 0 504 504;" xml:space="preserve">
<path style="fill:#FF7300;" d="M448.8,124.8c0,1.6-0.8,3.2-2.4,4L353.6,144c-1.6,0-3.2-0.8-4-2.4l-1.6-8.8c0-1.6,0.8-3.2,2.4-4
	l93.6-15.2c1.6,0,3.2,0.8,4,2.4L448.8,124.8z"/>
<path style="fill:#FF9700;" d="M348.8,132.8c0-1.6,0.8-3.2,2.4-4l92.8-15.2c1.6,0,3.2,0.8,4,2.4"/>
<g>
	<circle style="fill:#BF1111;" cx="359.2" cy="135.2" r="2.4"/>
	<circle style="fill:#BF1111;" cx="372" cy="132.8" r="2.4"/>
	<circle style="fill:#BF1111;" cx="385.6" cy="131.2" r="2.4"/>
	<circle style="fill:#BF1111;" cx="398.4" cy="128.8" r="2.4"/>
	<circle style="fill:#BF1111;" cx="412" cy="126.4" r="2.4"/>
	<circle style="fill:#BF1111;" cx="424.8" cy="124.8" r="2.4"/>
	<circle style="fill:#BF1111;" cx="438.4" cy="122.4" r="2.4"/>
</g>
<path style="fill:#FF7300;" d="M358.4,142.4c0.8,3.2-1.6,5.6-4.8,6.4l-151.2,24.8c-3.2,0.8-5.6-1.6-6.4-4.8l-2.4-13.6
	c-0.8-3.2,1.6-5.6,4.8-6.4L349.6,124c3.2-0.8,5.6,1.6,6.4,4.8L358.4,142.4z"/>
<path style="fill:#FF9700;" d="M194.4,154.4c-0.8-3.2,1.6-5.6,4.8-6.4l150.4-24c3.2-0.8,5.6,1.6,6.4,4.8"/>
<g>
	<circle style="fill:#BF1111;" cx="211.2" cy="159.2" r="3.2"/>
	<circle style="fill:#BF1111;" cx="232.8" cy="155.2" r="3.2"/>
	<circle style="fill:#BF1111;" cx="254.4" cy="152" r="3.2"/>
	<circle style="fill:#BF1111;" cx="276" cy="148.8" r="3.2"/>
	<circle style="fill:#BF1111;" cx="297.6" cy="144.8" r="3.2"/>
	<circle style="fill:#BF1111;" cx="319.2" cy="141.6" r="3.2"/>
	<circle style="fill:#BF1111;" cx="340.8" cy="138.4" r="3.2"/>
</g>
<path style="fill:#FF7300;" d="M244.8,164c0.8,4-2.4,8-6.4,8.8l-220,36c-4,0.8-8-2.4-8.8-6.4l-3.2-20c-0.8-4,2.4-8,6.4-8.8l220-35.2
	c4-0.8,8,2.4,8.8,6.4L244.8,164z"/>
<path style="fill:#FF9700;" d="M6.4,181.6c-0.8-4,2.4-8,6.4-8.8l220-35.2c4-0.8,8,2.4,8.8,6.4"/>
<g>
	<circle style="fill:#BF1111;" cx="31.2" cy="188" r="4.8"/>
	<circle style="fill:#BF1111;" cx="62.4" cy="183.2" r="4.8"/>
	<circle style="fill:#BF1111;" cx="94.4" cy="177.6" r="4.8"/>
	<circle style="fill:#BF1111;" cx="125.6" cy="172.8" r="4.8"/>
	<circle style="fill:#BF1111;" cx="156.8" cy="168" r="4.8"/>
	<circle style="fill:#BF1111;" cx="188" cy="162.4" r="4.8"/>
	<circle style="fill:#BF1111;" cx="220" cy="157.6" r="4.8"/>
</g>
<path style="fill:#FF9700;" d="M188,255.2c0,4.8-4,8-8,8H51.2c-4.8,0-8-4-8-8V196c0-4.8,4-8,8-8H180c4.8,0,8,4,8,8V255.2z"/>
<path style="fill:#BC043D;" d="M8.8,333.6c0,2.4-1.6,4-4,4l0,0c-2.4,0-4-1.6-4-4v-11.2c0-2.4,1.6-4,4-4l0,0c2.4,0,4,1.6,4,4V333.6z"
	/>
<path style="fill:#FEDA00;" d="M8.8,348c0,1.6-1.6,4-4,4l0,0c-2.4,0-4-1.6-4-4v-11.2c0-1.6,1.6-4,4-4l0,0c2.4,0,4,1.6,4,4V348z"/>
<path style="fill:#FF7F00;" d="M500.8,353.6c0,4.8-4,8-8,8H488c-4.8,0-8-4-8-8v-23.2c0-4.8,4-8,8-8h4.8c4.8,0,8,4,8,8V353.6z"/>
<path style="fill:#E00E0E;" d="M496.8,347.2c0,4.8-4,8-8,8h-476c-4.8,0-8-4-8-8V217.6c0-4.8,22.4-21.6,27.2-21.6h418.4
	c4.8,0,47.2,16,47.2,20.8v130.4H496.8z"/>
<path style="fill:#BF1111;" d="M4.8,308v39.2c0,4.8,4,8,8,8h476c4.8,0,8-4,8-8V308H4.8z"/>
<path style="fill:#9CBBBC;" d="M342.4,352.8c0,4-3.2,8-8,8h-76c-4,0-8-3.2-8-8V229.6c0-4,3.2-8,8-8h76c4,0,8,3.2,8,8V352.8z"/>
<path style="fill:#BAD6D8;" d="M334.4,228.8h-76c-4,0-8,3.2-8,8v116c0,4,3.2,8,8,8h76c4,0,8-3.2,8-8v-116
	C342.4,232,339.2,228.8,334.4,228.8z"/>
<path style="fill:#9CBBBC;" d="M251.2,308v44.8c0,0.8,0,2.4,0.8,3.2h90.4c0-0.8,0.8-1.6,0.8-3.2V308H251.2z"/>
<path style="fill:#FF9700;" d="M504,358.4c0,4-3.2,7.2-7.2,7.2H7.2c-4,0-7.2-3.2-7.2-7.2l0,0c0-4,3.2-7.2,7.2-7.2h490.4
	C500.8,351.2,504,354.4,504,358.4L504,358.4z"/>
<path d="M33.6,356c0-20,16.8-36.8,36.8-36.8s36.8,16.8,36.8,36.8"/>
<path style="fill:#FF9700;" d="M108,356h-3.2c0-19.2-16-35.2-35.2-35.2s-35.2,16-35.2,35.2H32c0-20.8,16.8-38.4,38.4-38.4
	C91.2,317.6,108,334.4,108,356z"/>
<circle style="fill:#203547;" cx="70.4" cy="356.8" r="32.8"/>
<path style="fill:#122130;" d="M93.6,333.6c12.8,12.8,12.8,33.6,0,47.2c-12.8,12.8-33.6,12.8-47.2,0"/>
<circle style="fill:#FFA300;" cx="70.4" cy="356.8" r="20.8"/>
<path style="fill:#FF8500;" d="M84.8,342.4c8,8,8,21.6,0,29.6s-21.6,8-29.6,0"/>
<circle style="fill:#E00E0E;" cx="69.6" cy="356.8" r="18.4"/>
<path style="fill:#BF1111;" d="M83.2,344c7.2,7.2,7.2,18.4,0,25.6s-18.4,7.2-25.6,0"/>
<path style="opacity:0.2;fill:#888F91;enable-background:new    ;" d="M78.4,356.8c0,4.8-4,9.6-8.8,9.6s-8.8-4.8-8.8-9.6
	c0-4.8,4-8.8,8.8-8.8C74.4,348.8,78.4,352.8,78.4,356.8z"/>
<circle style="fill:#BF1111;" cx="70.4" cy="356.8" r="8.8"/>
<path style="fill:#E00E0E;" d="M70.4,348.8c4.8,0,8.8,4,8.8,8.8s-4,8.8-8.8,8.8"/>
<path style="fill:#666E70;" d="M70.4,339.2c-0.8,0-1.6,0-2.4,0c0,2.4,1.6,4.8,2.4,4.8s2.4-1.6,2.4-4.8
	C72,339.2,71.2,339.2,70.4,339.2z"/>
<path style="fill:#535A5B;" d="M70.4,343.2c0.8,0,2.4-1.6,2.4-4.8c-0.8,0-1.6,0-2.4,0"/>
<path style="fill:#666E70;" d="M67.2,375.2c1.6,0,3.2,0,4.8,0c0-2.4-1.6-4.8-2.4-4.8C68.8,370.4,68,372.8,67.2,375.2z"/>
<path style="fill:#535A5B;" d="M72.8,375.2c0-2.4-1.6-4.8-2.4-4.8"/>
<path style="fill:#666E70;" d="M55.2,346.4c2.4,1.6,4.8,1.6,5.6,0.8s0-3.2-1.6-4.8C57.6,344,56.8,344.8,55.2,346.4z"/>
<path style="fill:#535A5B;" d="M60.8,347.2c0.8-0.8,0-3.2-1.6-4.8"/>
<path style="fill:#666E70;" d="M84.8,368c-2.4-1.6-4-2.4-4.8-1.6s0,3.2,1.6,4.8c0.8-0.8,1.6-0.8,1.6-1.6
	C83.2,369.6,84,368.8,84.8,368z"/>
<path style="fill:#535A5B;" d="M83.2,370.4c0.8-0.8,0.8-1.6,1.6-1.6c-2.4-1.6-4-2.4-4.8-1.6"/>
<path style="fill:#666E70;" d="M52,359.2c2.4,0,4.8-1.6,4.8-2.4s-1.6-2.4-4.8-2.4c0,0.8,0,1.6,0,2.4S52,358.4,52,359.2z"/>
<path style="fill:#535A5B;" d="M56.8,356.8c0-0.8-1.6-2.4-4.8-2.4c0,0.8,0,1.6,0,2.4"/>
<path style="fill:#666E70;" d="M83.2,356.8c0,0.8,1.6,2.4,4.8,2.4c0-1.6,0-3.2,0-4.8C85.6,355.2,83.2,356,83.2,356.8z"/>
<path style="fill:#535A5B;" d="M88,354.4c-2.4,0-4.8,1.6-4.8,2.4"/>
<path style="fill:#666E70;" d="M55.2,368c0.8,1.6,2.4,2.4,3.2,3.2c1.6-2.4,2.4-4,1.6-4.8C60,365.6,57.6,366.4,55.2,368z"/>
<path style="fill:#535A5B;" d="M59.2,372c1.6-2.4,2.4-4,1.6-4.8"/>
<path style="fill:#666E70;" d="M80.8,342.4c-1.6,2.4-2.4,4-1.6,4.8s3.2,0,4.8-1.6C83.2,344.8,82.4,344,80.8,342.4z"/>
<path style="fill:#535A5B;" d="M80.8,342.4c-1.6,2.4-2.4,4-1.6,4.8"/>
<path d="M357.6,356c0-20,16.8-36.8,36.8-36.8s36.8,16.8,36.8,36.8"/>
<path style="fill:#FF9700;" d="M432.8,356h-3.2c0-19.2-16-35.2-35.2-35.2s-35.2,16-35.2,35.2H356c0-20.8,16.8-38.4,38.4-38.4
	C415.2,317.6,432.8,334.4,432.8,356z"/>
<circle style="fill:#203547;" cx="394.4" cy="356.8" r="32.8"/>
<path style="fill:#122130;" d="M417.6,333.6c12.8,12.8,12.8,33.6,0,47.2c-12.8,12.8-33.6,12.8-47.2,0"/>
<path style="fill:#FFA300;" d="M415.2,356.8c0,11.2-9.6,20.8-20.8,20.8c-11.2,0-20.8-9.6-20.8-20.8c0-11.2,9.6-20.8,20.8-20.8
	S415.2,345.6,415.2,356.8z"/>
<path style="fill:#FF8500;" d="M408.8,342.4c8,8,8,21.6,0,29.6s-21.6,8-29.6,0"/>
<circle style="fill:#E00E0E;" cx="394.4" cy="356.8" r="18.4"/>
<path style="fill:#BF1111;" d="M407.2,344c7.2,7.2,7.2,18.4,0,25.6s-18.4,7.2-25.6,0"/>
<path style="opacity:0.2;fill:#888F91;enable-background:new    ;" d="M403.2,356.8c0,4.8-4,9.6-8.8,9.6s-8.8-4.8-8.8-9.6
	c0-4.8,4-8.8,8.8-8.8C399.2,348.8,403.2,352.8,403.2,356.8z"/>
<circle style="fill:#BF1111;" cx="394.4" cy="356.8" r="8.8"/>
<path style="fill:#E00E0E;" d="M394.4,348.8c4.8,0,8.8,4,8.8,8.8s-4,8.8-8.8,8.8"/>
<path style="fill:#666E70;" d="M394.4,339.2c-0.8,0-1.6,0-2.4,0c0,2.4,1.6,4.8,2.4,4.8s2.4-1.6,2.4-4.8
	C396,339.2,395.2,339.2,394.4,339.2z"/>
<path style="fill:#535A5B;" d="M394.4,343.2c0.8,0,2.4-1.6,2.4-4.8c-0.8,0-1.6,0-2.4,0"/>
<path style="fill:#666E70;" d="M392,375.2c1.6,0,3.2,0,4.8,0c0-2.4-1.6-4.8-2.4-4.8C393.6,370.4,392,372.8,392,375.2z"/>
<path style="fill:#535A5B;" d="M396.8,375.2c0-2.4-1.6-4.8-2.4-4.8"/>
<path style="fill:#666E70;" d="M380,346.4c2.4,1.6,4,2.4,4.8,1.6s0-3.2-1.6-4.8C382.4,344,380.8,344.8,380,346.4z"/>
<path style="fill:#535A5B;" d="M384.8,347.2c0.8-0.8,0-3.2-1.6-4.8"/>
<path style="fill:#666E70;" d="M408.8,368c-2.4-1.6-4-2.4-4.8-1.6s0,3.2,1.6,4.8c0.8-0.8,1.6-0.8,1.6-1.6
	C408,369.6,408,368.8,408.8,368z"/>
<path style="fill:#535A5B;" d="M407.2,370.4c0.8-0.8,0.8-1.6,1.6-1.6c-2.4-1.6-4-2.4-4.8-1.6"/>
<path style="fill:#666E70;" d="M376,359.2c2.4,0,4.8-1.6,4.8-2.4s-1.6-2.4-4.8-2.4c0,0.8,0,1.6,0,2.4S376,358.4,376,359.2z"/>
<path style="fill:#535A5B;" d="M380.8,356.8c0-0.8-1.6-2.4-4.8-2.4c0,0.8,0,1.6,0,2.4"/>
<path style="fill:#666E70;" d="M408,356.8c0,0.8,1.6,2.4,4.8,2.4c0-1.6,0-3.2,0-4.8C409.6,355.2,408,356,408,356.8z"/>
<path style="fill:#535A5B;" d="M412.8,354.4c-2.4,0-4.8,1.6-4.8,2.4"/>
<path style="fill:#666E70;" d="M380,368c0.8,1.6,2.4,2.4,3.2,3.2c1.6-2.4,2.4-4,1.6-4.8C384,365.6,382.4,366.4,380,368z"/>
<path style="fill:#535A5B;" d="M383.2,372c1.6-2.4,2.4-4,1.6-4.8"/>
<path style="fill:#666E70;" d="M405.6,342.4c-1.6,2.4-2.4,4-1.6,4.8s3.2,0,4.8-1.6C408,344.8,406.4,344,405.6,342.4z"/>
<path style="fill:#535A5B;" d="M405.6,342.4c-1.6,2.4-2.4,4-1.6,4.8"/>
<path style="fill:#51859B;" d="M496.8,221.6h-104c-4.8,0-8,4-8,8V264c0,4.8,4,8,8,8h104V221.6z"/>
<path style="fill:#FFDA00;" d="M500,322.4c0,2.4-2.4,4.8-4.8,4.8l0,0c-2.4,0-4.8-2.4-4.8-4.8v-9.6c0-2.4,2.4-4.8,4.8-4.8l0,0
	c2.4,0,4.8,2.4,4.8,4.8V322.4z"/>
<path style="fill:#8E8E8E;" d="M464.8,281.6c0,0.8-0.8,1.6-1.6,1.6h-10.4c-0.8,0-1.6-0.8-1.6-1.6l0,0c0-0.8,0.8-1.6,1.6-1.6h10.4
	C464,279.2,464.8,280,464.8,281.6L464.8,281.6z"/>
<g>
	<path style="fill:#81B6C9;" d="M434.4,221.6l-48,48c1.6,1.6,4,3.2,6.4,3.2h1.6l51.2-51.2L434.4,221.6L434.4,221.6z"/>
	<polygon style="fill:#81B6C9;" points="492,221.6 483.2,221.6 432.8,272.8 441.6,272.8 	"/>
	<polygon style="fill:#81B6C9;" points="470.4,221.6 452,221.6 400.8,272.8 419.2,272.8 	"/>
	<path style="fill:#81B6C9;" d="M412.8,221.6h-20c-4.8,0-8,4-8,8v20L412.8,221.6z"/>
	<polygon style="fill:#81B6C9;" points="475.2,272.8 496.8,272.8 496.8,250.4 	"/>
</g>
<g>
	<rect x="433.6" y="214.4" style="fill:#E00E0E;" width="12.8" height="69.6"/>
	<rect x="401.6" y="214.4" style="fill:#E00E0E;" width="12.8" height="69.6"/>
</g>
<g>
	<path style="fill:#7FA0A0;" d="M339.2,239.2c0,0.8-0.8,1.6-1.6,1.6H256c-0.8,0-1.6-0.8-1.6-1.6l0,0c0-0.8,0.8-1.6,1.6-1.6h81.6
		C338.4,237.6,339.2,238.4,339.2,239.2L339.2,239.2z"/>
	<path style="fill:#7FA0A0;" d="M339.2,251.2c0,0.8-0.8,1.6-1.6,1.6H256c-0.8,0-1.6-0.8-1.6-1.6l0,0c0-0.8,0.8-1.6,1.6-1.6h81.6
		C338.4,249.6,339.2,250.4,339.2,251.2L339.2,251.2z"/>
	<path style="fill:#7FA0A0;" d="M339.2,263.2c0,0.8-0.8,1.6-1.6,1.6H256c-0.8,0-1.6-0.8-1.6-1.6l0,0c0-0.8,0.8-1.6,1.6-1.6h81.6
		C338.4,261.6,339.2,262.4,339.2,263.2L339.2,263.2z"/>
	<path style="fill:#7FA0A0;" d="M339.2,276c0,0.8-0.8,1.6-1.6,1.6H256c-0.8,0-1.6-0.8-1.6-1.6l0,0c0-0.8,0.8-1.6,1.6-1.6h81.6
		C338.4,274.4,339.2,275.2,339.2,276L339.2,276z"/>
	<path style="fill:#7FA0A0;" d="M339.2,288c0,0.8-0.8,1.6-1.6,1.6H256c-0.8,0-1.6-0.8-1.6-1.6l0,0c0-0.8,0.8-1.6,1.6-1.6h81.6
		C338.4,286.4,339.2,287.2,339.2,288L339.2,288z"/>
	<path style="fill:#7FA0A0;" d="M339.2,300c0,0.8-0.8,1.6-1.6,1.6H256c-0.8,0-1.6-0.8-1.6-1.6l0,0c0-0.8,0.8-1.6,1.6-1.6h81.6
		C338.4,299.2,339.2,299.2,339.2,300L339.2,300z"/>
	<path style="fill:#7FA0A0;" d="M339.2,312.8c0,0.8-0.8,1.6-1.6,1.6H256c-0.8,0-1.6-0.8-1.6-1.6l0,0c0-0.8,0.8-1.6,1.6-1.6h81.6
		C338.4,311.2,339.2,312,339.2,312.8L339.2,312.8z"/>
	<path style="fill:#7FA0A0;" d="M339.2,324.8c0,0.8-0.8,1.6-1.6,1.6H256c-0.8,0-1.6-0.8-1.6-1.6l0,0c0-0.8,0.8-1.6,1.6-1.6h81.6
		C338.4,323.2,339.2,324,339.2,324.8L339.2,324.8z"/>
	<path style="fill:#7FA0A0;" d="M339.2,337.6c0,0.8-0.8,1.6-1.6,1.6H256c-0.8,0-1.6-0.8-1.6-1.6l0,0c0-0.8,0.8-1.6,1.6-1.6h81.6
		C338.4,336,339.2,336.8,339.2,337.6L339.2,337.6z"/>
</g>
<g>
	<path style="fill:#BAD6D8;" d="M142.4,364.8c0,2.4-2.4,4.8-4.8,4.8l0,0c-2.4,0-4.8-2.4-4.8-4.8V197.6c0-2.4,2.4-4.8,4.8-4.8l0,0
		c2.4,0,4.8,2.4,4.8,4.8V364.8z"/>
	<path style="fill:#BAD6D8;" d="M187.2,364.8c0,2.4-2.4,4.8-4.8,4.8l0,0c-2.4,0-4.8-2.4-4.8-4.8V197.6c0-2.4,2.4-4.8,4.8-4.8l0,0
		c2.4,0,4.8,2.4,4.8,4.8V364.8z"/>
</g>
<g>
	<path style="fill:#86A8A8;" d="M181.6,207.2c0,1.6-0.8,2.4-2.4,2.4H140c-1.6,0-2.4-0.8-2.4-2.4l0,0c0-1.6,0.8-2.4,2.4-2.4h39.2
		C180.8,204.8,181.6,205.6,181.6,207.2L181.6,207.2z"/>
	<path style="fill:#86A8A8;" d="M181.6,224.8c0,1.6-0.8,2.4-2.4,2.4H140c-1.6,0-2.4-0.8-2.4-2.4l0,0c0-1.6,0.8-2.4,2.4-2.4h39.2
		C180.8,222.4,181.6,223.2,181.6,224.8L181.6,224.8z"/>
	<path style="fill:#86A8A8;" d="M181.6,242.4c0,1.6-0.8,2.4-2.4,2.4H140c-1.6,0-2.4-0.8-2.4-2.4l0,0c0-1.6,0.8-2.4,2.4-2.4h39.2
		C180.8,240,181.6,241.6,181.6,242.4L181.6,242.4z"/>
	<path style="fill:#86A8A8;" d="M181.6,260c0,1.6-0.8,2.4-2.4,2.4H140c-1.6,0-2.4-0.8-2.4-2.4l0,0c0-1.6,0.8-2.4,2.4-2.4h39.2
		C180.8,258.4,181.6,259.2,181.6,260L181.6,260z"/>
	<path style="fill:#86A8A8;" d="M181.6,277.6c0,1.6-0.8,2.4-2.4,2.4H140c-1.6,0-2.4-0.8-2.4-2.4l0,0c0-1.6,0.8-2.4,2.4-2.4h39.2
		C180.8,276,181.6,276.8,181.6,277.6L181.6,277.6z"/>
	<path style="fill:#86A8A8;" d="M181.6,296c0,1.6-0.8,2.4-2.4,2.4H140c-1.6,0-2.4-0.8-2.4-2.4l0,0c0-1.6,0.8-2.4,2.4-2.4h39.2
		C180.8,293.6,181.6,294.4,181.6,296L181.6,296z"/>
	<path style="fill:#86A8A8;" d="M181.6,313.6c0,1.6-0.8,2.4-2.4,2.4H140c-1.6,0-2.4-0.8-2.4-2.4l0,0c0-1.6,0.8-2.4,2.4-2.4h39.2
		C180.8,311.2,181.6,312,181.6,313.6L181.6,313.6z"/>
	<path style="fill:#86A8A8;" d="M181.6,331.2c0,1.6-0.8,2.4-2.4,2.4H140c-1.6,0-2.4-0.8-2.4-2.4l0,0c0-1.6,0.8-2.4,2.4-2.4h39.2
		C180.8,328.8,181.6,329.6,181.6,331.2L181.6,331.2z"/>
	<path style="fill:#86A8A8;" d="M181.6,348.8c0,1.6-0.8,2.4-2.4,2.4H140c-1.6,0-2.4-0.8-2.4-2.4l0,0c0-1.6,0.8-2.4,2.4-2.4h39.2
		C180.8,346.4,181.6,348,181.6,348.8L181.6,348.8z"/>
</g>
<path style="fill:#85A7A8;" d="M76,314.4c-19.2,0-34.4-15.2-34.4-34.4c0-16,12.8-28.8,28.8-28.8c12.8,0,24,10.4,24,24
	c0,2.4-1.6,4-4,4s-4-1.6-4-4c0-8.8-7.2-16-16-16c-11.2,0-20.8,9.6-20.8,20.8c0,14.4,12,27.2,27.2,27.2c19.2,0,34.4-15.2,34.4-34.4
	c0-24-20-44-44-44c-2.4,0-4-1.6-4-4s0.8-4.8,3.2-4.8c28.8,0,52,23.2,52,52C118.4,295.2,99.2,314.4,76,314.4z"/>
<path style="fill:#6D9191;" d="M41.6,282.4c1.6,17.6,16,32,34.4,32c22.4,0,40.8-17.6,42.4-40.8c-2.4-27.2-24.8-48-52-48
	c-0.8,0-1.6,0-2.4,0.8c0.8,0.8,1.6,1.6,2.4,1.6c24,0,44,20,44,44c0,0.8,0,1.6,0,1.6c0,1.6,0,2.4,0,4c0,19.2-15.2,34.4-34.4,34.4
	c-14.4,0-27.2-12-27.2-27.2c0-0.8,0-1.6,0-3.2c0-0.8,0-1.6,0-3.2c0-11.2,9.6-20.8,20.8-20.8c8.8,0,16,7.2,16,16c0,2.4,1.6,4,4,4
	c1.6,0,3.2-0.8,3.2-2.4C91.2,264,80.8,256,69.6,256C55.2,256.8,43.2,268,41.6,282.4z"/>
<path style="fill:#BF1111;" d="M97.6,286.4c0,4,4,8,0,8H60.8c-4,0,0-3.2,0-8v-7.2c0-4,3.2-8,8-8h20.8c4,0,8,3.2,8,8
	C97.6,279.2,97.6,286.4,97.6,286.4z"/>
<path style="fill:#EA2424;" d="M60.8,280c0-4,3.2-8,8-8h20.8c4,0,8,3.2,8,8"/>
<path style="fill:#FF9700;" d="M68.8,223.2c0,4.8-4,8-8,8s-28.8-4-28.8-8c0-4.8,24-8,28.8-8S68.8,219.2,68.8,223.2z"/>
<path style="fill:#FF7300;" d="M68.8,223.2c0,4.8-4,8-8,8s-28.8-4-28.8-8"/>
<g>
</g>
<g>
</g>
<g>
</g>
<g>
</g>
<g>
</g>
<g>
</g>
<g>
</g>
<g>
</g>
<g>
</g>
<g>
</g>
<g>
</g>
<g>
</g>
<g>
</g>
<g>
</g>
<g>
</g>
</svg>
