<?xml version="1.0" encoding="iso-8859-1"?>
<!-- Generator: Adobe Illustrator 19.0.0, SVG Export Plug-In . SVG Version: 6.00 Build 0)  -->
<svg version="1.1" id="Layer_1" xmlns="http://www.w3.org/2000/svg" xmlns:xlink="http://www.w3.org/1999/xlink" x="0px" y="0px"
	 viewBox="0 0 512 512" style="enable-background:new 0 0 512 512;" xml:space="preserve">
<g transform="translate(0 1)">
	<path style="fill:#FFE100;" d="M384,249.88l-26.453-47.787c-8.533-15.36-34.133-23.893-50.347-23.893H136.533
		c-16.213,0-30.72,9.387-38.4,23.893l-38.4,69.12c-5.973,11.093-2.56,17.92-14.507,17.92l0,0c-6.827,0-11.947,5.973-11.947,12.8
		c0,18.773,0,53.76,0,76.8c0,11.947,8.533,21.333,18.773,21.333h7.68c0-28.16,22.187-51.2,47.787-51.2s46.08,23.04,46.08,51.2h204.8
		c0-28.16,20.48-51.2,46.08-51.2s47.787,23.04,47.787,51.2h2.56c12.8,0,23.04-11.947,23.04-25.6v-71.68
		c0-6.827-5.12-12.8-11.947-12.8H435.2C409.6,289.133,397.653,274.627,384,249.88"/>
	<path style="fill:#FFFFFF;" d="M22.187,289.133L22.187,289.133c-7.68,0-13.653,5.973-13.653,12.8c0,18.773,0,53.76,0,76.8
		c0,11.947,9.387,21.333,21.333,21.333H51.2l0,0c-10.24-0.853-17.92-10.24-17.92-21.333c0-23.04,0-58.027,0-76.8
		c0-6.827,5.12-12.8,11.947-12.8l0,0"/>
	<path style="fill:#FFA800;" d="M486.4,289.133h-23.893c6.827,0,11.947,5.973,11.947,12.8v72.533c0,11.947-7.68,22.187-17.92,24.747
		v0.853H473.6c14.507,0,25.6-11.947,25.6-25.6v-71.68C499.2,295.107,493.227,289.133,486.4,289.133"/>
	<path style="fill:#FFE100;" d="M119.467,144.067h196.267V58.733H119.467V144.067z"/>
	<path style="fill:#FFFFFF;" d="M93.867,144.067h25.6V58.733h-25.6V144.067z"/>
	<path style="fill:#FFA800;" d="M315.733,144.067h25.6V58.733h-25.6V144.067z"/>
	<path style="fill:#63D3FD;" d="M356.693,249.88L332.8,212.333H143.36c-4.267,0-6.827,3.413-6.827,6.827v36.693
		c0,4.267,3.413,6.827,6.827,6.827h223.573C362.667,259.267,359.253,255,356.693,249.88"/>
	<path style="fill:#3DB9F9;" d="M382.293,249.88L358.4,212.333h-29.013l23.04,37.547c3.413,5.12,6.827,9.387,10.24,13.653h29.867
		C388.267,259.267,384.853,255,382.293,249.88"/>
	<path style="fill:#FECC00;" d="M435.2,400.067c0,28.16-17.067,51.2-38.4,51.2s-38.4-23.04-38.4-51.2c0-28.16,17.067-51.2,38.4-51.2
		S435.2,371.907,435.2,400.067"/>
	<path style="fill:#FFA800;" d="M409.6,348.867c-2.56,0-5.12,0-7.68,0.853c18.773,3.413,33.28,24.747,33.28,50.347
		S420.693,447,401.92,450.413c2.56,0,5.12,0.853,7.68,0.853c28.16,0,51.2-23.04,51.2-51.2
		C460.8,371.907,437.76,348.867,409.6,348.867"/>
	<path style="fill:#FECC00;" d="M128,400.067c0,28.16-17.067,51.2-38.4,51.2s-38.4-23.04-38.4-51.2c0-28.16,17.067-51.2,38.4-51.2
		S128,371.907,128,400.067"/>
	<path style="fill:#FFA800;" d="M102.4,348.867c-2.56,0-5.12,0-7.68,0.853c18.773,3.413,33.28,24.747,33.28,50.347
		S113.493,447,94.72,450.413c2.56,0,5.12,0.853,7.68,0.853c28.16,0,51.2-23.04,51.2-51.2
		C153.6,371.907,130.56,348.867,102.4,348.867"/>
	<path d="M102.4,459.8c-33.28,0-59.733-26.453-59.733-59.733s26.453-59.733,59.733-59.733s59.733,26.453,59.733,59.733
		S135.68,459.8,102.4,459.8z M102.4,357.4c-23.893,0-42.667,18.773-42.667,42.667c0,23.893,18.773,42.667,42.667,42.667
		s42.667-18.773,42.667-42.667C145.067,376.173,126.293,357.4,102.4,357.4z"/>
	<path d="M119.467,400.067c0,9.387-7.68,17.067-17.067,17.067s-17.067-7.68-17.067-17.067S93.013,383,102.4,383
		S119.467,390.68,119.467,400.067"/>
	<path d="M409.6,459.8c-33.28,0-59.733-26.453-59.733-59.733s26.453-59.733,59.733-59.733s59.733,26.453,59.733,59.733
		S442.88,459.8,409.6,459.8z M409.6,357.4c-23.893,0-42.667,18.773-42.667,42.667c0,23.893,18.773,42.667,42.667,42.667
		c23.893,0,42.667-18.773,42.667-42.667C452.267,376.173,433.493,357.4,409.6,357.4z"/>
	<path d="M426.667,400.067c0,9.387-7.68,17.067-17.067,17.067c-9.387,0-17.067-7.68-17.067-17.067S400.213,383,409.6,383
		C418.987,383,426.667,390.68,426.667,400.067"/>
	<path d="M477.867,408.6h-25.6v-8.533c0-23.893-18.773-42.667-42.667-42.667c-23.893,0-42.667,18.773-42.667,42.667v8.533H145.067
		v-8.533c0-23.893-18.773-42.667-42.667-42.667s-42.667,18.773-42.667,42.667v8.533H29.867C13.653,408.6,0,394.947,0,378.733v-76.8
		c0-5.973,2.56-11.093,5.973-15.36c4.267-3.413,9.387-5.973,15.36-5.973c10.24,0,19.627-5.12,24.747-13.653l42.667-69.12
		c11.093-17.067,29.867-28.16,50.347-28.16h174.08c20.48,0,40.107,11.093,50.347,28.16l29.867,47.787
		c13.653,21.333,37.547,34.987,62.293,34.987h34.987c11.947,0,21.333,9.387,21.333,21.333v72.533
		C512,393.24,496.64,408.6,477.867,408.6z M468.48,391.533h8.533c9.387,0,17.067-7.68,17.067-17.067v-71.68
		c0-2.56-1.707-4.267-4.267-4.267h-34.987c-31.573,0-60.587-16.213-76.8-42.667l-29.867-47.787
		c-6.827-13.653-20.48-21.333-34.987-21.333h-174.08c-14.507,0-28.16,7.68-35.84,20.48l-42.667,69.12
		c-7.68,12.8-23.04,21.333-38.4,21.333c-1.707,0-2.56,0.853-3.413,1.707c-1.707,0.853-1.707,1.707-1.707,2.56v76.8
		c0,6.827,5.973,12.8,12.8,12.8H43.52c4.267-29.013,29.013-51.2,58.88-51.2s54.613,22.187,58.88,51.2h188.587
		c4.267-29.013,29.013-51.2,58.88-51.2S464.213,362.52,468.48,391.533z"/>
	<path d="M416.427,272.067h-281.6c-8.533,0-15.36-6.827-15.36-15.36v-36.693c0-8.533,6.827-15.36,15.36-15.36h232.107l25.6,41.813
		c2.56,4.267,5.12,7.68,9.387,11.947L416.427,272.067z M136.533,255H378.88l0,0l0,0l-20.48-34.133H136.533V255z"/>
	<rect x="247.467" y="212.333" width="17.067" height="51.2"/>
	<path d="M298.667,314.733H256c-5.12,0-8.533-3.413-8.533-8.533s3.413-8.533,8.533-8.533h42.667c5.12,0,8.533,3.413,8.533,8.533
		S303.787,314.733,298.667,314.733z"/>
	<path d="M298.667,331.8c-5.12,0-8.533-3.413-8.533-8.533V306.2c0-5.12,3.413-8.533,8.533-8.533s8.533,3.413,8.533,8.533v17.067
		C307.2,328.387,303.787,331.8,298.667,331.8z"/>
	<path d="M503.467,340.333h-34.133c-5.12,0-8.533-3.413-8.533-8.533s3.413-8.533,8.533-8.533h34.133c5.12,0,8.533,3.413,8.533,8.533
		S508.587,340.333,503.467,340.333z"/>
	<path d="M42.667,331.8H8.533c-5.12,0-8.533-3.413-8.533-8.533c0-5.12,3.413-8.533,8.533-8.533h34.133
		c5.12,0,8.533,3.413,8.533,8.533C51.2,328.387,47.787,331.8,42.667,331.8z"/>
	<path d="M136.533,186.733c-5.12,0-8.533-3.413-8.533-8.533v-34.133c0-5.12,3.413-8.533,8.533-8.533s8.533,3.413,8.533,8.533V178.2
		C145.067,183.32,141.653,186.733,136.533,186.733z"/>
	<path d="M298.667,186.733c-5.12,0-8.533-3.413-8.533-8.533v-34.133c0-5.12,3.413-8.533,8.533-8.533s8.533,3.413,8.533,8.533V178.2
		C307.2,183.32,303.787,186.733,298.667,186.733z"/>
	<path d="M341.333,152.6H93.867c-5.12,0-8.533-3.413-8.533-8.533V58.733c0-5.12,3.413-8.533,8.533-8.533h247.467
		c5.12,0,8.533,3.413,8.533,8.533v85.333C349.867,149.187,346.453,152.6,341.333,152.6z M102.4,135.533h230.4V67.267H102.4V135.533z
		"/>
	<path d="M153.6,118.467c-5.12,0-8.533-3.413-8.533-8.533V92.867c0-5.12,3.413-8.533,8.533-8.533c5.12,0,8.533,3.413,8.533,8.533
		v17.067C162.133,115.053,158.72,118.467,153.6,118.467z"/>
	<path d="M196.267,118.467c-5.12,0-8.533-3.413-8.533-8.533V92.867c0-5.12,3.413-8.533,8.533-8.533c5.12,0,8.533,3.413,8.533,8.533
		v17.067C204.8,115.053,201.387,118.467,196.267,118.467z"/>
	<path d="M238.933,118.467c-5.12,0-8.533-3.413-8.533-8.533V92.867c0-5.12,3.413-8.533,8.533-8.533c5.12,0,8.533,3.413,8.533,8.533
		v17.067C247.467,115.053,244.053,118.467,238.933,118.467z"/>
	<path d="M281.6,118.467c-5.12,0-8.533-3.413-8.533-8.533V92.867c0-5.12,3.413-8.533,8.533-8.533c5.12,0,8.533,3.413,8.533,8.533
		v17.067C290.133,115.053,286.72,118.467,281.6,118.467z"/>
</g>
<g>
</g>
<g>
</g>
<g>
</g>
<g>
</g>
<g>
</g>
<g>
</g>
<g>
</g>
<g>
</g>
<g>
</g>
<g>
</g>
<g>
</g>
<g>
</g>
<g>
</g>
<g>
</g>
<g>
</g>
</svg>
