<?xml version="1.0" encoding="iso-8859-1"?>
<!-- Generator: Adobe Illustrator 19.0.0, SVG Export Plug-In . SVG Version: 6.00 Build 0)  -->
<svg version="1.1" id="Layer_1" xmlns="http://www.w3.org/2000/svg" xmlns:xlink="http://www.w3.org/1999/xlink" x="0px" y="0px"
	 viewBox="0 0 512 512" style="enable-background:new 0 0 512 512;" xml:space="preserve">
<g>
	<path style="fill:#464655;" d="M79.448,459.034h-35.31c-9.751,0-17.655-7.904-17.655-17.655v-52.966h70.621v52.966
		C97.103,451.13,89.199,459.034,79.448,459.034z"/>
	<path style="fill:#464655;" d="M467.862,459.034h-35.31c-9.751,0-17.655-7.904-17.655-17.655v-52.966h70.621v52.966
		C485.517,451.13,477.613,459.034,467.862,459.034z"/>
</g>
<rect x="229.517" y="52.966" style="fill:#707487;" width="52.966" height="35.31"/>
<path style="fill:#FF6464;" d="M229.517,52.966h-97.103c-9.751,0-17.655,7.904-17.655,17.655v17.655h114.759V52.966z"/>
<path style="fill:#5A96FF;" d="M282.483,52.966h97.103c9.751,0,17.655,7.904,17.655,17.655v17.655H282.483V52.966z"/>
<path style="fill:#464655;" d="M402.379,70.621H109.621c-17.375,0-32.169,12.641-34.878,29.803L52.966,238.345h406.069
	l-21.777-137.921C434.548,83.262,419.755,70.621,402.379,70.621z"/>
<path style="fill:#5B5D6E;" d="M503.172,176.552H476.69c-4.875,0-8.828,3.953-8.828,8.828v26.483h-13.009l-17.596-111.438
	c-2.71-17.162-17.503-29.803-34.879-29.803H109.621c-17.375,0-32.169,12.641-34.878,29.803L57.146,211.862H44.138v-26.483
	c0-4.875-3.953-8.828-8.828-8.828H8.828c-4.875,0-8.828,3.953-8.828,8.828v35.31c0,4.875,3.953,8.828,8.828,8.828h45.532
	l-1.394,8.828h17.874l18.554-117.512c1.355-8.582,8.751-14.902,17.439-14.902h298.334c8.687,0,16.084,6.321,17.439,14.902
	l18.556,117.512h17.874l-1.394-8.828h45.532c4.875,0,8.828-3.953,8.828-8.828v-35.31C512,180.504,508.047,176.552,503.172,176.552z"
	/>
<path style="fill:#707487;" d="M494.345,353.103H17.655v-70.621c0-29.252,23.713-52.966,52.966-52.966h370.759
	c29.252,0,52.966,23.713,52.966,52.966V353.103z"/>
<path style="fill:#5B5D6E;" d="M494.345,406.069H17.655C7.904,406.069,0,398.165,0,388.414v-35.31
	c0-9.751,7.904-17.655,17.655-17.655h476.69c9.751,0,17.655,7.904,17.655,17.655v35.31C512,398.165,504.096,406.069,494.345,406.069
	z"/>
<path style="fill:#FFFFFF;" d="M61.793,317.793h26.483c9.751,0,17.655-7.904,17.655-17.655v-17.655
	c0-9.751-7.904-17.655-17.655-17.655H61.793c-9.751,0-17.655,7.904-17.655,17.655v17.655
	C44.138,309.889,52.042,317.793,61.793,317.793z"/>
<path style="fill:#FFC36E;" d="M61.793,317.793L61.793,317.793c-9.751,0-17.655-7.904-17.655-17.655v-17.655
	c0-9.751,7.904-17.655,17.655-17.655l0,0V317.793z"/>
<path style="fill:#FFFFFF;" d="M450.207,317.793h-26.483c-9.751,0-17.655-7.904-17.655-17.655v-17.655
	c0-9.751,7.904-17.655,17.655-17.655h26.483c9.751,0,17.655,7.904,17.655,17.655v17.655
	C467.862,309.889,459.958,317.793,450.207,317.793z"/>
<path style="fill:#FFC36E;" d="M450.207,317.793L450.207,317.793c9.751,0,17.655-7.904,17.655-17.655v-17.655
	c0-9.751-7.904-17.655-17.655-17.655l0,0V317.793z"/>
<rect x="158.897" y="300.138" style="fill:#464655;" width="194.207" height="35.31"/>
<g>
	<path style="fill:#FFFFFF;" d="M211.862,353.103h-26.483c-4.875,0-8.828-3.953-8.828-8.828v-17.655
		c0-4.875,3.953-8.828,8.828-8.828h26.483c4.875,0,8.828,3.953,8.828,8.828v17.655C220.69,349.151,216.737,353.103,211.862,353.103z
		"/>
	<path style="fill:#FFFFFF;" d="M326.621,353.103h-26.483c-4.875,0-8.828-3.953-8.828-8.828v-17.655
		c0-4.875,3.953-8.828,8.828-8.828h26.483c4.875,0,8.828,3.953,8.828,8.828v17.655C335.448,349.151,331.496,353.103,326.621,353.103
		z"/>
</g>
<path style="fill:#464655;" d="M485.517,370.759h-97.103V256c0-4.875-3.953-8.828-8.828-8.828s-8.828,3.953-8.828,8.828v8.828
	H141.241V256c0-4.875-3.953-8.828-8.828-8.828c-4.875,0-8.828,3.953-8.828,8.828v114.759H26.483c-4.875,0-8.828,3.953-8.828,8.828
	s3.953,8.828,8.828,8.828h459.034c4.875,0,8.828-3.953,8.828-8.828S490.392,370.759,485.517,370.759z M141.241,282.483h229.517
	v88.276H141.241V282.483z"/>
<path style="fill:#FF6464;" d="M185.379,282.483h-17.655c-4.875,0-8.828-3.953-8.828-8.828l0,0c0-4.875,3.953-8.828,8.828-8.828
	h17.655c4.875,0,8.828,3.953,8.828,8.828l0,0C194.207,278.53,190.254,282.483,185.379,282.483z"/>
<path style="fill:#5A96FF;" d="M344.276,282.483h-17.655c-4.875,0-8.828-3.953-8.828-8.828l0,0c0-4.875,3.953-8.828,8.828-8.828
	h17.655c4.875,0,8.828,3.953,8.828,8.828l0,0C353.103,278.53,349.151,282.483,344.276,282.483z"/>
<path style="fill:#FF6464;" d="M291.31,282.483h-17.655c-4.875,0-8.828-3.953-8.828-8.828l0,0c0-4.875,3.953-8.828,8.828-8.828
	h17.655c4.875,0,8.828,3.953,8.828,8.828l0,0C300.138,278.53,296.185,282.483,291.31,282.483z"/>
<path style="fill:#5A96FF;" d="M238.345,282.483H220.69c-4.875,0-8.828-3.953-8.828-8.828l0,0c0-4.875,3.953-8.828,8.828-8.828
	h17.655c4.875,0,8.828,3.953,8.828,8.828l0,0C247.172,278.53,243.22,282.483,238.345,282.483z"/>
<g>
</g>
<g>
</g>
<g>
</g>
<g>
</g>
<g>
</g>
<g>
</g>
<g>
</g>
<g>
</g>
<g>
</g>
<g>
</g>
<g>
</g>
<g>
</g>
<g>
</g>
<g>
</g>
<g>
</g>
</svg>
