<?xml version="1.0" encoding="iso-8859-1"?>
<!-- Generator: Adobe Illustrator 19.0.0, SVG Export Plug-In . SVG Version: 6.00 Build 0)  -->
<svg version="1.1" id="Layer_1" xmlns="http://www.w3.org/2000/svg" xmlns:xlink="http://www.w3.org/1999/xlink" x="0px" y="0px"
	 viewBox="0 0 380.172 380.172" style="enable-background:new 0 0 380.172 380.172;" xml:space="preserve">
<g>
	<path style="fill:#006098;" d="M343.704,185.991c0-27.849-22.576-50.425-50.425-50.425c-1.342,0-2.667,0.068-3.982,0.172
		c-8.468-15.95-25.24-26.817-44.557-26.817c-27.849,0-50.424,22.575-50.424,50.424s22.576,50.425,50.424,50.425
		c1.341,0,2.666-0.068,3.982-0.17c1.595,3.003,3.478,5.831,5.622,8.435c-7.178,8.712-11.489,19.874-11.489,32.043
		c0,27.849,22.575,50.424,50.424,50.424c27.849,0,50.425-22.575,50.425-50.424c0-12.169-4.312-23.331-11.49-32.043
		C339.392,209.321,343.704,198.16,343.704,185.991z"/>
	<path style="fill:#006098;" d="M135.433,209.77c27.849,0,50.424-22.576,50.424-50.425s-22.576-50.424-50.424-50.424
		c-19.317,0-36.089,10.867-44.558,26.817c-1.315-0.104-2.641-0.172-3.982-0.172c-27.849,0-50.425,22.576-50.425,50.425
		c0,12.169,4.312,23.331,11.49,32.043c-7.178,8.712-11.49,19.874-11.49,32.043c0,27.849,22.576,50.424,50.425,50.424
		c27.848,0,50.424-22.575,50.424-50.424c0-12.169-4.311-23.331-11.49-32.043c2.146-2.604,4.028-5.432,5.623-8.435
		C132.766,209.701,134.091,209.77,135.433,209.77z"/>
	<path style="fill:#EED898;" d="M307.767,262.491c0,64.993-52.688,117.681-117.681,117.681S72.405,327.484,72.405,262.491v-19.892
		c0-64.993,52.688-117.681,117.681-117.681s117.681,52.688,117.681,117.681V262.491z"/>
	<circle style="fill:#EE9BAC;" cx="272.009" cy="256.545" r="22.185"/>
	<circle style="fill:#EE9BAC;" cx="108.163" cy="256.545" r="22.185"/>
	<g>
		<path style="fill:#00BCB4;" d="M190.086,353.604c-44.332,0-80.398-36.067-80.398-80.398c0-9.515,7.714-17.227,17.229-17.227
			c9.515,0,17.228,7.712,17.228,17.227c0,25.333,20.609,45.942,45.941,45.942s45.942-20.609,45.942-45.942
			c0-9.515,7.712-17.227,17.228-17.227c9.515,0,17.229,7.712,17.229,17.227C270.484,317.538,234.417,353.604,190.086,353.604z"/>
		<path style="fill:#008780;" d="M190.086,339.247c-36.415,0-66.041-29.625-66.041-66.04c0-1.586,1.286-2.871,2.871-2.871
			c1.586,0,2.871,1.285,2.871,2.871c0,33.249,27.05,60.298,60.299,60.298s60.299-27.049,60.299-60.298
			c0-1.586,1.285-2.871,2.871-2.871c1.585,0,2.871,1.285,2.871,2.871C256.126,309.621,226.501,339.247,190.086,339.247z"/>
	</g>
	<circle style="fill:#1E252B;" cx="127.387" cy="209.77" r="10.672"/>
	<circle style="fill:#1E252B;" cx="252.785" cy="209.77" r="10.672"/>
	<circle style="fill:#D85C72;" cx="190.086" cy="242.175" r="30.628"/>
	<g>
		<path style="fill:#1E252B;" d="M208.776,82.396c-2.881,0-5.217-2.336-5.217-5.218V56.634c0-14.685-11.948-26.632-26.632-26.632
			c-2.882,0-5.218-2.336-5.218-5.218c0-2.881,2.336-5.217,5.218-5.217c20.439,0,37.067,16.628,37.067,37.068v20.543
			C213.995,80.06,211.658,82.396,208.776,82.396z"/>
		<circle style="fill:#EE9BAC;" cx="167.259" cy="24.784" r="24.784"/>
		<circle style="fill:#D85C72;" cx="167.258" cy="24.784" r="13.479"/>
		<g>
			<rect x="147.181" y="67.178" style="fill:#65513C;" width="85.811" height="48.841"/>
			<rect x="147.181" y="100.547" style="fill:#FFB819;" width="85.811" height="15.472"/>
			<rect x="134.797" y="116.018" style="fill:#65513C;" width="110.578" height="22.605"/>
		</g>
	</g>
</g>
<g>
</g>
<g>
</g>
<g>
</g>
<g>
</g>
<g>
</g>
<g>
</g>
<g>
</g>
<g>
</g>
<g>
</g>
<g>
</g>
<g>
</g>
<g>
</g>
<g>
</g>
<g>
</g>
<g>
</g>
</svg>
