<?xml version="1.0" encoding="iso-8859-1"?>
<!-- Generator: Adobe Illustrator 19.0.0, SVG Export Plug-In . SVG Version: 6.00 Build 0)  -->
<svg version="1.1" id="Layer_1" xmlns="http://www.w3.org/2000/svg" xmlns:xlink="http://www.w3.org/1999/xlink" x="0px" y="0px"
	 viewBox="0 0 503.689 503.689" style="enable-background:new 0 0 503.689 503.689;" xml:space="preserve">
<g transform="translate(4 9)">
	<path style="fill:#F2EDDA;" d="M433.76,72.178l31.573,116.907h-0.853l-162.987,43.52l0,0l-30.72-116.053L433.76,72.178z
		 M225.547,115.698l-30.72,116.053h-0.853L31.84,189.085l0,0L62.56,73.031L225.547,115.698z"/>
	<path style="fill:#FF7474;" d="M193.973,232.604c-5.973,23.04-17.92,49.493-41.813,64c-40.96,23.893-93.013,9.387-116.907-31.573
		c-13.653-23.893-11.093-52.907-4.267-75.947l0,0l162.133,42.667L193.973,232.604L193.973,232.604z M464.48,189.085
		c5.973,23.04,9.387,52.053-4.267,75.947c-23.893,40.96-75.947,54.613-116.907,31.573c-23.893-13.653-35.84-40.107-41.813-64
		L464.48,189.085L464.48,189.085z"/>
</g>
<path style="fill:#51565F;" d="M97.28,477.978h-0.853L3.413,453.231c-2.56-0.853-3.413-2.56-3.413-5.12s2.56-3.413,5.12-3.413
	l42.667,11.093l38.4-142.507c-20.48-6.827-38.4-20.48-50.347-40.107c-11.947-20.48-13.653-46.933-5.12-79.36
	c0.853-2.56,2.56-3.413,5.12-3.413l128,34.133c2.56,0.853,3.413,2.56,3.413,5.12c-0.853,2.56-2.56,3.413-5.12,3.413L38.4,199.791
	c-6.827,28.16-5.12,51.2,5.12,69.12c22.187,38.4,71.68,52.053,110.933,29.867c18.773-11.093,32.427-31.573,40.107-61.44
	l29.867-112.64L69.12,82.884l-20.48,77.653c-0.853,2.56-2.56,3.413-5.12,3.413c-2.56-0.853-3.413-2.56-3.413-5.12l22.187-81.92
	c0.853-2.56,2.56-3.413,5.12-3.413l162.987,43.52c0.853,0,1.707,0.853,2.56,1.707c0.853,0.853,0.853,2.56,0,3.413l-31.573,116.907
	c-8.533,32.427-23.04,54.613-44.373,66.56c-20.48,11.947-42.667,14.507-64,10.24l-38.4,142.507l42.667,11.093
	c2.56,0.853,3.413,2.56,3.413,5.12C101.547,477.124,98.987,477.978,97.28,477.978z M406.187,477.978
	c-1.707,0-3.413-0.853-4.267-3.413c-0.853-2.56,0.853-4.267,3.413-5.12L448,458.351l-38.4-142.507
	c-21.333,4.267-43.52,1.707-64-10.24c-20.48-11.947-35.84-34.133-44.373-66.56c0-0.853,0-2.56,0.853-3.413
	c0.853-0.853,1.707-1.707,2.56-1.707l128-34.133c2.56-0.853,4.267,0.853,5.12,3.413c0.853,2.56-0.853,4.267-3.413,5.12
	l-123.733,33.28c8.533,27.307,21.333,46.933,39.253,57.173c38.4,22.187,88.747,9.387,110.933-29.867
	c11.093-18.773,11.947-43.52,4.267-72.533L435.2,83.738l-155.307,41.813l20.48,77.653c0.853,2.56-0.853,4.267-3.413,5.12
	c-2.56,0.853-4.267-0.853-5.12-3.413l-22.187-81.92c0-0.853,0-2.56,0.853-3.413c0.853-0.853,1.707-1.707,2.56-1.707l162.987-43.52
	c0.853,0,2.56,0,3.413,0c0.853,0.853,1.707,1.707,1.707,2.56l31.573,116.907c8.533,32.427,6.827,58.88-5.12,79.36
	c-11.947,20.48-29.867,34.133-50.347,40.107l38.4,142.507l42.667-11.093c2.56-0.853,4.267,0.853,5.12,3.413s-0.853,4.267-3.413,5.12
	l-93.013,24.747C407.04,477.978,406.187,477.978,406.187,477.978z M281.6,81.178c-0.853,0-2.56,0-3.413-0.853
	c-1.707-1.707-1.707-4.267,0-5.973l23.893-23.893c1.707-1.707,4.267-1.707,5.973,0c1.707,1.707,1.707,4.267,0,5.973L284.16,80.324
	C284.16,80.324,283.307,81.178,281.6,81.178z M221.867,81.178c-0.853,0-2.56,0-3.413-0.853L194.56,56.431
	c-1.707-1.707-1.707-4.267,0-5.973c1.707-1.707,4.267-1.707,5.973,0l23.893,23.893c1.707,1.707,1.707,4.267,0,5.973
	C223.573,80.324,222.72,81.178,221.867,81.178z M251.733,68.378c-2.56,0-4.267-1.707-4.267-4.267V29.978
	c0-2.56,1.707-4.267,4.267-4.267c2.56,0,4.267,1.707,4.267,4.267v34.133C256,66.671,254.293,68.378,251.733,68.378z"/>
<g>
</g>
<g>
</g>
<g>
</g>
<g>
</g>
<g>
</g>
<g>
</g>
<g>
</g>
<g>
</g>
<g>
</g>
<g>
</g>
<g>
</g>
<g>
</g>
<g>
</g>
<g>
</g>
<g>
</g>
</svg>
