<?xml version="1.0" encoding="iso-8859-1"?>
<!-- Generator: Adobe Illustrator 19.0.0, SVG Export Plug-In . SVG Version: 6.00 Build 0)  -->
<svg version="1.1" id="Layer_1" xmlns="http://www.w3.org/2000/svg" xmlns:xlink="http://www.w3.org/1999/xlink" x="0px" y="0px"
	 viewBox="0 0 511.999 511.999" style="enable-background:new 0 0 511.999 511.999;" xml:space="preserve">
<polygon style="fill:#3EBD91;" points="386.591,10.447 125.41,10.447 125.41,186.558 175.365,260.137 340.815,260.137 
	386.591,186.558 "/>
<rect x="177.646" y="10.447" style="fill:#ECF0F1;" width="156.709" height="249.69"/>
<rect x="219.435" y="10.531" style="fill:#3EBD91;" width="73.131" height="249.523"/>
<ellipse style="fill:#F8C660;" cx="256.001" cy="363.22" rx="138.426" ry="138.332"/>
<path style="fill:#ECF0F1;" d="M186.884,339.057l63.728-63.86c5.973-5.984,14.963-7.78,22.776-4.549
	c7.814,3.231,12.909,10.854,12.909,19.308v165.545h-41.789V340.475l-28.044,28.102L186.884,339.057z"/>
<g>
	<path style="fill:#231F20;" d="M356.924,253.951l38.535-61.87c1.032-1.658,1.58-3.571,1.58-5.523V10.364
		C397.039,4.595,392.362,0,386.591,0H125.41c-5.77,0-10.447,4.595-10.447,10.364v176.193c0,2.095,0.63,4.14,1.806,5.872
		l40.48,59.556c-30.725,27.274-50.123,67.029-50.123,111.233c0,82.037,66.784,148.781,148.874,148.781
		s148.874-66.743,148.874-148.781C404.874,320.066,386.389,281.152,356.924,253.951z M376.144,183.57l-31.342,50.32V20.895h31.342
		V183.57z M323.908,230.841c-6.687-3.44-13.669-6.384-20.895-8.793V20.895h20.895V230.841z M282.119,20.895v195.839
		c-8.482-1.507-17.21-2.294-26.118-2.294c-8.908,0-17.636,0.788-26.118,2.294V20.895H282.119z M208.988,20.895v201.152
		c-7.225,2.409-14.207,5.354-20.895,8.793V20.895H208.988z M135.857,20.895h31.342v208.56l-31.342-46.111V20.895z M256.001,491.105
		c-70.568,0-127.979-57.369-127.979-127.886c0-70.516,57.411-127.885,127.979-127.885S383.98,292.703,383.98,363.219
		C383.98,433.736,326.569,491.105,256.001,491.105z"/>
	<path style="fill:#231F20;" d="M277.382,261c-11.759-4.867-25.172-2.185-34.164,6.826l-63.728,63.868
		c-4.075,4.084-4.069,10.714,0.015,14.79l29.579,29.593c1.959,1.955,4.614,3.158,7.38,3.158c0.003,0,0.007,0,0.01,0
		c2.771,0,5.427-1.212,7.384-3.174l10.202-10.328v89.685c0,5.769,4.677,10.531,10.447,10.531h41.789
		c5.77,0,10.447-4.761,10.447-10.531V289.957C296.745,277.228,289.143,265.863,277.382,261z M275.85,445.054h-20.895V340.475
		c0-4.228-2.547-8.038-6.454-9.654c-3.908-1.615-8.402-0.718-11.389,2.275l-20.664,20.707l-14.79-14.76l56.348-56.464
		c2.998-3.005,7.469-3.898,11.389-2.274c3.921,1.621,6.454,5.411,6.454,9.653V445.054z"/>
</g>
<g>
</g>
<g>
</g>
<g>
</g>
<g>
</g>
<g>
</g>
<g>
</g>
<g>
</g>
<g>
</g>
<g>
</g>
<g>
</g>
<g>
</g>
<g>
</g>
<g>
</g>
<g>
</g>
<g>
</g>
</svg>
