<?xml version="1.0" encoding="iso-8859-1"?>
<!-- Generator: Adobe Illustrator 19.0.0, SVG Export Plug-In . SVG Version: 6.00 Build 0)  -->
<svg version="1.1" id="Layer_1" xmlns="http://www.w3.org/2000/svg" xmlns:xlink="http://www.w3.org/1999/xlink" x="0px" y="0px"
	 viewBox="0 0 512 512" style="enable-background:new 0 0 512 512;" xml:space="preserve">
<path style="fill:#FFD46E;" d="M378.553,8.17l-54.468,495.66h32.681c17.974,0,33.327-14.692,34.116-32.649L411.234,8.17H378.553z"/>
<path style="fill:#FFE9B7;" d="M358.201,471.181L378.553,8.17c-0.032,0-122.556,32.681-122.556,32.681L133.477,8.17h-32.711
	l20.353,463.01c0.789,17.957,16.141,32.649,34.116,32.649h168.851C342.06,503.83,357.412,489.138,358.201,471.181z"/>
<polygon style="fill:#FFBE26;" points="378.522,9.804 345.77,9.804 320.947,107.847 377.086,40.851 "/>
<polygon style="fill:#FFD46E;" points="133.478,9.804 134.914,40.851 195.454,107.847 342.734,107.847 345.77,9.804 "/>
<path style="fill:#FDCEC0;" d="M343.833,53.863l-43.146,192.303l26.241,192.302h32.681l17.478-397.617
	C359.974,40.851,352.534,47.811,343.833,53.863z"/>
<path style="fill:#FFFFFF;" d="M316.539,62.638c-30.273,0-30.273-21.787-60.547-21.787c-30.269,0-30.269,21.787-60.538,21.787
	c-30.27,0-30.27-21.787-60.54-21.787l17.478,397.617h174.535l16.906-384.605C337.14,58.519,329.701,62.638,316.539,62.638z"/>
<circle cx="222.676" cy="397.617" r="8.17"/>
<circle cx="291.339" cy="299.574" r="8.17"/>
<circle cx="189.996" cy="364.936" r="8.17"/>
<path d="M417.137,2.521C415.596,0.911,413.463,0,411.234,0H100.766c-2.229,0-4.362,0.911-5.903,2.521
	c-1.54,1.611-2.357,3.781-2.259,6.008l20.353,463.01c0.98,22.31,19.946,40.461,42.278,40.461h201.532
	c22.332,0,41.298-18.151,42.279-40.461L419.397,8.53C419.495,6.302,418.678,4.132,417.137,2.521z M369.245,33.169
	c-12.802,1.61-20.396,7.044-27.205,11.945c-7.263,5.226-12.998,9.354-25.501,9.354c-12.503,0-18.238-4.129-25.501-9.354
	c-8.097-5.828-17.274-12.433-35.046-12.433c-17.77,0-26.945,6.605-35.043,12.433c-7.261,5.226-12.995,9.354-25.495,9.354
	c-12.502,0-18.236-4.129-25.498-9.354c-6.807-4.9-14.4-10.334-27.201-11.945l-0.74-16.828h227.97L369.245,33.169z M382.719,470.821
	c-0.602,13.695-12.244,24.839-25.953,24.839H155.234c-13.709,0-25.351-11.143-25.953-24.839L109.303,16.34h16.355l18.571,422.486
	c0.193,4.368,3.79,7.812,8.163,7.812h207.216c4.373,0,7.97-3.443,8.163-7.812l1.436-32.681c0.198-4.508-3.295-8.323-7.804-8.521
	c-4.486-0.185-8.323,3.295-8.521,7.804l-1.092,24.869H160.211L143.487,49.823c7.03,1.443,11.565,4.696,16.923,8.553
	c8.097,5.828,17.273,12.433,35.044,12.433c17.77,0,26.945-6.605,35.043-12.433c7.261-5.226,12.996-9.354,25.495-9.354
	c12.503,0,18.238,4.129,25.501,9.354c8.097,5.828,17.275,12.433,35.046,12.433c17.771,0,26.949-6.605,35.046-12.433
	c5.361-3.857,9.897-7.111,16.928-8.554l-14.194,322.925c-0.198,4.508,3.295,8.324,7.804,8.521c0.122,0.005,0.244,0.008,0.365,0.008
	c4.347,0,7.963-3.426,8.156-7.811L386.342,16.34h16.355L382.719,470.821z"/>
<g>
</g>
<g>
</g>
<g>
</g>
<g>
</g>
<g>
</g>
<g>
</g>
<g>
</g>
<g>
</g>
<g>
</g>
<g>
</g>
<g>
</g>
<g>
</g>
<g>
</g>
<g>
</g>
<g>
</g>
</svg>
