<?xml version="1.0" encoding="iso-8859-1"?>
<!-- Generator: Adobe Illustrator 19.0.0, SVG Export Plug-In . SVG Version: 6.00 Build 0)  -->
<svg version="1.1" id="Layer_1" xmlns="http://www.w3.org/2000/svg" xmlns:xlink="http://www.w3.org/1999/xlink" x="0px" y="0px"
	 viewBox="0 0 512 512" style="enable-background:new 0 0 512 512;" xml:space="preserve">
<ellipse style="fill:#9AD14B;" cx="255.996" cy="255.996" rx="246.611" ry="220.808"/>
<path style="fill:#B27214;" d="M256.001,486.192c-68.187,0-132.341-23.818-180.643-67.066C26.762,375.618,0,317.685,0,256
	S26.762,136.384,75.357,92.874c48.304-43.248,112.456-67.066,180.643-67.066c68.186,0,132.34,23.818,180.642,67.066
	C485.238,136.384,512,194.316,512,256s-26.762,119.616-75.357,163.126C388.341,462.374,324.186,486.192,256.001,486.192z
	 M256.001,44.579C125.191,44.579,18.77,139.422,18.77,256s106.421,211.422,237.231,211.422c130.808,0,237.23-94.844,237.23-211.422
	S386.809,44.579,256.001,44.579z"/>
<ellipse style="fill:#D1EF9C;" cx="256.621" cy="256.622" rx="72.952" ry="81.474"/>
<path style="fill:#333333;" d="M256.425,380.015c-0.025,0-0.038,0-0.063,0l0,0c-5.18-0.013-9.372-4.229-9.36-9.41l0,0
	c0.013-5.181,4.229-9.372,9.41-9.36l0,0c0.038,0,0.063,0,0.1,0l0,0c0.038,0,0.075,0,0.125,0l0,0c5.18,0,9.385,4.204,9.385,9.385l0,0
	c0,5.181-4.204,9.385-9.385,9.385l0,0C256.563,380.015,256.487,380.015,256.425,380.015z M287.182,365.975
	c-2.165-4.717-0.088-10.286,4.617-12.451l0,0c4.717-2.152,10.286-0.088,12.438,4.63l0,0c2.165,4.705,0.1,10.286-4.617,12.438l0,0
	c-1.264,0.576-2.59,0.851-3.904,0.851l0,0C292.163,371.443,288.759,369.416,287.182,365.975z M213.404,370.48
	c-4.705-2.177-6.77-7.746-4.592-12.451l0,0c2.165-4.705,7.746-6.77,12.451-4.592l0,0c4.705,2.165,6.757,7.746,4.592,12.451l0,0
	c-1.589,3.429-4.98,5.456-8.521,5.456l0,0C216.007,371.343,214.681,371.068,213.404,370.48z M321.694,345.328
	c-3.792-3.529-4.004-9.473-0.476-13.264l0,0c3.529-3.792,9.46-4.004,13.264-0.476l0,0c3.792,3.529,4.004,9.46,0.476,13.264l0,0
	c-1.852,1.99-4.355,2.991-6.87,2.991l0,0C325.798,347.843,323.508,347.005,321.694,345.328z M178.13,344.652
	c-3.529-3.804-3.303-9.748,0.513-13.264l0,0c3.804-3.529,9.735-3.291,13.251,0.513l0,0c3.529,3.804,3.291,9.735-0.513,13.264l0,0
	c-1.802,1.664-4.092,2.49-6.369,2.49l0,0C182.497,347.656,179.969,346.642,178.13,344.652z M346.145,313.357
	c-4.768-2.015-6.995-7.52-4.98-12.301l0,0c2.027-4.768,7.533-6.995,12.313-4.98l0,0c4.768,2.027,6.995,7.533,4.98,12.301l0,0
	c-1.514,3.579-4.993,5.731-8.647,5.731l0,0C348.585,314.108,347.346,313.87,346.145,313.357z M154.705,308.126
	c-2.002-4.768,0.238-10.273,5.018-12.288l0,0c4.768-2.015,10.273,0.225,12.288,5.005l0,0l0,0l0,0
	c2.015,4.78-0.225,10.286-5.005,12.288l0,0c-1.189,0.501-2.428,0.738-3.641,0.738l0,0
	C159.698,313.87,156.219,311.718,154.705,308.126z M358.533,275.054c-5.168-0.4-9.022-4.918-8.622-10.086l0,0l0,0l0,0
	c0.4-5.168,4.918-9.035,10.086-8.634l0,0c5.168,0.413,9.035,4.918,8.622,10.086l0,0c-0.375,4.93-4.492,8.659-9.347,8.659l0,0
	C359.033,275.079,358.783,275.066,358.533,275.054z M144.632,266.157c-0.4-5.168,3.466-9.685,8.634-10.073l0,0
	c5.168-0.388,9.685,3.479,10.073,8.647l0,0c0.4,5.168-3.479,9.673-8.647,10.073l0,0c-0.238,0.013-0.476,0.025-0.726,0.025l0,0
	C149.111,274.829,144.995,271.075,144.632,266.157z M347.021,227.842c-1.214-5.03,1.89-10.098,6.932-11.312l0,0
	c5.043-1.214,10.111,1.889,11.324,6.932l0,0c1.201,5.043-1.902,10.111-6.932,11.312l0,0c-0.738,0.175-1.477,0.263-2.202,0.263l0,0
	C351.901,235.037,348.059,232.146,347.021,227.842z M154.968,234.524c-5.03-1.214-8.121-6.294-6.907-11.324l0,0
	c1.226-5.043,6.294-8.134,11.337-6.907l0,0c5.03,1.214,8.121,6.294,6.907,11.324l0,0l0,0l0,0c-1.051,4.292-4.88,7.183-9.11,7.183
	l0,0C156.457,234.799,155.718,234.711,154.968,234.524z M332.58,193.755c-2.79-4.367-1.514-10.173,2.853-12.964l0,0
	c4.355-2.803,10.161-1.527,12.964,2.84l0,0c2.79,4.355,1.514,10.161-2.853,12.964l0,0c-1.564,1.001-3.316,1.477-5.043,1.477l0,0
	C337.41,198.073,334.382,196.546,332.58,193.755z M167.844,196.371c-4.367-2.803-5.618-8.609-2.815-12.976l0,0
	c2.803-4.355,8.609-5.618,12.964-2.815l0,0c4.367,2.803,5.618,8.622,2.815,12.976l0,0c-1.789,2.79-4.818,4.305-7.896,4.305l0,0
	C171.172,197.86,169.408,197.384,167.844,196.371z M307.604,166.902c-4.179-3.066-5.08-8.947-2.015-13.114l0,0
	c3.066-4.179,8.947-5.08,13.126-2.015l0,0c4.167,3.066,5.068,8.934,2.002,13.114l0,0c-1.839,2.503-4.68,3.829-7.57,3.829l0,0
	C311.22,168.716,309.281,168.128,307.604,166.902z M192.732,164.725c-3.053-4.179-2.14-10.061,2.04-13.114l0,0
	c4.192-3.053,10.061-2.14,13.114,2.04l0,0c3.066,4.192,2.152,10.061-2.04,13.114l0,0c-1.664,1.226-3.604,1.814-5.518,1.814l0,0
	C197.425,168.579,194.572,167.24,192.732,164.725z M274.732,151.849c-5.055-1.126-8.259-6.131-7.133-11.187l0,0
	c1.114-5.068,6.119-8.259,11.187-7.145l0,0c5.055,1.126,8.259,6.131,7.133,11.199l0,0c-0.964,4.367-4.843,7.358-9.16,7.358l0,0
	C276.096,152.074,275.407,151.999,274.732,151.849z M227.582,144.629c-1.101-5.055,2.115-10.061,7.17-11.174l0,0
	c5.068-1.101,10.073,2.115,11.174,7.17l0,0c1.101,5.068-2.102,10.073-7.17,11.174l0,0c-0.676,0.15-1.351,0.213-2.002,0.213l0,0
	C232.437,152.011,228.545,149.021,227.582,144.629z"/>
<g>
</g>
<g>
</g>
<g>
</g>
<g>
</g>
<g>
</g>
<g>
</g>
<g>
</g>
<g>
</g>
<g>
</g>
<g>
</g>
<g>
</g>
<g>
</g>
<g>
</g>
<g>
</g>
<g>
</g>
</svg>
