<?xml version="1.0" encoding="iso-8859-1"?>
<!-- Generator: Adobe Illustrator 19.0.0, SVG Export Plug-In . SVG Version: 6.00 Build 0)  -->
<svg version="1.1" id="Layer_1" xmlns="http://www.w3.org/2000/svg" xmlns:xlink="http://www.w3.org/1999/xlink" x="0px" y="0px"
	 viewBox="0 0 512 512" style="enable-background:new 0 0 512 512;" xml:space="preserve">
<path style="fill:#9A4C00;" d="M247.294,117.215c-0.567-1.761-5.47-17.848-3.094-40.081c2.215-20.731,11.436-50.94,42.783-77.133
	l20.038,23.981c-44.335,37.045-30.13,83.196-29.981,83.658L247.294,117.215z"/>
<path style="fill:#00A653;" d="M277.828,37.386l-3.989,10.76c-0.782,2.084-8.209,20.751-30.574,34.011
	c-14.531,8.626-31.584,12.938-51.001,12.938c-18.459,0-39.074-3.907-61.699-11.699l-21.615-7.448l14.792-17.437
	c0.719-0.843,17.793-20.772,43.344-34.417c36.23-19.365,71.386-17.198,101.669,6.261L277.828,37.386z"/>
<path style="fill:#008040;" d="M277.828,37.386l-3.989,10.76c-0.782,2.084-8.209,20.751-30.574,34.011
	c-14.531,8.626-31.584,12.938-51.001,12.938c-18.459,0-39.074-3.907-61.699-11.699l-21.615-7.448L277.828,37.386z"/>
<path style="fill:#E5FEBF;" d="M259.629,496.375c-111.231,0-132.961-94.575-126.878-168.441
	c6.083-73.866,53.886-119.919,70.397-172.055c16.51-52.147,56.48-43.449,56.48-43.449s39.969-8.698,56.48,43.449
	c16.51,52.136,64.313,98.189,70.397,172.055C392.59,401.8,370.86,496.375,259.629,496.375z"/>
<path style="fill:#D5FE9B;" d="M259.629,496.375V112.43c0,0,39.969-8.698,56.48,43.449c16.51,52.136,64.313,98.189,70.397,172.055
	C392.59,401.8,370.86,496.375,259.629,496.375z"/>
<path style="fill:#00A653;" d="M402.08,326.653c-4.083-49.48-25.448-87.137-44.313-120.357
	c-10.813-19.063-21.032-37.064-26.761-55.136c-10.448-33.022-29.709-46.105-44.032-51.262c-11.76-4.24-22.168-3.865-27.344-3.26
	c-5.167-0.604-15.584-0.979-27.344,3.26c-14.323,5.157-33.584,18.24-44.032,51.262c-5.729,18.074-15.948,36.074-26.761,55.136
	c-18.865,33.219-40.23,70.876-44.313,120.357c-2.895,35.219-1.729,100.866,38.678,144.742C180.682,498.333,215.589,512,259.631,512
	s78.949-13.667,103.773-40.605c32.574-35.376,39.647-84.888,39.647-121.21C403.048,341.455,402.642,333.476,402.08,326.653z
	 M340.412,450.217c-18.657,20.261-45.834,30.532-80.783,30.532s-62.126-10.271-80.783-30.532
	c-32.334-35.104-33.001-90.877-30.521-121.002c3.511-42.605,22.24-75.595,40.345-107.492c11.646-20.531,22.657-39.928,29.375-61.127
	c5.104-16.146,13.073-26.522,23.667-30.855c4.49-1.834,8.666-2.229,11.437-2.229c1.719,0,2.906,0.156,3.281,0.208l2.937,0.75
	l0.26-0.052l3.323-0.729c0.052-0.01,6.188-1,13.427,1.604c11.177,4.031,19.542,14.563,24.834,31.303
	c6.719,21.199,17.73,40.594,29.375,61.127c9.052,15.948,18.261,32.167,25.646,49.73c7.385,17.563,12.938,36.459,14.699,57.762
	C373.413,359.341,372.746,415.123,340.412,450.217z"/>
<path style="fill:#A17852;" d="M325.256,346.455c0,21.168-6.312,41.23-17.772,56.511c-12.282,16.386-29.729,25.782-47.855,25.782
	s-35.574-9.396-47.855-25.782c-11.458-15.282-17.772-35.345-17.772-56.511s6.313-41.24,17.772-56.522
	c12.282-16.376,29.729-25.771,47.855-25.771s35.574,9.396,47.855,25.771C318.943,305.215,325.256,325.288,325.256,346.455z"/>
<path style="fill:#8A6746;" d="M325.256,346.455c0,21.168-6.312,41.23-17.772,56.511c-12.282,16.386-29.729,25.782-47.855,25.782
	V264.162c18.126,0,35.574,9.396,47.855,25.771C318.943,305.215,325.256,325.288,325.256,346.455z"/>
<path style="fill:#008040;" d="M403.048,350.184c0,36.324-7.073,85.835-39.647,121.21C338.578,498.333,303.671,512,259.629,512
	v-31.251c34.949,0,62.126-10.271,80.783-30.532c32.334-35.094,33.001-90.877,30.521-121.002
	c-1.761-21.302-7.312-40.198-14.699-57.762c-7.385-17.563-16.594-33.782-25.646-49.73c-11.646-20.531-22.657-39.928-29.375-61.127
	c-5.291-16.74-13.657-27.271-24.834-31.303c-7.24-2.604-13.376-1.614-13.427-1.604l-3.323,0.729V96.638
	c5.177-0.604,15.584-0.979,27.344,3.26c14.323,5.157,33.584,18.24,44.032,51.262c5.729,18.074,15.948,36.074,26.761,55.136
	c18.865,33.219,40.23,70.876,44.313,120.357C402.642,333.476,403.048,341.455,403.048,350.184z"/>
<g>
</g>
<g>
</g>
<g>
</g>
<g>
</g>
<g>
</g>
<g>
</g>
<g>
</g>
<g>
</g>
<g>
</g>
<g>
</g>
<g>
</g>
<g>
</g>
<g>
</g>
<g>
</g>
<g>
</g>
</svg>
