<?xml version="1.0" encoding="utf-8"?>
<!-- Generator: Adobe Illustrator 16.0.0, SVG Export Plug-In . SVG Version: 6.00 Build 0)  -->
<!DOCTYPE svg PUBLIC "-//W3C//DTD SVG 1.1//EN" "http://www.w3.org/Graphics/SVG/1.1/DTD/svg11.dtd">
<svg xmlns="http://www.w3.org/2000/svg" xmlns:xlink="http://www.w3.org/1999/xlink" version="1.1" id="Layer_1" x="0px" y="0px" width="512" height="512" viewBox="0 0 512 512" enable-background="new 0 0 512 512" xml:space="preserve">
<g id="canned_fish_2">
	<path fill="#E5E8EC" d="M106.675,287.999v191.997c0,17.671,66.858,31.999,149.325,31.999c82.468,0,149.325-14.328,149.325-31.999   V287.999H106.675z"/>
	<path fill="#A9B1BC" d="M256,256c-64.702,0-117.326-52.632-117.326-117.334C138.674,73.972,191.298,21.34,256,21.34   c64.702,0,117.325,52.632,117.325,117.326C373.325,203.368,320.702,256,256,256z"/>
	<g>
		<path fill="#CBD0D8" d="M256,96.003c-23.562,0-42.671,19.102-42.671,42.663c0,23.57,19.109,42.671,42.671,42.671    c23.562,0,42.671-19.101,42.671-42.671C298.671,115.104,279.562,96.003,256,96.003z M256,160.002    c-11.766,0-21.328-9.57-21.328-21.336c0-11.757,9.562-21.328,21.328-21.328s21.327,9.57,21.327,21.328    C277.327,150.432,267.766,160.002,256,160.002z"/>
		<path fill="#CBD0D8" d="M256,53.34c-47.124,0-85.327,38.202-85.327,85.326C170.673,185.798,208.876,224,256,224    s85.327-38.203,85.327-85.334C341.327,91.542,303.124,53.34,256,53.34z M256,202.665c-35.296,0-63.999-28.71-63.999-63.999    c0-35.288,28.703-63.999,63.999-63.999c35.28,0,63.999,28.71,63.999,63.999C319.999,173.955,291.28,202.665,256,202.665z"/>
	</g>
	<path fill="#CBD0D8" d="M383.997,149.33c5.891,0,10.672-4.773,10.672-10.664s-4.781-10.664-10.672-10.664   c-0.156,0-0.297,0.015-0.438,0.023c-0.344-4.093-0.859-8.125-1.578-12.093c0.141-0.031,0.281-0.055,0.406-0.094   c5.703-1.523,9.078-7.367,7.547-13.062c-1.516-5.688-7.375-9.062-13.062-7.539c-0.125,0.039-0.266,0.086-0.391,0.125   c-1.391-3.844-2.953-7.602-4.672-11.266c0.125-0.062,0.25-0.117,0.375-0.188c5.094-2.953,6.844-9.468,3.906-14.57   c-2.953-5.109-9.468-6.851-14.577-3.906c-0.125,0.07-0.25,0.156-0.375,0.234c-2.312-3.335-4.797-6.562-7.422-9.664   c0.109-0.102,0.219-0.195,0.328-0.305c4.172-4.164,4.172-10.914,0-15.078c-4.156-4.172-10.921-4.172-15.077-0.008   c-0.109,0.109-0.203,0.227-0.312,0.336c-3.094-2.625-6.312-5.102-9.656-7.43c0.078-0.125,0.156-0.242,0.234-0.367   c2.953-5.102,1.203-11.625-3.906-14.57c-5.094-2.945-11.625-1.203-14.562,3.898c-0.078,0.125-0.125,0.258-0.203,0.383   c-3.656-1.734-7.422-3.297-11.266-4.672c0.047-0.133,0.094-0.266,0.125-0.398c1.531-5.695-1.844-11.539-7.531-13.062   c-5.688-1.531-11.547,1.852-13.062,7.539c-0.047,0.141-0.062,0.273-0.094,0.414c-3.969-0.711-8-1.234-12.093-1.57   c0.016-0.148,0.031-0.289,0.031-0.445c0-5.891-4.781-10.664-10.672-10.664s-10.672,4.773-10.672,10.664   c0,0.156,0.016,0.297,0.031,0.445c-4.093,0.336-8.125,0.859-12.093,1.57c-0.031-0.141-0.047-0.273-0.094-0.414   c-1.516-5.688-7.375-9.062-13.062-7.539c-5.687,1.523-9.062,7.375-7.546,13.062c0.047,0.133,0.094,0.266,0.125,0.398   c-3.844,1.383-7.594,2.938-11.25,4.672c-0.078-0.125-0.125-0.258-0.203-0.375c-2.938-5.102-9.468-6.852-14.562-3.906   c-5.109,2.945-6.859,9.468-3.906,14.57c0.078,0.125,0.156,0.25,0.234,0.375c-3.344,2.32-6.562,4.797-9.672,7.422   c-0.094-0.109-0.188-0.219-0.297-0.328c-4.156-4.172-10.921-4.172-15.078,0c-4.172,4.164-4.172,10.914,0,15.078   c0.109,0.109,0.219,0.203,0.328,0.305c-2.625,3.102-5.109,6.328-7.422,9.671c-0.125-0.078-0.25-0.164-0.375-0.242   c-5.109-2.945-11.625-1.195-14.578,3.906c-2.938,5.102-1.188,11.625,3.906,14.57c0.125,0.07,0.25,0.125,0.375,0.188   c-1.719,3.664-3.281,7.422-4.672,11.266c-0.125-0.039-0.266-0.086-0.391-0.125c-5.688-1.523-11.547,1.852-13.062,7.539   c-1.531,5.695,1.844,11.539,7.531,13.062c0.141,0.039,0.281,0.062,0.422,0.094c-0.719,3.969-1.234,8.008-1.578,12.093   c-0.141-0.008-0.281-0.023-0.438-0.023c-5.891,0-10.672,4.773-10.672,10.664s4.781,10.664,10.672,10.672   c0.156,0,0.297-0.016,0.438-0.023c0.344,4.086,0.859,8.117,1.578,12.094c-0.141,0.031-0.281,0.047-0.422,0.086   c-5.688,1.523-9.062,7.375-7.531,13.062c1.516,5.687,7.375,9.062,13.062,7.546c0.125-0.039,0.266-0.094,0.391-0.133   c1.391,3.844,2.953,7.602,4.672,11.266c-0.125,0.07-0.25,0.125-0.375,0.195c-5.094,2.945-6.844,9.469-3.906,14.57   c2.953,5.102,9.468,6.852,14.578,3.906c0.125-0.078,0.234-0.164,0.359-0.242c2.328,3.344,4.812,6.57,7.438,9.664   c-0.109,0.102-0.219,0.195-0.328,0.305c-4.172,4.164-4.172,10.921,0,15.085c4.156,4.164,10.906,4.164,15.078,0   c0.109-0.109,0.203-0.227,0.297-0.336c3.109,2.625,6.328,5.109,9.672,7.43c-0.078,0.125-0.156,0.242-0.234,0.367   c-2.953,5.109-1.203,11.625,3.906,14.578c5.094,2.945,11.609,1.195,14.562-3.906c0.078-0.125,0.125-0.25,0.188-0.375   c3.672,1.727,7.422,3.289,11.266,4.672c-0.031,0.133-0.078,0.258-0.125,0.391c-1.516,5.695,1.859,11.539,7.546,13.07   c5.688,1.516,11.531-1.852,13.062-7.539c0.031-0.141,0.062-0.281,0.094-0.422c3.969,0.719,8,1.234,12.093,1.578   c-0.016,0.141-0.031,0.289-0.031,0.438c0,5.898,4.781,10.68,10.672,10.68s10.672-4.781,10.672-10.68   c0-0.148-0.016-0.297-0.031-0.438c4.093-0.344,8.124-0.859,12.093-1.578c0.031,0.141,0.047,0.281,0.094,0.414   c1.516,5.695,7.375,9.062,13.062,7.547c5.688-1.523,9.062-7.375,7.547-13.062c-0.047-0.141-0.094-0.266-0.125-0.398   c3.844-1.383,7.594-2.945,11.25-4.672c0.078,0.125,0.125,0.25,0.203,0.375c2.938,5.102,9.469,6.844,14.562,3.906   c5.109-2.945,6.859-9.469,3.906-14.578c-0.078-0.125-0.156-0.242-0.234-0.367c3.344-2.32,6.562-4.805,9.672-7.43   c0.094,0.109,0.188,0.227,0.297,0.336c4.156,4.164,10.921,4.164,15.077,0c4.172-4.164,4.172-10.921,0-15.085   c-0.109-0.109-0.219-0.203-0.328-0.305c2.625-3.094,5.109-6.32,7.438-9.664c0.109,0.078,0.234,0.164,0.359,0.234   c5.109,2.953,11.624,1.203,14.577-3.898c2.938-5.102,1.188-11.625-3.906-14.57c-0.125-0.07-0.25-0.125-0.375-0.195   c1.719-3.664,3.281-7.422,4.672-11.266c0.125,0.039,0.266,0.094,0.391,0.125c5.688,1.523,11.547-1.852,13.062-7.539   c1.531-5.688-1.844-11.539-7.531-13.062c-0.141-0.039-0.281-0.055-0.422-0.086c0.719-3.977,1.234-8.008,1.578-12.094   C383.7,149.314,383.841,149.33,383.997,149.33z M256,245.336c-28.5,0-55.28-11.094-75.42-31.241   c-20.156-20.148-31.25-46.937-31.25-75.429c0-28.491,11.094-55.272,31.25-75.42C200.72,43.098,227.5,32.004,256,32.004   c28.499,0,55.28,11.094,75.421,31.242c20.155,20.147,31.249,46.929,31.249,75.42c0,28.492-11.094,55.28-31.249,75.429   C311.28,234.242,284.499,245.336,256,245.336z"/>
	<g>
		<ellipse fill="#CBD0D8" cx="256" cy="287.999" rx="149.325" ry="31.999"/>
	</g>
	<path fill="#EC5564" d="M256,341.342c-82.467,0-149.325-14.344-149.325-31.999v149.31c0,17.688,66.858,32,149.325,32   c82.468,0,149.325-14.312,149.325-32v-149.31C405.325,326.998,338.468,341.342,256,341.342z"/>
	<g>
		<path fill="#FECD57" d="M292.124,448.027c-13.578,0-85.717-11.688-85.717-11.688l-36.218,11.453l12.047-37.327l-12.422-47.812    l36.593,25.406c0,0,63.092-11.562,85.717-11.562s48.672,23.343,48.672,35.765C340.796,424.684,305.702,448.027,292.124,448.027z"/>
	</g>
	<path fill="#424953" d="M309.327,405.341c0,5.875-4.766,10.656-10.656,10.656s-10.672-4.781-10.672-10.656   c0-5.906,4.781-10.688,10.672-10.688S309.327,399.435,309.327,405.341z"/>
	<path fill="#E8563F" d="M118.44,300.468c22.687,11.484,75.733,19.53,137.56,19.53s114.873-8.046,137.56-19.53v-12.469H118.44   V300.468z"/>
	<path fill="#FB6D51" d="M256,309.343c35.858,0,70.296-2.797,96.967-7.859c12.625-2.391,22.952-5.172,30.702-8.266   c5.5-2.188,8.406-4.031,9.891-5.219c-1.484-1.172-4.391-3.031-9.891-5.219c-7.75-3.093-18.077-5.874-30.702-8.265   c-26.671-5.062-61.108-7.852-96.967-7.852c-35.859,0-70.295,2.789-96.967,7.852c-12.625,2.391-22.953,5.172-30.703,8.265   c-5.5,2.188-8.406,4.047-9.891,5.219c1.484,1.188,4.391,3.031,9.891,5.219c7.75,3.094,18.078,5.875,30.703,8.266   C185.705,306.546,220.141,309.343,256,309.343z"/>
</g>
</svg>
