<?xml version="1.0" encoding="iso-8859-1"?>
<!-- Generator: Adobe Illustrator 19.0.0, SVG Export Plug-In . SVG Version: 6.00 Build 0)  -->
<svg version="1.1" id="Layer_1" xmlns="http://www.w3.org/2000/svg" xmlns:xlink="http://www.w3.org/1999/xlink" x="0px" y="0px"
	 viewBox="0 0 398.98 398.98" style="enable-background:new 0 0 398.98 398.98;" xml:space="preserve">
<g>
	<path style="fill:#CE9557;" d="M398.979,99.976c0,143.228-89.314,259.336-199.489,259.336S0.001,243.204,0.001,99.976H398.979"/>
	<path style="fill:#D0D0D0;" d="M79.294,306.971c33.427,32.854,75.064,52.344,120.197,52.344c-0.226,0-0.449-0.001-0.675-0.005
		C153.937,359.12,112.557,339.664,79.294,306.971"/>
	<path style="fill:#AE865C;" d="M0.001,100.133c0.039,84.489,31.155,159.525,79.293,206.839
		c33.262,32.693,74.643,52.148,119.522,52.339c-54.025-0.744-98.968-90.343-109.038-208.961
		C35.826,139.59,0.176,121.125,0.001,100.133"/>
	<path style="fill:#E6E6E6;" d="M398.98,99.975c0,33.31-89.32,60.311-199.49,60.311c-29.74,0-57.96-1.97-83.311-5.5
		C47.61,145.245,0,124.295,0,99.975c0-33.31,89.32-60.31,199.49-60.31C309.66,39.665,398.98,66.665,398.98,99.975"/>
	<path style="fill:#D4D4D4;" d="M199.49,68.535c-44.26,0-87.07,4.65-120.55,13.08c-4.589,1.154-8.805,2.328-12.673,3.505
		c-14.666,4.462-14.712,25.231-0.045,29.689c0.182,0.055,0.364,0.111,0.547,0.166c3.73,1.13,7.78,2.25,12.17,3.36
		c33.48,8.43,76.29,13.08,120.55,13.08s87.07-4.65,120.55-13.08c4.39-1.11,8.44-2.23,12.17-3.36
		c0.183-0.055,0.366-0.111,0.547-0.166c14.667-4.458,14.622-25.227-0.044-29.689c-3.868-1.177-8.085-2.351-12.673-3.505
		C286.56,73.185,243.75,68.535,199.49,68.535"/>
	<path style="fill:#FFFFFF;" d="M333.317,114.976l-13.277,3.36c-33.48,8.43-76.29,13.08-120.55,13.08s-87.07-4.65-120.55-13.08
		l-13.277-3.36l13.277-3.36c33.48-8.43,76.29-13.08,120.55-13.08s87.07,4.65,120.55,13.08L333.317,114.976z"/>
</g>
<g>
</g>
<g>
</g>
<g>
</g>
<g>
</g>
<g>
</g>
<g>
</g>
<g>
</g>
<g>
</g>
<g>
</g>
<g>
</g>
<g>
</g>
<g>
</g>
<g>
</g>
<g>
</g>
<g>
</g>
</svg>
