<?xml version="1.0" encoding="iso-8859-1"?>
<!-- Generator: Adobe Illustrator 19.0.0, SVG Export Plug-In . SVG Version: 6.00 Build 0)  -->
<svg version="1.1" id="Layer_1" xmlns="http://www.w3.org/2000/svg" xmlns:xlink="http://www.w3.org/1999/xlink" x="0px" y="0px"
	 viewBox="0 0 512.001 512.001" style="enable-background:new 0 0 512.001 512.001;" xml:space="preserve">
<path style="fill:#FFF3E6;" d="M490.858,322.094c1.52,10.683-6.08,20.479-16.805,21.736
	c-36.497,4.265-119.287,22.458-169.396,99.978V339.282c0-45.659,32.014-85.053,76.7-94.403l62.913-13.153
	C469.416,257.377,486.036,288.352,490.858,322.094z"/>
<path style="fill:#F78A68;" d="M256.001,501.45c-26.755,0.514-48.655-22.031-48.655-48.797v-8.845V339.282
	c0-45.659-32.014-85.053-76.7-94.403l-62.914-13.153c7.14-7.303,14.99-14.181,23.453-20.566
	c17.953-13.547,38.673-24.885,61.447-33.457c13.47-5.073,27.651-9.173,42.412-12.191c17.155-3.51,35.076-5.543,53.532-5.926
	c2.395,0.47,4.887,0.722,7.425,0.722s5.03-0.252,7.425-0.722c18.456,0.383,36.376,2.417,53.532,5.926
	c14.761,3.018,28.941,7.118,42.412,12.191c22.775,8.572,43.494,19.91,61.447,33.457c8.463,6.385,16.313,13.263,23.453,20.566
	l-62.913,13.153c-44.686,9.348-76.7,48.742-76.7,94.403v104.526v8.845C304.655,479.419,282.756,501.965,256.001,501.45z"/>
<path style="fill:#CF7B61;" d="M359.369,177.702c-13.47-5.073-27.651-9.173-42.412-12.191c2.843-10.835,6.308-21.966,10.408-33.216
	C355.607,54.774,403.158,0.903,433.564,11.98c30.396,11.076,32.146,82.91,3.892,160.431c-4.986,13.7-10.583,26.668-16.586,38.673
	l-0.055,0.077C402.863,197.612,382.143,186.274,359.369,177.702z"/>
<path style="fill:#FFF3E6;" d="M207.346,339.282v104.526c-50.109-77.52-132.9-95.714-169.396-99.978
	c-10.726-1.257-18.325-11.054-16.805-21.736c4.822-33.741,21.441-64.717,46.589-90.368l62.913,13.153
	C175.332,254.228,207.346,293.622,207.346,339.282z"/>
<path style="fill:#CF7B61;" d="M152.633,177.702c-22.775,8.572-43.494,19.91-61.447,33.457l-0.055-0.077
	c-6.003-11.995-11.601-24.961-16.586-38.673C46.291,94.888,48.041,23.054,78.437,11.978
	c30.406-11.076,77.958,42.794,106.199,120.315c4.1,11.251,7.566,22.381,10.408,33.216
	C180.285,168.529,166.103,172.629,152.633,177.702z"/>
<g>
	<path style="fill:#FFF3E6;" d="M146.957,158.412c-14.543-57.998-44.78-100.396-67.528-94.692
		c-12.349,3.098-19.949,19.745-21.99,43.598c3.167,20.299,8.855,42.452,17.107,65.093c4.986,13.711,10.583,26.678,16.586,38.673
		l0.055,0.077c17.564-13.253,37.781-24.385,59.975-32.889C150.033,171.777,148.645,165.141,146.957,158.412z"/>
	<path style="fill:#FFF3E6;" d="M364.345,158.412c14.543-57.998,44.779-100.396,67.528-94.692
		c12.349,3.098,19.949,19.745,21.99,43.598c-3.167,20.299-8.855,42.452-17.107,65.093c-4.986,13.711-10.583,26.678-16.586,38.673
		l-0.055,0.077c-17.564-13.253-37.781-24.385-59.975-32.889C361.267,171.777,362.656,165.141,364.345,158.412z"/>
</g>
<path d="M60.206,224.348c-27.372,27.92-44.487,61.204-49.497,96.261c-1.136,7.983,0.948,15.898,5.868,22.285
	c4.939,6.411,12.093,10.461,20.149,11.406c32.214,3.764,111.726,20.33,160.079,92.678v5.677c0,15.913,6.555,31.469,17.984,42.681
	c10.982,10.773,25.258,16.666,40.307,16.666c0.3,0,0.603-0.004,0.904-0.008h0.001h0.001c0.302,0.004,0.604,0.008,0.905,0.008
	c15.048,0,29.325-5.893,40.306-16.666c11.429-11.212,17.984-26.768,17.984-42.681v-5.677
	c48.353-72.348,127.865-88.914,160.083-92.678c8.053-0.944,15.206-4.994,20.143-11.403c4.921-6.387,7.005-14.302,5.869-22.293
	c-5.01-35.053-22.125-68.337-49.485-96.244c-0.055-0.056-0.112-0.112-0.167-0.168c-0.011-0.011-0.02-0.02-0.031-0.031
	c-5.457-5.566-11.353-10.938-17.599-16.037c4.858-10.323,9.34-21.084,13.35-32.103c14.104-38.697,21.448-77.407,20.681-108.998
	c-0.85-34.937-11.811-58.002-30.869-64.947c-19.061-6.944-42.296,3.663-65.421,29.863c-20.91,23.689-40.19,58.048-54.289,96.747
	c-2.983,8.183-5.681,16.459-8.078,24.705c-4.801-0.819-9.639-1.523-14.507-2.114c6.051-8.141,9.593-18.187,9.593-28.897
	c0-5.821-4.72-10.54-10.54-10.54s-10.54,4.719-10.54,10.54c0,11.199-6.846,21.1-16.849,25.277v-25.277
	c0-5.821-4.72-10.54-10.54-10.54c-5.82,0-10.54,4.719-10.54,10.54v25.273c-10.01-4.181-16.849-14.079-16.849-25.273
	c0-5.821-4.72-10.54-10.54-10.54c-5.82,0-10.54,4.719-10.54,10.54c0,10.71,3.54,20.756,9.594,28.898
	c-4.869,0.591-9.708,1.295-14.509,2.114c-2.395-8.239-5.093-16.513-8.078-24.703c-14.099-38.7-33.38-73.059-54.29-96.749
	C117.124,5.738,93.891-4.869,74.828,2.076C55.771,9.02,44.809,32.086,43.961,67.022c-0.768,31.59,6.577,70.299,20.679,108.99
	c4.014,11.038,8.495,21.8,13.35,32.112C71.673,213.282,65.711,218.716,60.206,224.348z M478.723,330.029
	c-1.441,1.871-3.535,3.055-5.894,3.331c-19.942,2.33-50.502,8.289-82.843,23.444c-29.439,13.795-54.482,32.44-74.79,55.602v-73.124
	c0-40.441,28.732-75.803,68.316-84.085l57.159-11.951c21.911,23.787,35.623,51.452,39.751,80.331
	C480.751,325.889,480.148,328.181,478.723,330.029z M429.955,21.883c10.046,3.661,16.406,20.727,17.012,45.652
	c0.705,29.02-6.189,64.984-19.415,101.272c-3.298,9.065-6.931,17.931-10.836,26.499c-14.006-9.425-29.267-17.558-45.575-24.284
	c1.575-8.068,3.948-16.54,6.998-24.907c20.12-55.218,37.032-67.732,45.321-70.276c5.565-1.709,8.693-7.604,6.984-13.169
	c-1.708-5.565-7.607-8.69-13.168-6.984c-21.685,6.655-40.966,33.874-58.943,83.212c-3.007,8.252-5.426,16.632-7.185,24.763
	c-6.891-2.246-13.915-4.254-21.037-5.995c2.148-7.264,4.529-14.549,7.159-21.762C364.472,61.23,408.64,14.12,429.955,21.883z
	 M65.035,67.534c0.605-24.924,6.964-41.991,17.01-45.652c21.308-7.754,65.484,39.349,92.689,114.02
	c2.631,7.219,5.012,14.502,7.158,21.761c-7.122,1.742-14.147,3.749-21.037,5.995c-1.758-8.128-4.178-16.508-7.184-24.762
	c-17.977-49.338-37.258-76.556-58.942-83.212c-5.568-1.705-11.46,1.42-13.169,6.984c-1.709,5.565,1.419,11.461,6.983,13.169
	c8.29,2.544,25.202,15.058,45.322,70.275c3.049,8.37,5.424,16.842,6.997,24.907c-16.308,6.726-31.57,14.859-45.577,24.285
	c-3.901-8.559-7.534-17.426-10.835-26.504C71.224,132.518,64.33,96.554,65.035,67.534z M97.535,219.573
	c17.32-13.069,37.107-23.837,58.813-32.006c13.048-4.915,26.777-8.86,40.811-11.729c16.445-3.364,33.484-5.27,50.703-5.684
	c2.686,0.451,5.416,0.694,8.14,0.694c2.718,0,5.444-0.241,8.138-0.694c17.19,0.411,34.245,2.317,50.706,5.685
	c14.031,2.868,27.761,6.814,40.811,11.729c21.707,8.17,41.494,18.938,58.811,32.006c2.595,1.957,5.125,3.972,7.596,6.027
	l-42.866,8.962c-23.975,5.015-45.685,18.246-61.129,37.254c-15.446,19.01-23.953,42.969-23.953,67.465v113.372
	c0,10.288-4.252,20.359-11.665,27.632c-4.577,4.489-10.033,7.642-15.909,9.294v-35.232h2.306c5.82,0,10.54-4.719,10.54-10.54
	s-4.72-10.54-10.54-10.54h-25.694c-5.82,0-10.54,4.719-10.54,10.54s4.72,10.54,10.54,10.54h2.306v35.235
	c-5.879-1.653-11.332-4.807-15.91-9.299c-7.413-7.273-11.665-17.344-11.665-27.631V339.282c0-49.475-33.557-92.212-81.606-103.932
	c-5.656-1.379-11.357,2.088-12.737,7.743c-1.38,5.656,2.086,11.358,7.743,12.738c38.577,9.409,65.519,43.725,65.519,83.451v73.124
	c-20.308-23.163-45.351-41.808-74.79-55.602c-32.341-15.154-62.9-21.113-82.839-23.443c-2.361-0.277-4.456-1.46-5.898-3.332
	c-1.425-1.849-2.028-4.139-1.699-6.444c4.37-30.575,19.474-59.788,43.69-84.49C81.999,232.21,89.491,225.642,97.535,219.573z"/>
<path d="M100.708,249.388l1.684,0.352c0.728,0.153,1.455,0.226,2.17,0.226c4.883,0,9.266-3.413,10.306-8.383
	c1.193-5.698-2.459-11.284-8.157-12.476l-1.684-0.352c-5.703-1.193-11.282,2.459-12.476,8.156
	C91.358,242.61,95.01,248.196,100.708,249.388z"/>
<path d="M143.569,330.042c5.82,0,10.54-4.719,10.54-10.54v-18.029c0-5.821-4.72-10.54-10.54-10.54c-5.82,0-10.54,4.719-10.54,10.54
	v18.029C133.029,325.323,137.749,330.042,143.569,330.042z"/>
<path d="M368.432,290.932c-5.82,0-10.54,4.719-10.54,10.54v18.029c0,5.821,4.72,10.54,10.54,10.54c5.82,0,10.54-4.719,10.54-10.54
	v-18.029C378.972,295.651,374.254,290.932,368.432,290.932z"/>
<g>
</g>
<g>
</g>
<g>
</g>
<g>
</g>
<g>
</g>
<g>
</g>
<g>
</g>
<g>
</g>
<g>
</g>
<g>
</g>
<g>
</g>
<g>
</g>
<g>
</g>
<g>
</g>
<g>
</g>
</svg>
