<?xml version="1.0" encoding="iso-8859-1"?>
<!-- Generator: Adobe Illustrator 19.0.0, SVG Export Plug-In . SVG Version: 6.00 Build 0)  -->
<svg version="1.1" id="Layer_1" xmlns="http://www.w3.org/2000/svg" xmlns:xlink="http://www.w3.org/1999/xlink" x="0px" y="0px"
	 viewBox="0 0 512 512" style="enable-background:new 0 0 512 512;" xml:space="preserve">
<path style="fill:#80531A;" d="M509.999,140.246c-2.255-13.93-17.669-21.288-29.82-14.232l4.915-2.855
	c10.335-6.002,13.265-19.745,6.155-29.384c-7.914-10.73-18.49-20.371-32.385-28.642c-1.65-0.982-3.307-1.958-5.017-2.889
	c-16.196-8.819-32.95-16.458-50.112-22.924c-11.05-4.164-23.477,0.392-29.377,10.672l-5.645,9.836
	c8.089-14.092,0.45-32.133-15.297-35.863c-23.586-5.586-47.639-9.113-71.813-10.575C267.709,12.55,256,23.716,256,37.717
	c0-14.001-11.709-25.167-25.604-24.326c-24.176,1.462-48.227,4.989-71.813,10.575c-15.747,3.73-23.385,21.771-15.297,35.863
	l-5.645-9.836c-5.9-10.28-18.326-14.835-29.377-10.672c-17.163,6.466-33.917,14.104-50.112,22.924
	c-1.709,0.931-3.367,1.906-5.017,2.889c-13.893,8.271-24.47,17.911-32.385,28.642c-7.11,9.641-4.179,23.383,6.155,29.384
	l4.916,2.855c-12.152-7.056-27.565,0.301-29.821,14.232c-4.93,30.447,0.006,64.853,6.614,99.721c0.01,0.053,0.021,0.108,0.03,0.161
	c1.777,9.358,9.997,16.078,19.469,16.078H38.3c-13.511,0-23.141,13.163-19.153,26.148c7.335,23.892,17.063,47.793,29.061,70.546
	c5.298,10.047,17.887,13.592,27.678,7.906l0.713-0.415c-10.157,5.9-13.103,19.253-6.449,28.969
	c14.359,20.965,30.889,40.167,49.471,56.469c9.493,8.328,24.2,5.812,30.498-5.16l-2.086,3.634
	c-5.503,9.588-2.299,21.861,7.19,27.473c23.679,14.006,49.878,23.463,78.431,26.744c11.902,1.367,22.342-7.994,22.342-20.044
	c0,12.05,10.44,21.412,22.342,20.044c28.552-3.279,54.751-12.738,78.431-26.744c9.489-5.613,12.694-17.885,7.19-27.473l-2.086-3.634
	c6.298,10.972,21.005,13.488,30.498,5.16c18.584-16.303,35.112-35.504,49.471-56.469c6.655-9.716,3.71-23.069-6.449-28.969
	l0.713,0.415c9.791,5.687,22.381,2.141,27.678-7.906c11.998-22.752,21.726-46.654,29.061-70.546
	c3.987-12.986-5.642-26.148-19.153-26.148h10.187c9.472,0,17.692-6.719,19.469-16.078c0.01-0.053,0.021-0.108,0.03-0.161
	C509.993,205.099,514.929,170.693,509.999,140.246z"/>
<g style="opacity:0.4;">
	<path style="fill:#9E7325;" d="M230.396,13.391c-24.176,1.462-48.227,4.988-71.813,10.575
		c-15.747,3.73-23.386,21.771-15.297,35.863L256,256.206V37.717C256,23.716,244.291,12.55,230.396,13.391z"/>
	<path style="fill:#9E7325;" d="M485.094,123.159c10.335-6.002,13.265-19.745,6.155-29.385c-7.914-10.73-18.49-20.371-32.385-28.642
		c-1.65-0.982-3.307-1.958-5.017-2.889c-16.196-8.819-32.95-16.458-50.112-22.924c-11.05-4.164-23.477,0.392-29.377,10.672
		L256,256.206L485.094,123.159z"/>
	<path style="fill:#9E7325;" d="M31.822,126.014c-12.152-7.058-27.565,0.301-29.821,14.232c-4.93,30.447,0.006,64.853,6.614,99.721
		c0.01,0.053,0.021,0.108,0.03,0.161c1.777,9.358,9.997,16.078,19.469,16.078H256L31.822,126.014z"/>
	<path style="fill:#9E7325;" d="M70.154,389.362c14.359,20.965,30.889,40.167,49.471,56.469c9.493,8.328,24.2,5.812,30.498-5.161
		L256,256.206L76.602,360.391C66.443,366.291,63.499,379.644,70.154,389.362z"/>
	<path style="fill:#9E7325;" d="M463.791,352.9c11.998-22.752,21.726-46.654,29.061-70.546c3.987-12.986-5.642-26.148-19.153-26.148
		H256l180.111,104.6C445.903,366.493,458.492,362.947,463.791,352.9z"/>
	<path style="fill:#9E7325;" d="M278.342,498.522c28.552-3.279,54.751-12.738,78.431-26.744c9.489-5.613,12.694-17.885,7.19-27.473
		L256,256.206v222.271C256,490.528,266.44,499.888,278.342,498.522z"/>
</g>
<path style="opacity:0.1;fill:#FEFBE1;enable-background:new    ;" d="M401.3,38.561c-2.464,0.346-4.923,1.165-7.263,2.524
	l4.915-2.855c0.066-0.038,0.123-0.084,0.187-0.123c-9.734-1.581-19.687,3.013-24.779,11.884l-5.645,9.836
	c8.089-14.092,0.45-32.133-15.297-35.863c-23.586-5.586-47.639-9.113-71.813-10.575C267.709,12.55,256,23.715,256,37.717
	c0-14.002-11.709-25.167-25.604-24.326c-24.176,1.462-48.227,4.989-71.813,10.575c-15.747,3.73-23.385,21.771-15.297,35.863
	l-5.645-9.836c-5.9-10.28-18.325-14.835-29.377-10.672c-17.163,6.466-33.917,14.104-50.112,22.924
	c-1.709,0.931-3.367,1.906-5.017,2.889c-13.893,8.271-24.47,17.911-32.385,28.642c-7.11,9.641-4.179,23.383,6.155,29.384
	l4.916,2.855c-12.152-7.056-27.565,0.301-29.821,14.232c-4.93,30.447,0.006,64.853,6.614,99.721c0.01,0.053,0.021,0.108,0.03,0.161
	c1.777,9.358,9.997,16.078,19.469,16.078H38.3c-13.511,0-23.141,13.163-19.153,26.148c7.335,23.892,17.063,47.793,29.061,70.546
	c2.281,4.324,5.916,7.436,10.093,9.134c2.236-1.615,4.195-3.709,5.678-6.292l-2.086,3.634c-0.628,1.094-1.128,2.226-1.534,3.378
	c5.034,1.432,10.631,0.898,15.526-1.946l0.713-0.415c-9.189,5.337-12.448,16.769-8.063,26.095c0.186,0.118,0.357,0.25,0.547,0.363
	c23.679,14.006,49.878,23.463,78.431,26.744c11.902,1.367,22.342-7.994,22.342-20.044c0,12.05,10.44,21.411,22.342,20.044
	c28.552-3.279,54.751-12.738,78.431-26.744c9.489-5.613,12.694-17.885,7.19-27.473l-2.086-3.634
	c6.298,10.972,21.005,13.488,30.498,5.16c18.584-16.303,35.112-35.504,49.471-56.469c6.655-9.716,3.71-23.069-6.449-28.969
	l0.713,0.415c9.791,5.687,22.38,2.141,27.678-7.906c11.998-22.752,21.726-46.654,29.061-70.546
	c3.987-12.986-5.642-26.148-19.153-26.148h10.187c9.472,0,17.692-6.719,19.469-16.078c0.01-0.053,0.021-0.108,0.03-0.161
	c6.607-34.868,11.543-69.274,6.614-99.721c-0.608-3.753-2.177-7.022-4.373-9.667c-5.21-2.217-10.457-4.335-15.748-6.33
	C402.931,39.016,402.116,38.774,401.3,38.561z"/>
<path style="fill:#AD712C;" d="M406.455,197.881c24.916-5.063,43.668-27.091,43.668-53.502c0-30.153-24.444-54.597-54.597-54.597
	c-21.275,0-39.693,12.176-48.703,29.931C321.485,99.149,291.028,86.162,256,86.142C160.17,86.194,98.511,183.226,82.48,267.324
	c-9.2,48.266-13.791,95.27,31.227,121.912c1.157,0.684,2.32,1.365,3.518,2.014c42.597,23.061,90.685,34.596,138.774,34.609
	c48.089-0.012,96.177-11.548,138.773-34.607c1.199-0.649,2.361-1.33,3.518-2.014c45.018-26.642,40.427-73.646,31.227-121.912
	C425.148,244.394,417.377,220.506,406.455,197.881z"/>
<path style="fill:#C98A2E;" d="M359.15,243.058c-11.086-58.153-43.993-122.483-94.927-156.662c-2.713-0.161-5.452-0.252-8.222-0.254
	c-35.028,0.019-65.485,13.006-90.823,33.571c-9.01-17.755-27.428-29.931-48.703-29.931c-30.153,0-54.597,24.444-54.597,54.597
	c0,26.41,18.752,48.439,43.668,53.502c-10.923,22.625-18.694,46.513-23.064,69.444c-9.2,48.266-13.791,95.27,31.227,121.912
	c1.157,0.684,2.32,1.365,3.518,2.014c2.64,1.429,5.301,2.812,7.982,4.153c19.867,4.103,40.141,6.184,60.421,6.189
	c48.089-0.012,96.177-11.548,138.773-34.607c1.199-0.649,2.361-1.33,3.518-2.014C372.941,338.328,368.35,291.324,359.15,243.058z"/>
<path style="fill:#AD712C;" d="M256,316.664l-32.348,36.169c8.586,7.684,19.919,12.362,32.348,12.362
	c12.429,0,23.762-4.678,32.348-12.362L256,316.664z"/>
<g>
	<path style="fill:#D5A150;" d="M231.735,292.398l-26.125,26.125c-12.168,12.168-4.613,33.502,12.567,34.497
		c0.472,0.028,0.948,0.041,1.426,0.041l0,0c20.103,0,36.398-16.295,36.398-36.398v-24.265H231.735z"/>
	<path style="fill:#D5A150;" d="M280.265,292.398l26.125,26.125c12.168,12.168,4.613,33.502-12.567,34.497
		c-0.472,0.028-0.946,0.041-1.426,0.041l0,0c-20.103,0-36.398-16.295-36.398-36.398v-24.265H280.265z"/>
	<path style="fill:#D5A150;" d="M280.265,256.424V256h72.796c0-53.606-43.456-97.062-97.062-97.062S158.938,202.394,158.938,256
		h72.796v0.423c0,13.387-2.486,26.554-5.762,39.533c-0.201,0.793-0.305,1.629-0.305,2.508h60.664c0-0.878-0.103-1.714-0.305-2.508
		C282.751,282.977,280.265,269.811,280.265,256.424z"/>
</g>
<path style="fill:#BD7155;" d="M286.332,298.465c0,10.051-30.332,18.199-30.332,18.199s-30.332-8.148-30.332-18.199
	c0-10.051,13.58-14.559,30.332-14.559S286.332,288.414,286.332,298.465z"/>
<g>
	<path style="fill:#D5A150;" d="M155.905,304.531h-12.133c-5.027,0-9.1-4.074-9.1-9.1s4.073-9.1,9.1-9.1h12.133
		c5.027,0,9.1,4.074,9.1,9.1S160.932,304.531,155.905,304.531z"/>
	<path style="fill:#D5A150;" d="M368.227,304.531h-12.133c-5.027,0-9.1-4.074-9.1-9.1s4.073-9.1,9.1-9.1h12.133
		c5.027,0,9.1,4.074,9.1,9.1S373.254,304.531,368.227,304.531z"/>
</g>
<g>
	<path style="fill:#DFCE4E;" d="M195.336,219.602c-20.07,0-36.398,16.328-36.398,36.398s16.328,36.398,36.398,36.398
		S231.735,276.07,231.735,256S215.406,219.602,195.336,219.602z"/>
	<path style="fill:#DFCE4E;" d="M316.663,219.602c-20.07,0-36.398,16.328-36.398,36.398s16.328,36.398,36.398,36.398
		c20.07,0,36.398-16.328,36.398-36.398S336.733,219.602,316.663,219.602z"/>
</g>
<g>
	<path style="fill:#47423F;" d="M195.336,277.232c-5.025,0-9.1-4.073-9.1-9.1v-24.265c0-5.027,4.074-9.1,9.1-9.1s9.1,4.073,9.1,9.1
		v24.265C204.436,273.159,200.362,277.232,195.336,277.232z"/>
	<path style="fill:#47423F;" d="M316.663,277.232c-5.025,0-9.1-4.073-9.1-9.1v-24.265c0-5.027,4.074-9.1,9.1-9.1s9.1,4.073,9.1,9.1
		v24.265C325.763,273.159,321.689,277.232,316.663,277.232z"/>
</g>
<circle style="opacity:0.5;fill:#915729;enable-background:new    ;" cx="395.526" cy="144.379" r="18.199"/>
<circle style="fill:#AD712C;" cx="116.474" cy="144.379" r="18.199"/>
<g>
</g>
<g>
</g>
<g>
</g>
<g>
</g>
<g>
</g>
<g>
</g>
<g>
</g>
<g>
</g>
<g>
</g>
<g>
</g>
<g>
</g>
<g>
</g>
<g>
</g>
<g>
</g>
<g>
</g>
</svg>
