<?xml version="1.0" encoding="iso-8859-1"?>
<!-- Generator: Adobe Illustrator 19.0.0, SVG Export Plug-In . SVG Version: 6.00 Build 0)  -->
<svg version="1.1" id="Layer_1" xmlns="http://www.w3.org/2000/svg" xmlns:xlink="http://www.w3.org/1999/xlink" x="0px" y="0px"
	 viewBox="0 0 464.03 464.03" style="enable-background:new 0 0 464.03 464.03;" xml:space="preserve">
<g transform="translate(0 -1020.36)" shape-rendering="auto" image-rendering="auto" color-rendering="auto" color-interpolation="sRGB">
	<path style="fill:#57BB63;" d="M231.948,1291.06c2.544,3.938,5.679,8.084,8.25,12.094c-0.331,4.232-5.31,61.807-8.126,92.531
		c-2.218,24.199-6.414,65.197-7.25,73.25h-30.562c3.808-10.764,16.413-45.871,21.187-71.061c6.029-31.811,7.973-89.377,8.125-94.313
		c2.677-4.172,5.722-8.342,8.375-12.438V1291.06z"/>
	<path style="fill:#464C63;" d="M169.417,1020.39c-38.783,0-70.594,30.883-70.594,69.031c0.022,20.217,10.382,37.381,23.281,51.125
		c7.581,8.078,18.506,20.566,28.313,31.531c-7.445-3.754-16.729-8.229-22.531-11.313c-16.153-8.563-34.953-13.934-54.031-8.75
		c-35.947,9.766-57.135,47.49-47.531,83.938c6.806,25.703,27.538,43.469,51.625,48.721c-18.333,16.715-27.496,42.635-20.687,68.404
		c9.63,36.477,46.773,58.406,82.719,48.658c0.011,0,0.021,0,0.032,0c16.079-4.416,29.553-14.848,38.75-28.563
		c17.715-26.404,35.847-55.164,53.25-82.031c17.367,26.871,35.422,55.818,53.219,82.342c9.196,13.715,22.7,24.15,38.781,28.563
		c35.951,9.754,73.121-12.213,82.75-48.688c6.808-25.768-2.359-51.689-20.688-68.406c24.092-5.246,44.83-23.031,51.625-48.748
		c9.632-36.461-11.607-74.17-47.563-83.938c-19.059-5.182-37.849,0.16-54.031,8.748c-5.552,2.951-14.443,7.262-21.531,10.846
		c10.549-11.754,22.093-24.5,32.719-36.594c11.15-12.691,17.88-28.799,17.906-45.875c0-38.148-31.811-69.032-70.594-69.032
		c-27.528,0-50.971,15.957-62.594,38.626c-11.622-22.669-35.066-38.626-62.594-38.626L169.417,1020.39z"/>
	<path style="fill:#2ECC71;" d="M169.417,1036.422c30.346,0,54.563,23.732,54.563,53c0,4.428,3.589,8.016,8.016,8.016
		s8.016-3.588,8.016-8.016c0-29.268,24.247-53,54.594-53c30.346,0,54.563,23.732,54.563,53
		c-0.019,12.881-5.102,25.254-13.938,35.313c-19.686,22.41-36.58,41.057-60.75,67.969c-2.944,3.305-2.652,8.369,0.652,11.314
		c2.429,2.164,5.925,2.645,8.848,1.217c21.252-10.535,43.996-21.723,59.688-30.063c14.043-7.51,28.47-11.162,42.281-7.406
		c27.438,7.455,43.712,36.127,36.25,64.375c-7.461,28.238-35.591,44.725-63.031,37.281c-4.286-1.102-8.654,1.479-9.757,5.766
		c-1.083,4.209,1.388,8.514,5.569,9.703c27.44,7.455,43.742,36.164,36.281,64.406c-7.459,28.252-35.596,44.787-63.031,37.344
		c-12.073-3.314-22.424-11.199-29.688-22.031c-19.793-29.5-40.36-62.859-59.812-92.594c-2.412-3.711-7.375-4.764-11.086-2.352
		c-0.94,0.611-1.741,1.412-2.351,2.352c-19.47,29.76-40.107,62.863-59.844,92.281c-7.263,10.832-17.612,18.715-29.688,22.031
		c-27.432,7.422-55.545-9.072-63-37.313c-7.461-28.242,8.841-56.918,36.281-64.375c4.257-1.211,6.727-5.643,5.517-9.898
		c-1.189-4.182-5.494-6.652-9.704-5.57c-27.415,7.436-55.547-9.08-63.031-37.281l0,0c-7.42-28.227,8.839-56.928,36.25-64.375
		c13.792-3.748,28.209,0,42.281,7.438l0,0c16.004,8.504,39.188,19.898,60.844,30.623c3.973,1.949,8.774,0.309,10.724-3.664
		c1.423-2.9,0.965-6.373-1.161-8.805c-19.635-22.256-41.489-46.973-56.969-63.469c-11.284-12.021-18.921-25.439-18.938-40.154
		c0-29.268,24.216-53,54.563-53V1036.422z"/>
	<path style="fill:#464C63;" d="M216.136,1292.297c-4.406-0.068-8.039,3.438-8.125,7.844c0,0-2.206,64.867-7.875,94.781
		c-4.874,25.721-23.656,78.783-23.656,78.783c-1.483,4.162,0.69,8.738,4.852,10.221c0.86,0.307,1.766,0.465,2.679,0.465h48
		c4.096,0.006,7.535-3.082,7.969-7.154c0,0,5.542-53.275,8-80.094c2.943-32.109,8-96.094,8-96.094
		c0.53-4.387-2.597-8.373-6.984-8.902c-4.387-0.529-8.372,2.598-8.902,6.984c-0.026,0.213-0.043,0.426-0.051,0.639
		c0,0-5.081,64.059-8,95.906c-2.215,24.168-6.436,64.576-7.281,72.719h-30c3.829-10.824,16.356-45.338,21.125-70.5
		c6.289-33.184,8.125-97.25,8.125-97.25c0.19-4.414-3.235-8.146-7.65-8.338c-0.075-0.002-0.15-0.004-0.225-0.006V1292.297z"/>
	<path style="fill:#31AF66;" d="M169.48,1036.341c-30.346,0-54.688,23.766-54.688,53.031c0.016,14.717,7.715,28.133,19,40.154
		c15.48,16.494,37.302,41.182,56.938,63.438c2.952,3.297,2.671,8.363-0.626,11.314c-0.01,0.01-0.02,0.018-0.03,0.027
		c0.832,0.416,1.488,0.752,2.312,1.152c3.959,1.977,8.772,0.371,10.749-3.59c1.465-2.932,0.995-6.463-1.186-8.91
		c-19.635-22.258-41.458-46.943-56.938-63.438c-11.285-12.021-18.984-25.438-19-40.154c0-27.303,21.269-49.539,48.75-52.438
		c-1.765-0.16-3.47-0.528-5.282-0.528l0,0L169.48,1036.341z M294.542,1036.341c-30.346,0-54.563,23.766-54.563,53.031
		c0.001,0.053,0.001,0.107,0,0.16c0.013,0.262,0.013,0.521,0,0.783c-0.193,1.34-0.721,2.607-1.536,3.688
		c-0.145,0.215-0.299,0.424-0.464,0.623c-0.119,0.127-0.241,0.248-0.368,0.367c3.028,2.979,7.853,3.076,11,0.225
		c0.208-0.188,0.405-0.385,0.592-0.592c0.165-0.199,0.319-0.408,0.464-0.623c0.815-1.08,1.344-2.348,1.536-3.688
		c0.013-0.262,0.013-0.521,0-0.783c0.001-0.053,0.001-0.107,0-0.16c0-27.414,21.334-49.754,48.97-52.499
		c-1.875-0.192-3.698-0.528-5.626-0.528L294.542,1036.341z M88.51,1165.935c-3.51,0-6.989,0.527-10.437,1.473
		c-27.421,7.449-43.722,36.139-36.282,64.375c6.75,25.484,30.379,41.311,55.094,38.688c-20.331-2.426-38.16-17.107-43.875-38.688
		c-7.44-28.234,8.861-56.924,36.282-64.375c1.955-0.527,3.958-0.607,5.938-0.848c-2.242-0.271-4.493-0.672-6.72-0.623V1165.935z
		 M375.542,1166.222c-10.534-0.191-21.293,3.305-31.843,8.906c-15.093,8.02-36.842,18.672-57.376,28.844
		c2.461,2.182,6.004,2.639,8.938,1.152c21.253-10.535,43.963-21.66,59.656-30c8.29-4.402,16.699-7.244,25.032-8.281
		c-1.472-0.176-2.923-0.592-4.406-0.623V1166.222z M243.136,1268.379c-2.062,0.035-4.032,0.863-5.499,2.313
		c0.395,0.389,0.749,0.818,1.056,1.279c4.582,7.004,9.342,14.564,14.03,21.875c1.565,1.158,2.653,2.848,3.062,4.75
		c14.238,22.25,28.666,44.928,42.781,65.969c7.264,10.832,17.584,18.654,29.658,21.969c6.486,1.76,12.995,2.068,19.28,1.313
		c-2.682-0.287-5.373-0.576-8.062-1.313c-12.074-3.314-22.392-11.137-29.656-21.969c-14.115-21.039-28.542-43.719-42.781-65.969
		c-0.409-1.902-1.498-3.592-3.062-4.75c-4.688-7.311-9.45-14.871-14.032-21.875c-1.502-2.273-4.057-3.627-6.781-3.594
		L243.136,1268.379z M117.448,1268.939c-0.463,0.023-0.924,0.088-1.376,0.191c-1.792,0.48-3.582,0.623-5.374,0.912
		c3.815,2.242,5.09,7.154,2.848,10.969c-1.012,1.721-2.629,3.002-4.536,3.594c-27.44,7.455-43.742,36.102-36.282,64.344
		c6.736,25.514,30.394,41.316,55.125,38.688c-20.346-2.418-38.202-17.084-43.906-38.688c-7.461-28.242,8.842-56.889,36.282-64.344
		c4.227-1.313,6.59-5.803,5.278-10.029c-1.085-3.496-4.403-5.813-8.06-5.627L117.448,1268.939z M368.011,1269.13
		c-1.278,0.068-2.521,0.441-3.626,1.088c4.749,0.768,9.462,1.023,14.062,0.465c-2.682-0.287-5.373-0.576-8.062-1.313
		c-0.774-0.203-1.575-0.289-2.374-0.256V1269.13z"/>
	<path style="fill:#52A25B;" d="M231.948,1291.06c-2.653,4.096-5.386,8.391-8.062,12.563c-0.16,4.936-1.971,62.504-8,94.313
		c-4.774,25.189-17.317,59.738-21.125,70.5h7.624c3.808-10.764,16.35-45.311,21.125-70.5c6.029-31.809,7.848-89.377,8-94.313
		c1.408-2.199,2.827-4.404,4.251-6.625C234.481,1295.004,233.198,1292.994,231.948,1291.06L231.948,1291.06z"/>
</g>
<g>
</g>
<g>
</g>
<g>
</g>
<g>
</g>
<g>
</g>
<g>
</g>
<g>
</g>
<g>
</g>
<g>
</g>
<g>
</g>
<g>
</g>
<g>
</g>
<g>
</g>
<g>
</g>
<g>
</g>
</svg>
