<?xml version="1.0" encoding="iso-8859-1"?>
<!-- Generator: Adobe Illustrator 18.0.0, SVG Export Plug-In . SVG Version: 6.00 Build 0)  -->
<!DOCTYPE svg PUBLIC "-//W3C//DTD SVG 1.1//EN" "http://www.w3.org/Graphics/SVG/1.1/DTD/svg11.dtd">
<svg version="1.1" id="Capa_1" xmlns="http://www.w3.org/2000/svg" xmlns:xlink="http://www.w3.org/1999/xlink" x="0px" y="0px"
	 viewBox="0 0 475.007 475.007" style="enable-background:new 0 0 475.007 475.007;" xml:space="preserve">
<g>
	<radialGradient id="SVGID_1_" cx="231.5062" cy="229.1833" r="223.5" gradientUnits="userSpaceOnUse">
		<stop  offset="0" style="stop-color:#E92B06"/>
		<stop  offset="0.158" style="stop-color:#E92E09;stop-opacity:0.842"/>
		<stop  offset="0.289" style="stop-color:#EA3714;stop-opacity:0.711"/>
		<stop  offset="0.4104" style="stop-color:#EC4525;stop-opacity:0.5896"/>
		<stop  offset="0.5261" style="stop-color:#EE5A3D;stop-opacity:0.4739"/>
		<stop  offset="0.6376" style="stop-color:#F1755D;stop-opacity:0.3624"/>
		<stop  offset="0.746" style="stop-color:#F49683;stop-opacity:0.254"/>
		<stop  offset="0.852" style="stop-color:#F8BDB1;stop-opacity:0.148"/>
		<stop  offset="0.9535" style="stop-color:#FDE9E5;stop-opacity:0.0465"/>
		<stop  offset="1" style="stop-color:#FFFFFF;stop-opacity:0"/>
	</radialGradient>
	<circle style="fill:url(#SVGID_1_);" cx="231.506" cy="229.183" r="223.5"/>
	<g>
		<linearGradient id="SVGID_2_" gradientUnits="userSpaceOnUse" x1="401.5962" y1="340.3633" x2="401.5962" y2="315.1333">
			<stop  offset="0" style="stop-color:#FFFFFF"/>
			<stop  offset="1" style="stop-color:#5E5E5E"/>
		</linearGradient>
		<path style="fill:url(#SVGID_2_);" d="M401.596,315.133l-5.76,24.67c1.3,0.18,2.5,0.37,3.6,0.56c2.69-5.57,6.95-15.36,7.92-23.16
			C405.556,316.513,403.536,315.793,401.596,315.133z"/>
		<linearGradient id="SVGID_3_" gradientUnits="userSpaceOnUse" x1="386.7712" y1="338.9832" x2="386.7712" y2="313.4032">
			<stop  offset="0" style="stop-color:#FFFFFF"/>
			<stop  offset="1" style="stop-color:#5E5E5E"/>
		</linearGradient>
		<path style="fill:url(#SVGID_3_);" d="M379.756,338.623c2.92,0.06,5.61,0.18,8.06,0.36l5.97-25.58c-3.79,1.6-7.96,3.28-12.42,4.96
			L379.756,338.623z"/>
		<linearGradient id="SVGID_4_" gradientUnits="userSpaceOnUse" x1="369.6662" y1="338.7832" x2="369.6662" y2="321.3432">
			<stop  offset="0" style="stop-color:#FFFFFF"/>
			<stop  offset="1" style="stop-color:#5E5E5E"/>
		</linearGradient>
		<path style="fill:url(#SVGID_4_);" d="M366.226,338.783c1.91-0.08,3.75-0.13,5.51-0.17l1.37-17.27c-2.02,0.7-4.07,1.39-6.17,2.07
			L366.226,338.783z"/>
		<linearGradient id="SVGID_5_" gradientUnits="userSpaceOnUse" x1="354.0362" y1="339.8833" x2="354.0362" y2="325.9232">
			<stop  offset="0" style="stop-color:#FFFFFF"/>
			<stop  offset="1" style="stop-color:#5E5E5E"/>
		</linearGradient>
		<path style="fill:url(#SVGID_5_);" d="M350.876,339.883c2.54-0.25,4.98-0.46,7.32-0.63l0.62-13.33c-3.14,0.92-6.33,1.8-9.56,2.62
			L350.876,339.883z"/>
		<linearGradient id="SVGID_6_" gradientUnits="userSpaceOnUse" x1="336.9512" y1="341.6833" x2="336.9512" y2="330.3932">
			<stop  offset="0" style="stop-color:#FFFFFF"/>
			<stop  offset="1" style="stop-color:#5E5E5E"/>
		</linearGradient>
		<path style="fill:url(#SVGID_6_);" d="M330.986,332.413l4.9,9.27c2.41-0.34,4.76-0.65,7.03-0.93l-1.47-10.36
			C337.966,331.153,334.476,331.833,330.986,332.413z"/>
		<linearGradient id="SVGID_7_" gradientUnits="userSpaceOnUse" x1="321.8512" y1="325.7632" x2="321.8512" y2="305.2533">
			<stop  offset="0" style="stop-color:#FFFFFF"/>
			<stop  offset="1" style="stop-color:#5E5E5E"/>
		</linearGradient>
		<path style="fill:url(#SVGID_7_);" d="M316.036,307.003c0.56,5.26,2,13.45,4.95,18.76c2.22-0.25,4.44-0.55,6.68-0.89
			c-1.82-5.85-2.75-14.02-3.21-19.62C321.706,305.863,318.896,306.443,316.036,307.003z"/>
		<linearGradient id="SVGID_8_" gradientUnits="userSpaceOnUse" x1="343.2262" y1="323.4832" x2="343.2262" y2="298.6432">
			<stop  offset="0" style="stop-color:#FFFFFF"/>
			<stop  offset="1" style="stop-color:#5E5E5E"/>
		</linearGradient>
		<path style="fill:url(#SVGID_8_);" d="M354.116,319.003c-0.42-5.09-2.39-13.71-4.16-20.36c-5.49,1.65-11.37,3.26-17.62,4.78
			c0.61,7.78,1.85,16.09,3.23,20.06C341.836,322.243,348.066,320.713,354.116,319.003z"/>
		<linearGradient id="SVGID_9_" gradientUnits="userSpaceOnUse" x1="364.8912" y1="316.6732" x2="364.8912" y2="294.6732">
			<stop  offset="0" style="stop-color:#FFFFFF"/>
			<stop  offset="1" style="stop-color:#5E5E5E"/>
		</linearGradient>
		<path style="fill:url(#SVGID_9_);" d="M362.326,294.673c-1.53,0.53-3.12,1.05-4.73,1.58c1.35,5.01,3.54,13.77,4.32,20.42
			c3.53-1.11,6.96-2.26,10.27-3.43C369.416,307.443,365.006,299.443,362.326,294.673z"/>
		<linearGradient id="SVGID_10_" gradientUnits="userSpaceOnUse" x1="377.5462" y1="310.4632" x2="377.5462" y2="289.4532">
			<stop  offset="0" style="stop-color:#FFFFFF"/>
			<stop  offset="1" style="stop-color:#5E5E5E"/>
		</linearGradient>
		<path style="fill:url(#SVGID_10_);" d="M376.486,289.453c-2.06,0.81-4.23,1.65-6.52,2.5c2.85,5.09,7.08,12.82,9.75,18.51
			c1.86-0.71,3.67-1.41,5.41-2.12C383.516,303.283,379.646,295.343,376.486,289.453z"/>
		<linearGradient id="SVGID_11_" gradientUnits="userSpaceOnUse" x1="390.0062" y1="305.2632" x2="390.0062" y2="284.6632">
			<stop  offset="0" style="stop-color:#FFFFFF"/>
			<stop  offset="1" style="stop-color:#5E5E5E"/>
		</linearGradient>
		<path style="fill:url(#SVGID_11_);" d="M396.096,303.683c-1.65-5.76-5.85-14.34-8.25-19.02c-1.22,0.55-2.54,1.13-3.93,1.72
			c2.53,4.75,6.54,12.68,8.61,18.88C393.776,304.723,394.956,304.203,396.096,303.683z"/>
		<linearGradient id="SVGID_12_" gradientUnits="userSpaceOnUse" x1="400.0462" y1="300.2632" x2="400.0462" y2="280.1632">
			<stop  offset="0" style="stop-color:#FFFFFF"/>
			<stop  offset="1" style="stop-color:#5E5E5E"/>
		</linearGradient>
		<path style="fill:url(#SVGID_12_);" d="M404.996,299.463c-1.47-6.81-4.42-13.45-7.7-19.3c-0.65,0.33-1.37,0.69-2.2,1.1
			c2.38,4.65,6.3,12.71,8.31,19C403.966,299.983,404.496,299.723,404.996,299.463z"/>
	</g>
	<linearGradient id="SVGID_13_" gradientUnits="userSpaceOnUse" x1="371.8747" y1="222.0933" x2="371.8747" y2="255.6355">
		<stop  offset="0" style="stop-color:#7F7F7F"/>
		<stop  offset="0.6821" style="stop-color:#000000"/>
	</linearGradient>
	<path style="fill:url(#SVGID_13_);" d="M380.756,222.093l0.6,25.24l-4.72,5.49c-1.73,2-4.22,3.01-6.85,2.78s-4.91-1.66-6.26-3.93
		c-1.73-2.91-1.46-6.63,0.68-9.26L380.756,222.093z"/>
	<linearGradient id="SVGID_14_" gradientUnits="userSpaceOnUse" x1="326.5233" y1="215.8513" x2="279.3166" y2="215.8513">
		<stop  offset="0" style="stop-color:#7F7F7F"/>
		<stop  offset="0.6821" style="stop-color:#000000"/>
	</linearGradient>
	<path style="fill:url(#SVGID_14_);" d="M326.486,211.693c0.15,0.81-0.19,1.41-0.4,1.69c-0.21,0.28-0.69,0.77-1.51,0.85
		c-6.13,0.65-11.75,3.85-15.42,8.8c-3.67,4.95-5.11,11.26-3.95,17.31l1.8,9.34c-1.4,0.25-2.83,0.34-4.28,0.2
		c-4.79-0.45-9.05-3.02-11.68-7.05l-6.96-10.68c-2.33-3.56-3.74-7.69-4.1-11.93l-0.58-6.92c-1.02-12.19,6.76-23.51,18.51-26.93
		l15.9-4.62c2.43,1.77,5.13,2.99,7.96,3.64L326.486,211.693z"/>
	<linearGradient id="SVGID_15_" gradientUnits="userSpaceOnUse" x1="391.1597" y1="362.9697" x2="443.0248" y2="452.8027">
		<stop  offset="0.1187" style="stop-color:#000000"/>
		<stop  offset="0.2744" style="stop-color:#353535;stop-opacity:0.8233"/>
		<stop  offset="0.5407" style="stop-color:#8B8B8B;stop-opacity:0.5211"/>
		<stop  offset="0.7588" style="stop-color:#C9C9C9;stop-opacity:0.2736"/>
		<stop  offset="0.9173" style="stop-color:#F0F0F0;stop-opacity:0.0938"/>
		<stop  offset="1" style="stop-color:#FFFFFF;stop-opacity:0"/>
	</linearGradient>
	<path style="fill:url(#SVGID_15_);" d="M466.906,424.043c0.29,0.73-0.06,1.57-0.78,1.87l-16.7,7.02l0.28-4.96
		c0.12-2.21-1.56-4.1-3.77-4.22c-2.21-0.13-4.09,1.56-4.22,3.76l-1.49,26.16c-0.03,0.62-0.46,1.14-1.08,1.31l-23.39,6.29
		c-0.26,0.07-0.66,0.1-1.06-0.09l-14.82-7.24c-0.57-0.28-0.9-0.9-0.8-1.52l3.63-23.1c0.5-3.23-0.66-6.44-3.1-8.56l-42.73-38
		l24.39,1.43c0.5,0.03,1,0.05,1.5,0.05c5.69,0,11.06-1.92,15.39-5.43l11.18,10.28c0.03,0.03,0.07,0.06,0.11,0.09
		c1.41,1.21,3.18,1.88,5.04,1.82l38.88,1.86c0.56,0.02,1.05,0.38,1.27,0.9L466.906,424.043z"/>
	<linearGradient id="SVGID_16_" gradientUnits="userSpaceOnUse" x1="102.4773" y1="338.1823" x2="50.6173" y2="454.6617">
		<stop  offset="0.1653" style="stop-color:#000000"/>
		<stop  offset="0.2325" style="stop-color:#181818;stop-opacity:0.9195"/>
		<stop  offset="0.5193" style="stop-color:#7A7A7A;stop-opacity:0.5758"/>
		<stop  offset="0.7512" style="stop-color:#C1C1C1;stop-opacity:0.2981"/>
		<stop  offset="0.9166" style="stop-color:#EEEEEE;stop-opacity:0.0999"/>
		<stop  offset="1" style="stop-color:#FFFFFF;stop-opacity:0"/>
	</linearGradient>
	<path style="fill:url(#SVGID_16_);" d="M145.446,357.313l-36.79,29.17c-4.98,3.85-8.26,9.41-9.22,15.65l-6.66,42.94
		c-0.26,1.67-1.55,3.02-3.19,3.36l-35.1,7.13c-2.17,0.44-4.32-0.96-4.78-3.13l-3.4-15.87l11.43,5.74c0.58,0.28,1.19,0.42,1.79,0.42
		c1.47,0,2.88-0.81,3.58-2.2c0.99-1.98,0.19-4.38-1.78-5.37l-30.47-15.3c-1.48-0.75-2.35-2.29-2.23-3.94l2.42-32.35
		c0.06-0.79,0.35-1.55,0.83-2.17l8.62-11.3c1.08-1.43,2.94-1.98,4.62-1.36l14.13,5.22c6.82,2.5,14.34,1.35,20.09-3.07l29.4-22.48
		C120.156,354.043,132.716,357.083,145.446,357.313z"/>
	<linearGradient id="SVGID_17_" gradientUnits="userSpaceOnUse" x1="91.9486" y1="103.5427" x2="26.6988" y2="42.6962">
		<stop  offset="0.0791" style="stop-color:#000000"/>
		<stop  offset="0.1284" style="stop-color:#171717;stop-opacity:0.9464"/>
		<stop  offset="0.2668" style="stop-color:#545454;stop-opacity:0.7961"/>
		<stop  offset="0.4044" style="stop-color:#888888;stop-opacity:0.6467"/>
		<stop  offset="0.5381" style="stop-color:#B3B3B3;stop-opacity:0.5016"/>
		<stop  offset="0.6668" style="stop-color:#D4D4D4;stop-opacity:0.3618"/>
		<stop  offset="0.7894" style="stop-color:#ECECEC;stop-opacity:0.2287"/>
		<stop  offset="0.9033" style="stop-color:#FAFAFA;stop-opacity:0.105"/>
		<stop  offset="1" style="stop-color:#FFFFFF;stop-opacity:0"/>
	</linearGradient>
	<path style="fill:url(#SVGID_17_);" d="M95.646,77.973l10.56,10.28c-7.83,6.42-15.03,13.5-21.56,21.14l-0.16-0.15
		c-4.55-4.37-10.53-6.79-16.83-6.83l-43.46-0.33c-1.69-0.01-3.21-1.09-3.78-2.67l-12.18-33.69c-0.75-2.08,0.33-4.41,2.4-5.18
		l15.21-5.68l-4.01,12.15c-0.7,2.09,0.44,4.36,2.54,5.05c2.1,0.69,4.36-0.45,5.05-2.54l10.7-32.38c0.52-1.57,1.92-2.66,3.57-2.78
		l32.37-2.32c0.78-0.05,1.57,0.12,2.26,0.5l12.44,6.88c1.54,0.85,2.37,2.66,2.01,4.38l-3.1,14.73
		C88.186,65.653,90.416,72.923,95.646,77.973z"/>
	<linearGradient id="SVGID_18_" gradientUnits="userSpaceOnUse" x1="352.9595" y1="128.7379" x2="401.4284" y2="54.1022">
		<stop  offset="0.0775" style="stop-color:#000000"/>
		<stop  offset="0.2512" style="stop-color:#404040;stop-opacity:0.8117"/>
		<stop  offset="0.4538" style="stop-color:#838383;stop-opacity:0.592"/>
		<stop  offset="0.6376" style="stop-color:#B8B8B8;stop-opacity:0.3929"/>
		<stop  offset="0.7955" style="stop-color:#DFDFDF;stop-opacity:0.2217"/>
		<stop  offset="0.9216" style="stop-color:#F6F6F6;stop-opacity:0.085"/>
		<stop  offset="1" style="stop-color:#FFFFFF;stop-opacity:0"/>
	</linearGradient>
	<path style="fill:url(#SVGID_18_);" d="M420.446,94.163c0.07,0.26,0.11,0.65-0.09,1.06l-7.24,14.82c-0.28,0.57-0.9,0.9-1.51,0.8
		l-23.11-3.63c-3.22-0.51-6.43,0.66-8.55,3.09l-20.28,22.79c-5.3-8.91-11.4-17.31-18.23-25.09l6.83-7.42
		c0.03-0.04,0.06-0.07,0.1-0.11c1.2-1.41,1.85-3.2,1.82-5.05l1.85-38.87c0.03-0.56,0.39-1.06,0.91-1.27l30.28-12.27
		c0.72-0.3,1.56,0.05,1.87,0.78l7.01,16.7l-4.96-0.28c-2.21-0.13-4.09,1.56-4.22,3.76c-0.12,2.21,1.56,4.1,3.77,4.22l26.15,1.49
		c0.63,0.04,1.15,0.47,1.31,1.09L420.446,94.163z"/>
	<linearGradient id="SVGID_19_" gradientUnits="userSpaceOnUse" x1="353.933" y1="131.2908" x2="125.2473" y2="359.9765">
		<stop  offset="0" style="stop-color:#FFFFFF"/>
		<stop  offset="0.3402" style="stop-color:#FDFDFD"/>
		<stop  offset="0.4764" style="stop-color:#F6F6F6"/>
		<stop  offset="0.5761" style="stop-color:#EAEAEA"/>
		<stop  offset="0.658" style="stop-color:#D8D8D8"/>
		<stop  offset="0.7289" style="stop-color:#C2C2C2"/>
		<stop  offset="0.7923" style="stop-color:#A6A6A6"/>
		<stop  offset="0.8501" style="stop-color:#848484"/>
		<stop  offset="0.9036" style="stop-color:#5E5E5E"/>
		<stop  offset="0.9518" style="stop-color:#333333"/>
		<stop  offset="0.9967" style="stop-color:#040404"/>
		<stop  offset="1" style="stop-color:#000000"/>
	</linearGradient>
	<path style="fill:url(#SVGID_19_);" d="M398.846,355.353c1.36,5.22,0.18,10.61-3.24,14.79c-3.43,4.17-8.49,6.39-13.87,6.07
		l-87.25-5.12c-18.79-1.1-33.5-16.72-33.49-35.54c0.01-9.46-2.02-18.55-5.71-26.81c-0.04-0.1-0.07-0.21-0.12-0.31
		c-0.02-0.05-0.06-0.09-0.08-0.14c-7.97-17.48-23.41-31.14-42.84-36.35c-2.13-0.57-4.32,0.69-4.9,2.83c-0.57,2.13,0.7,4.32,2.83,4.9
		c15.88,4.26,28.74,14.94,36.08,28.79l-64.4,32.64c-33.09,16.59-73.57,7.51-96.23-21.58c-14.55-18.66-24.63-39.89-29.98-63.11
		c-19.88-86.32,33.98-173.32,120.05-193.94c37.97-9.09,77.9-4.22,112.44,13.73c34.11,17.72,60.85,46.95,75.31,82.32
		c0.04,0.1,0.08,0.19,0.13,0.29c1.57,3.11,1.69,6.74,0.33,9.96c-1.36,3.21-4.05,5.65-7.38,6.7l-5.82,1.82
		c-1.98,0.62-3.16,2.64-2.72,4.67l2.01,9.19c2.84,12.97,13.49,22.34,26.04,24.06l-18.03,22.15c-4.25,5.22-4.8,12.62-1.35,18.4
		c2.68,4.51,7.21,7.36,12.44,7.81c0.48,0.04,0.97,0.07,1.45,0.07c4.35,0,8.41-1.75,11.46-4.88c0.17,0.37,0.39,0.71,0.67,1.02
		c0.1,0.1,5.09,5.46,10.43,13.51c-10.32,5.16-41.19,19.26-84.19,26.9c-2.17,0.38-3.62,2.46-3.24,4.64c0.25,1.39,1.19,2.47,2.4,2.98
		c0.48,4.52,1.65,12.17,4.37,18.64c-2.74,0.14-5.45,0.2-8.12,0.14c-2.2-0.05-4.03,1.7-4.08,3.91c-0.05,2.21,1.7,4.04,3.91,4.09
		c5.97,0.12,12.16-0.25,18.41-0.99l4.94,9.34c-6.77,1.09-14,2.41-21.78,4.02c-4.63,0.97-9.47-0.86-12.32-4.66l-16.75-22.27
		c-1.33-1.76-3.84-2.12-5.6-0.79c-1.77,1.33-2.12,3.84-0.79,5.6l16.75,22.27c3.87,5.15,9.96,8.11,16.26,8.11
		c1.36,0,2.72-0.14,4.08-0.42c17.86-3.7,61.12-11.47,89.59-6.75L398.846,355.353z M356.406,231.043c2.2-0.23,3.79-2.2,3.56-4.39
		c-0.23-2.2-2.2-3.8-4.39-3.57c-13.6,1.43-26.3,7.65-35.75,17.53l-4.32,4.5c-0.33,0.35-0.69,0.67-1.04,0.98l-1.4-7.26
		c-0.75-3.91,0.14-7.83,2.51-11.03c2.38-3.2,5.87-5.19,9.83-5.61c2.8-0.29,5.38-1.75,7.07-4.01c1.7-2.25,2.38-5.13,1.89-7.9
		l-4.41-24.6c0.8-0.12,1.59-0.29,2.37-0.5c6.6-1.79,11.87-6.44,14.46-12.76l0.9-2.2c0.84-2.04-0.14-4.38-2.19-5.22
		c-2.04-0.84-4.38,0.14-5.22,2.19l-0.89,2.19c-1.64,4-4.97,6.95-9.15,8.07c-4.17,1.14-8.53,0.27-11.96-2.35
		c-1.76-1.35-4.09-1.79-6.22-1.17l-16.37,4.76c-15.4,4.47-25.59,19.31-24.25,35.28l0.58,6.92c0.47,5.56,2.32,10.96,5.37,15.63
		l6.96,10.68c3.97,6.09,10.4,9.97,17.64,10.65c0.75,0.07,1.49,0.1,2.23,0.1c6.44,0,12.56-2.6,17.07-7.3l4.31-4.51
		C333.746,237.633,344.686,232.273,356.406,231.043z M352.146,283.973c2.02-0.9,2.93-3.27,2.03-5.28
		c-2.68-6.02-7.83-10.6-14.12-12.57c-6.29-1.96-13.12-1.13-18.76,2.29l-5.18,3.15c-9.17,5.58-20.24,6.72-30.37,3.15
		c-10.12-3.57-18.02-11.42-21.66-21.52c-3.78-10.46-4.38-21.7-1.73-32.51c5.37-21.93-0.96-44.54-16.94-60.5
		c-15.98-15.95-38.61-22.24-60.53-16.83l-61.15,15.1c-2.15,0.53-3.46,2.7-2.93,4.84c0.53,2.15,2.7,3.46,4.84,2.93l61.16-15.1
		c19.18-4.73,38.98,0.77,52.96,14.73c13.98,13.95,19.52,33.74,14.82,52.93c-3.02,12.34-2.34,25.18,1.97,37.13
		c4.46,12.37,14.13,21.97,26.53,26.34c4.75,1.68,9.67,2.51,14.56,2.51c7.88,0,15.7-2.15,22.63-6.36l5.18-3.15
		c3.67-2.23,8.12-2.77,12.22-1.49c4.09,1.28,7.45,4.26,9.19,8.18C347.766,283.963,350.136,284.873,352.146,283.973z"/>
	<path d="M359.966,226.653c0.23,2.19-1.36,4.16-3.56,4.39c-11.72,1.23-22.66,6.59-30.81,15.1l-4.31,4.51
		c-4.51,4.7-10.63,7.3-17.07,7.3c-0.74,0-1.48-0.03-2.23-0.1c-7.24-0.68-13.67-4.56-17.64-10.65l-6.96-10.68
		c-3.05-4.67-4.9-10.07-5.37-15.63l-0.58-6.92c-1.34-15.97,8.85-30.81,24.25-35.28l16.37-4.76c2.13-0.62,4.46-0.18,6.22,1.17
		c3.43,2.62,7.79,3.49,11.96,2.35c4.18-1.12,7.51-4.07,9.15-8.07l0.89-2.19c0.84-2.05,3.18-3.03,5.22-2.19
		c2.05,0.84,3.03,3.18,2.19,5.22l-0.9,2.2c-2.59,6.32-7.86,10.97-14.46,12.76c-0.78,0.21-1.57,0.38-2.37,0.5l4.41,24.6
		c0.49,2.77-0.19,5.65-1.89,7.9c-1.69,2.26-4.27,3.72-7.07,4.01c-3.96,0.42-7.45,2.41-9.83,5.61c-2.37,3.2-3.26,7.12-2.51,11.03
		l1.4,7.26c0.35-0.31,0.71-0.63,1.04-0.98l4.32-4.5c9.45-9.88,22.15-16.1,35.75-17.53
		C357.766,222.853,359.736,224.453,359.966,226.653z M326.086,213.383c0.21-0.28,0.55-0.88,0.4-1.69l-4.71-26.3
		c-2.83-0.65-5.53-1.87-7.96-3.64l-15.9,4.62c-11.75,3.42-19.53,14.74-18.51,26.93l0.58,6.92c0.36,4.24,1.77,8.37,4.1,11.93
		l6.96,10.68c2.63,4.03,6.89,6.6,11.68,7.05c1.45,0.14,2.88,0.05,4.28-0.2l-1.8-9.34c-1.16-6.05,0.28-12.36,3.95-17.31
		c3.67-4.95,9.29-8.15,15.42-8.8C325.396,214.153,325.876,213.663,326.086,213.383z"/>
	<linearGradient id="SVGID_20_" gradientUnits="userSpaceOnUse" x1="246.7788" y1="166.4945" x2="185.1015" y2="211.3057">
		<stop  offset="0" style="stop-color:#000000"/>
		<stop  offset="0.0406" style="stop-color:#090909;stop-opacity:0.9149"/>
		<stop  offset="0.1056" style="stop-color:#202020;stop-opacity:0.7787"/>
		<stop  offset="0.187" style="stop-color:#464646;stop-opacity:0.6083"/>
		<stop  offset="0.2814" style="stop-color:#7B7B7B;stop-opacity:0.4105"/>
		<stop  offset="0.3855" style="stop-color:#BEBEBE;stop-opacity:0.1924"/>
		<stop  offset="0.4774" style="stop-color:#FFFFFF;stop-opacity:0"/>
	</linearGradient>
	<path style="fill:url(#SVGID_20_);" d="M145.176,156.353l110,88c0,0,3.323-39.337,4.66-42.67c1.337-3.333-1.997-40-39.33-52
		S145.176,156.353,145.176,156.353z"/>
	<path d="M354.176,278.693c0.9,2.01-0.01,4.38-2.03,5.28c-2.01,0.9-4.38-0.01-5.28-2.03c-1.74-3.92-5.1-6.9-9.19-8.18
		c-4.1-1.28-8.55-0.74-12.22,1.49l-5.18,3.15c-6.93,4.21-14.75,6.36-22.63,6.36c-4.89,0-9.81-0.83-14.56-2.51
		c-12.4-4.37-22.07-13.97-26.53-26.34c-4.31-11.95-4.99-24.79-1.97-37.13c4.7-19.19-0.84-38.98-14.82-52.93
		c-13.98-13.96-33.78-19.46-52.96-14.73l-61.16,15.1c-2.14,0.53-4.31-0.78-4.84-2.93c-0.53-2.14,0.78-4.31,2.93-4.84l61.15-15.1
		c21.92-5.41,44.55,0.88,60.53,16.83c15.98,15.96,22.31,38.57,16.94,60.5c-2.65,10.81-2.05,22.05,1.73,32.51
		c3.64,10.1,11.54,17.95,21.66,21.52c10.13,3.57,21.2,2.43,30.37-3.15l5.18-3.15c5.64-3.42,12.47-4.25,18.76-2.29
		C346.346,268.093,351.496,272.673,354.176,278.693z"/>
	<linearGradient id="SVGID_21_" gradientUnits="userSpaceOnUse" x1="293.8202" y1="348.4778" x2="317.0468" y2="308.2482">
		<stop  offset="0" style="stop-color:#000000"/>
		<stop  offset="0.0406" style="stop-color:#090909;stop-opacity:0.9149"/>
		<stop  offset="0.1056" style="stop-color:#202020;stop-opacity:0.7787"/>
		<stop  offset="0.187" style="stop-color:#464646;stop-opacity:0.6083"/>
		<stop  offset="0.2814" style="stop-color:#7B7B7B;stop-opacity:0.4105"/>
		<stop  offset="0.3855" style="stop-color:#BEBEBE;stop-opacity:0.1924"/>
		<stop  offset="0.4774" style="stop-color:#FFFFFF;stop-opacity:0"/>
	</linearGradient>
	<polyline style="fill:url(#SVGID_21_);" points="272.506,320.683 298.506,351.183 332.506,346.183 323.506,328.183 
		316.006,328.183 310.006,304.183 	"/>
	<path d="M474.316,421.043c1.94,4.77-0.35,10.26-5.1,12.25l-20.3,8.53l-0.7,12.32c-0.25,4.09-3.07,7.53-7.02,8.57l-23.41,6.29
		c-0.81,0.21-1.63,0.32-2.45,0.32c-1.44,0-2.86-0.32-4.15-0.95l-14.83-7.24c-3.75-1.85-5.83-5.84-5.19-9.95l3.63-23.1
		c0.08-0.49-0.1-0.99-0.47-1.31l-50.34-44.76l-49.96-2.93c-23.03-1.36-41.05-20.48-41.03-43.54c0.01-6.89-1.22-13.55-3.49-19.76
		l-64.05,32.46c-8.35,4.19-17.14,6.89-26.01,8.19l-45.86,36.35c-3.39,2.62-5.59,6.37-6.24,10.57l-6.66,42.95
		c-0.77,4.95-4.59,8.95-9.49,9.97l-35.12,7.13c-0.8,0.16-1.6,0.24-2.39,0.24c-5.56,0-10.6-3.89-11.81-9.53l-4.74-22.16l-9.87-4.95
		c-4.39-2.22-6.99-6.8-6.61-11.69l2.42-32.36c0.18-2.33,1.02-4.54,2.43-6.41l8.62-11.31c3.24-4.23,8.76-5.84,13.76-4l14.12,5.21
		c4.23,1.55,8.89,0.84,12.47-1.91l26.65-20.38c-8.2-5.15-15.61-11.75-21.81-19.71c-15.27-19.59-25.85-41.87-31.46-66.24
		c-11.9-51.65,1.38-103.52,31.72-142.59l-0.6-0.57c-3.1-2.97-7.12-4.61-11.38-4.63l-43.47-0.33c-5-0.04-9.52-3.23-11.23-7.94
		l-12.18-33.7c-2.24-6.18,0.95-13.09,7.12-15.4l21.23-7.92l3.47-10.49c1.55-4.67,5.71-7.9,10.59-8.25l32.37-2.32
		c2.33-0.16,4.65,0.35,6.7,1.48l12.44,6.88c4.66,2.57,7.06,7.8,5.97,13.02l-3.1,14.73c-0.92,4.41,0.46,8.92,3.71,12.05l11.36,11.07
		c17.8-13.22,38.45-23.13,61.26-28.6c39.84-9.54,81.74-4.43,117.99,14.41c16.55,8.6,31.44,19.78,44.18,32.99l6.17-6.71
		c0-0.07,0.01-0.13,0.01-0.19l1.86-39.02c0.17-3.64,2.48-6.9,5.87-8.3l30.3-12.28c4.77-1.93,10.27,0.36,12.26,5.11l8.52,20.3
		l12.32,0.7c4.09,0.24,7.53,3.06,8.57,7.01l6.3,23.41c0.58,2.25,0.35,4.58-0.64,6.6l-7.24,14.84c-1.84,3.75-5.84,5.83-9.95,5.18
		l-23.1-3.63c-0.49-0.08-0.98,0.1-1.31,0.48l-22.13,24.88c2.55,4.83,4.89,9.79,6.97,14.88c2.57,5.19,2.74,11.2,0.49,16.54
		c-2.28,5.38-6.79,9.47-12.36,11.21l-2.33,0.73l1.23,5.61c2.59,11.88,14.03,19.69,26.05,17.78c1.14-0.18,2.3,0.13,3.19,0.87
		c0.89,0.74,1.41,1.83,1.44,2.98l1.06,44.38c4.36,4.92,20.61,24.42,23.87,45.58c0.26,1.68-0.57,3.33-2.06,4.14
		c-1.53,0.82-3.47,1.8-5.73,2.89c2.67,0.94,5.41,1.94,7.49,2.84c1.5,0.64,2.45,2.12,2.43,3.74c-0.19,11.59-8.05,27.68-10.57,32.54
		l1.6,6.15c1.77,6.78,0.64,13.75-3.08,19.53l11.03,10.14c0.06,0,0.12,0,0.19,0.01l39.02,1.86c3.64,0.17,6.9,2.47,8.29,5.87
		L474.316,421.043z M466.126,425.913c0.72-0.3,1.07-1.14,0.78-1.87l-12.27-30.28c-0.22-0.52-0.71-0.88-1.27-0.9l-38.88-1.86
		c-1.86,0.06-3.63-0.61-5.04-1.82c-0.04-0.03-0.08-0.06-0.11-0.09l-11.18-10.28c-4.33,3.51-9.7,5.43-15.39,5.43
		c-0.5,0-1-0.02-1.5-0.05l-24.39-1.43l42.73,38c2.44,2.12,3.6,5.33,3.1,8.56l-3.63,23.1c-0.1,0.62,0.23,1.24,0.8,1.52l14.82,7.24
		c0.4,0.19,0.8,0.16,1.06,0.09l23.39-6.29c0.62-0.17,1.05-0.69,1.08-1.31l1.49-26.16c0.13-2.2,2.01-3.89,4.22-3.76
		c2.21,0.12,3.89,2.01,3.77,4.22l-0.28,4.96L466.126,425.913z M420.356,95.223c0.2-0.41,0.16-0.8,0.09-1.06l-6.29-23.39
		c-0.16-0.62-0.68-1.05-1.31-1.09l-26.15-1.49c-2.21-0.12-3.89-2.01-3.77-4.22c0.13-2.2,2.01-3.89,4.22-3.76l4.96,0.28l-7.01-16.7
		c-0.31-0.73-1.15-1.08-1.87-0.78l-30.28,12.27c-0.52,0.21-0.88,0.71-0.91,1.27l-1.85,38.87c0.03,1.85-0.62,3.64-1.82,5.05
		c-0.04,0.04-0.07,0.07-0.1,0.11l-6.83,7.42c6.83,7.78,12.93,16.18,18.23,25.09l20.28-22.79c2.12-2.43,5.33-3.6,8.55-3.09
		l23.11,3.63c0.61,0.1,1.23-0.23,1.51-0.8L420.356,95.223z M399.436,340.363c2.69-5.57,6.95-15.36,7.92-23.16
		c-1.8-0.69-3.82-1.41-5.76-2.07l-5.76,24.67C397.136,339.983,398.336,340.173,399.436,340.363z M403.406,300.263
		c0.56-0.28,1.09-0.54,1.59-0.8c-1.47-6.81-4.42-13.45-7.7-19.3c-0.65,0.33-1.37,0.69-2.2,1.1
		C397.476,285.913,401.396,293.973,403.406,300.263z M395.606,370.143c3.42-4.18,4.6-9.57,3.24-14.79l-1.9-7.3
		c-28.47-4.72-71.73,3.05-89.59,6.75c-1.36,0.28-2.72,0.42-4.08,0.42c-6.3,0-12.39-2.96-16.26-8.11l-16.75-22.27
		c-1.33-1.76-0.98-4.27,0.79-5.6c1.76-1.33,4.27-0.97,5.6,0.79l16.75,22.27c2.85,3.8,7.69,5.63,12.32,4.66
		c7.78-1.61,15.01-2.93,21.78-4.02l-4.94-9.34c-6.25,0.74-12.44,1.11-18.41,0.99c-2.21-0.05-3.96-1.88-3.91-4.09
		c0.05-2.21,1.88-3.96,4.08-3.91c2.67,0.06,5.38,0,8.12-0.14c-2.72-6.47-3.89-14.12-4.37-18.64c-1.21-0.51-2.15-1.59-2.4-2.98
		c-0.38-2.18,1.07-4.26,3.24-4.64c43-7.64,73.87-21.74,84.19-26.9c-5.34-8.05-10.33-13.41-10.43-13.51
		c-0.28-0.31-0.5-0.65-0.67-1.02c-3.05,3.13-7.11,4.88-11.46,4.88c-0.48,0-0.97-0.03-1.45-0.07c-5.23-0.45-9.76-3.3-12.44-7.81
		c-3.45-5.78-2.9-13.18,1.35-18.4l18.03-22.15c-12.55-1.72-23.2-11.09-26.04-24.06l-2.01-9.19c-0.44-2.03,0.74-4.05,2.72-4.67
		l5.82-1.82c3.33-1.05,6.02-3.49,7.38-6.7c1.36-3.22,1.24-6.85-0.33-9.96c-0.05-0.1-0.09-0.19-0.13-0.29
		c-14.46-35.37-41.2-64.6-75.31-82.32c-34.54-17.95-74.47-22.82-112.44-13.73c-86.07,20.62-139.93,107.62-120.05,193.94
		c5.35,23.22,15.43,44.45,29.98,63.11c22.66,29.09,63.14,38.17,96.23,21.58l64.4-32.64c-7.34-13.85-20.2-24.53-36.08-28.79
		c-2.13-0.58-3.4-2.77-2.83-4.9c0.58-2.14,2.77-3.4,4.9-2.83c19.43,5.21,34.87,18.87,42.84,36.35c0.02,0.05,0.06,0.09,0.08,0.14
		c0.05,0.1,0.08,0.21,0.12,0.31c3.69,8.26,5.72,17.35,5.71,26.81c-0.01,18.82,14.7,34.44,33.49,35.54l87.25,5.12
		C387.116,376.533,392.176,374.313,395.606,370.143z M387.816,338.983l5.97-25.58c-3.79,1.6-7.96,3.28-12.42,4.96l-1.61,20.26
		C382.676,338.683,385.366,338.803,387.816,338.983z M392.526,305.263c1.25-0.54,2.43-1.06,3.57-1.58
		c-1.65-5.76-5.85-14.34-8.25-19.02c-1.22,0.55-2.54,1.13-3.93,1.72C386.446,291.133,390.456,299.063,392.526,305.263z
		 M385.126,308.343c-1.61-5.06-5.48-13-8.64-18.89c-2.06,0.81-4.23,1.65-6.52,2.5c2.85,5.09,7.08,12.82,9.75,18.51
		C381.576,309.753,383.386,309.053,385.126,308.343z M381.356,247.333l-0.6-25.24l-16.55,20.32c-2.14,2.63-2.41,6.35-0.68,9.26
		c1.35,2.27,3.63,3.7,6.26,3.93s5.12-0.78,6.85-2.78L381.356,247.333z M371.736,338.613l1.37-17.27c-2.02,0.7-4.07,1.39-6.17,2.07
		l-0.71,15.37C368.136,338.703,369.976,338.653,371.736,338.613z M372.186,313.243c-2.77-5.8-7.18-13.8-9.86-18.57
		c-1.53,0.53-3.12,1.05-4.73,1.58c1.35,5.01,3.54,13.77,4.32,20.42C365.446,315.563,368.876,314.413,372.186,313.243z
		 M358.196,339.253l0.62-13.33c-3.14,0.92-6.33,1.8-9.56,2.62l1.62,11.34C353.416,339.633,355.856,339.423,358.196,339.253z
		 M354.116,319.003c-0.42-5.09-2.39-13.71-4.16-20.36c-5.49,1.65-11.37,3.26-17.62,4.78c0.61,7.78,1.85,16.09,3.23,20.06
		C341.836,322.243,348.066,320.713,354.116,319.003z M342.916,340.753l-1.47-10.36c-3.48,0.76-6.97,1.44-10.46,2.02l4.9,9.27
		C338.296,341.343,340.646,341.033,342.916,340.753z M327.666,324.873c-1.82-5.85-2.75-14.02-3.21-19.62
		c-2.75,0.61-5.56,1.19-8.42,1.75c0.56,5.26,2,13.45,4.95,18.76C323.206,325.513,325.426,325.213,327.666,324.873z M108.656,386.483
		l36.79-29.17c-12.73-0.23-25.29-3.27-36.71-8.91l-29.4,22.48c-5.75,4.42-13.27,5.57-20.09,3.07l-14.13-5.22
		c-1.68-0.62-3.54-0.07-4.62,1.36l-8.62,11.3c-0.48,0.62-0.77,1.38-0.83,2.17l-2.42,32.35c-0.12,1.65,0.75,3.19,2.23,3.94
		l30.47,15.3c1.97,0.99,2.77,3.39,1.78,5.37c-0.7,1.39-2.11,2.2-3.58,2.2c-0.6,0-1.21-0.14-1.79-0.42l-11.43-5.74l3.4,15.87
		c0.46,2.17,2.61,3.57,4.78,3.13l35.1-7.13c1.64-0.34,2.93-1.69,3.19-3.36l6.66-42.94
		C100.396,395.893,103.676,390.333,108.656,386.483z M106.206,88.253l-10.56-10.28c-5.23-5.05-7.46-12.32-5.97-19.44l3.1-14.73
		c0.36-1.72-0.47-3.53-2.01-4.38l-12.44-6.88c-0.69-0.38-1.48-0.55-2.26-0.5l-32.37,2.32c-1.65,0.12-3.05,1.21-3.57,2.78
		l-10.7,32.38c-0.69,2.09-2.95,3.23-5.05,2.54c-2.1-0.69-3.24-2.96-2.54-5.05l4.01-12.15l-15.21,5.68c-2.07,0.77-3.15,3.1-2.4,5.18
		l12.18,33.69c0.57,1.58,2.09,2.66,3.78,2.67l43.46,0.33c6.3,0.04,12.28,2.46,16.83,6.83l0.16,0.15
		C91.176,101.753,98.376,94.673,106.206,88.253z"/>
</g>
<g>
</g>
<g>
</g>
<g>
</g>
<g>
</g>
<g>
</g>
<g>
</g>
<g>
</g>
<g>
</g>
<g>
</g>
<g>
</g>
<g>
</g>
<g>
</g>
<g>
</g>
<g>
</g>
<g>
</g>
</svg>
