<?xml version="1.0" encoding="iso-8859-1"?>
<!-- Generator: Adobe Illustrator 19.0.0, SVG Export Plug-In . SVG Version: 6.00 Build 0)  -->
<svg xmlns="http://www.w3.org/2000/svg" xmlns:xlink="http://www.w3.org/1999/xlink" version="1.1" id="Layer_1" x="0px" y="0px" viewBox="0 0 502 502" style="enable-background:new 0 0 502 502;" xml:space="preserve" width="512" height="512">
<g>
	<g>
		<circle style="fill:#FBB03B;" cx="251" cy="251" r="241"/>
		<path d="M251,502c-67.044,0-130.076-26.108-177.484-73.517C26.108,381.076,0,318.045,0,251S26.108,120.924,73.516,73.517    C120.924,26.108,183.956,0,251,0s130.076,26.108,177.484,73.517C475.892,120.924,502,183.955,502,251    s-26.108,130.076-73.516,177.483C381.076,475.892,318.044,502,251,502z M251,20C123.626,20,20,123.626,20,251s103.626,231,231,231    s231-103.626,231-231S378.374,20,251,20z"/>
	</g>
	<g>
		<path d="M360.994,344.779c-2.177,0-4.369-0.707-6.207-2.164c-4.671-3.704-9.932-7.187-15.636-10.35    c-4.83-2.678-6.575-8.765-3.896-13.595c2.678-4.829,8.764-6.576,13.595-3.896c6.659,3.692,12.838,7.786,18.365,12.168    c4.327,3.432,5.054,9.722,1.622,14.049C366.862,343.481,363.942,344.779,360.994,344.779z"/>
	</g>
	<path d="M408.65,350.239h-25.436c-0.097,0-0.194,0.008-0.291,0.01c-0.084,0.004-0.171,0.006-0.25,0.013   c-1.451,0.076-2.909,0.458-4.269,1.202c-4.846,2.648-6.628,8.725-3.979,13.571c4.061,7.431,6.12,15.157,6.12,22.965   c0,5.522,4.477,10,10,10s10-4.478,10-10c0-6.007-0.838-11.942-2.485-17.761h10.59c5.523,0,10-4.478,10-10   S414.173,350.239,408.65,350.239z"/>
	<path d="M311.73,299.692c-19.158-5.437-39.611-8.192-60.792-8.192c-60.527,0-114.862,23.39-137.892,58.739H92.722   c-5.523,0-10,4.478-10,10s4.477,10,10,10h11.095c-1.647,5.819-2.485,11.754-2.485,17.761c0,5.522,4.477,10,10,10s10-4.478,10-10   c0-7.808,2.059-15.534,6.12-22.965c8.112-14.842,24.248-28.288,45.437-37.86c22.697-10.255,49.686-15.675,78.05-15.675   c19.334,0,37.95,2.501,55.333,7.433c5.314,1.507,10.843-1.578,12.35-6.891C320.128,306.729,317.043,301.2,311.73,299.692z"/>
	<g>
		<path style="fill:#F2F2F2;" d="M197.75,136.75c1.506,0,2.991,0.142,4.455,0.404C194.723,118.945,182.197,107,168,107    c-22.92,0-41.5,31.116-41.5,69.5c0,35.862,16.221,65.372,37.045,69.096c-4.598-11.188-7.295-24.737-7.295-39.346    C156.25,167.866,174.83,136.75,197.75,136.75z"/>
		<g>
			<path style="fill:#50A5DC;" d="M209.5,176.5c0-14.609-2.697-28.158-7.295-39.346c-1.464-0.262-2.95-0.404-4.455-0.404     c-22.92,0-41.5,31.116-41.5,69.5c0,14.609,2.697,28.158,7.295,39.346c1.464,0.262,2.95,0.404,4.455,0.404     C190.92,246,209.5,214.884,209.5,176.5z"/>
			<path d="M211.454,133.353C202.101,110.59,185.855,97,168,97c-28.879,0-51.5,34.92-51.5,79.5c0,41.049,19.045,74.248,45.285,78.94     c2.078,0.372,4.169,0.56,6.215,0.56c28.879,0,51.5-34.92,51.5-79.5C219.5,161.082,216.718,146.162,211.454,133.353z M136.5,176.5     c0-35.064,16.601-59.5,31.5-59.5c6.356,0,12.825,4.268,18.223,11.669l0.015,0.019c-23.155,7.873-39.987,39.114-39.987,77.562     c0,4.664,0.259,9.28,0.76,13.808l-0.006-0.007C140.838,209.579,136.5,194.498,136.5,176.5z M170.604,235.756     c-2.858-9-4.354-19.074-4.354-29.506c0-33.031,14.733-56.631,28.896-59.256c2.858,9,4.354,19.074,4.354,29.506     C199.5,209.531,184.767,233.131,170.604,235.756z"/>
		</g>
		<path style="fill:#F2F2F2;" d="M363.25,136.75c1.506,0,2.991,0.142,4.455,0.404C360.223,118.945,347.697,107,333.5,107    c-22.92,0-41.5,31.116-41.5,69.5c0,35.862,16.221,65.372,37.045,69.096c-4.598-11.188-7.295-24.737-7.295-39.346    C321.75,167.866,340.33,136.75,363.25,136.75z"/>
		<g>
			<path style="fill:#50A5DC;" d="M375,176.5c0-14.609-2.697-28.158-7.295-39.346c-1.464-0.262-2.95-0.404-4.455-0.404     c-22.92,0-41.5,31.116-41.5,69.5c0,14.609,2.697,28.158,7.295,39.346c1.464,0.262,2.95,0.404,4.455,0.404     C356.42,246,375,214.884,375,176.5z"/>
			<path d="M376.954,133.353C367.601,110.59,351.355,97,333.5,97c-28.879,0-51.5,34.92-51.5,79.5     c0,41.049,19.045,74.248,45.285,78.94c2.078,0.372,4.169,0.56,6.215,0.56c28.879,0,51.5-34.92,51.5-79.5     C385,161.082,382.218,146.162,376.954,133.353z M302,176.5c0-35.064,16.601-59.5,31.5-59.5c6.356,0,12.825,4.268,18.223,11.669     l0.015,0.019c-23.155,7.873-39.987,39.114-39.987,77.562c0,4.664,0.259,9.28,0.76,13.808l-0.006-0.007     C306.338,209.579,302,194.498,302,176.5z M336.104,235.756c-2.858-9-4.354-19.074-4.354-29.506     c0-33.031,14.733-56.631,28.896-59.256c2.858,9,4.354,19.074,4.354,29.506C365,209.531,350.267,233.131,336.104,235.756z"/>
		</g>
	</g>
</g>















</svg>
