<?xml version="1.0" encoding="iso-8859-1"?>
<!-- Generator: Adobe Illustrator 19.0.0, SVG Export Plug-In . SVG Version: 6.00 Build 0)  -->
<svg version="1.1" id="Layer_1" xmlns="http://www.w3.org/2000/svg" xmlns:xlink="http://www.w3.org/1999/xlink" x="0px" y="0px"
	 viewBox="0 0 502.8 502.8" style="enable-background:new 0 0 502.8 502.8;" xml:space="preserve">
<circle style="fill:#D9E0E3;" cx="250.4" cy="251.45" r="247.7"/>
<path style="fill:#ECF4F7;" d="M235.9,4.25c-129.6,8-232.2,115.6-232.2,247.2s102.6,239.2,232.2,247.2
	c129.6-8,232.2-115.6,232.2-247.2S365.5,12.25,235.9,4.25z"/>
<g>
	<path style="fill:#D9E0E3;" d="M483.2,262.15c-32.5-1.8-42.5,0.5-67.6,6.6c-18.8,3.7-33.5,8.4-50.8,17.6
		c-17.2,9.3-32.8,20.4-47.6,34.3c-14.8,13.9-27,28.9-37.5,45.8s-18.4,34.8-24.6,53.7c-7.2,22.5-10,45.2-10.2,68l-0.5,10l-0.1,1.7
		c6.6,0.1,16.5,0.3,25.5,0.1l-0.1-9.4c-1.2-21.3,0.2-42.7,5.8-64.1c4.8-18,11.4-35.2,20.5-51.5c9.1-16.4,20-31,33.4-44.9
		s27.8-25.2,43.8-34.8c16.1-9.6,33-17.6,50.9-22.1c23.8-7.2,48.5-9.3,72.4-8C496.6,265.15,485.3,262.25,483.2,262.15z"/>
	<path style="fill:#D9E0E3;" d="M211.3,7.05l0.2,3.8c1.7,20.3,1,40.7-3.9,61.3c-4.1,17.3-9.9,33.8-18.2,49.7
		c-8.3,15.8-18.3,30.1-30.7,43.7c-12.5,13.6-25.8,24.8-40.9,34.4s-31,17.6-47.9,22.5c-21.3,7.1-43.6,9.9-65.4,9.6
		c0,0.2,0,0.5-0.1,0.7c3.4,0.7,8.2,1.8,9.5,1.8c31.1,0.8,40.6-1.6,64.3-8.1c17.8-4,31.8-8.9,48-18.2s30.7-20.3,44.5-34
		c13.7-13.7,25-28.3,34.6-44.6c9.6-16.4,16.6-33.7,22-51.8c6.3-21.6,8.4-43.4,7.9-65.1l0.1-8.2C227.2,4.85,219.2,5.75,211.3,7.05z"
		/>
</g>
<path style="fill:#51565F;" d="M268,502.75c-2.6,0-4.3-1.7-4.3-4.3c-1.7-23.9,0-47.8,6-70l-20.5-5.1c-1.7-0.9-3.4-2.6-3.4-4.3v-0.9
	c0.9-2.6,2.6-3.4,5.1-3.4l20.5,5.1c4.3-15.4,11.1-30.7,18.8-44.4l-18.8-11.1c-1.7-0.9-2.6-2.6-2.6-3.4s0-1.7,0.9-2.6
	c0.9-1.7,3.4-2.6,6-1.7l18.8,11.1c8.5-13.7,17.9-26.5,29-38.4l-15.4-15.4c-0.9-0.9-0.9-1.7-0.9-3.4s0-2.6,0.9-3.4
	c1.7-1.7,4.3-1.7,6,0l15.4,15.4c11.9-11.1,24.7-21.3,38.4-29l-11.1-18.8c0-0.9-0.9-1.7-0.9-2.6c0-1.7,0.9-2.6,2.6-3.4
	c1.7-0.9,4.3-0.9,6,1.7l11.1,18.8c14.5-7.7,29-13.7,44.4-18.8l-5.1-20.5v-0.9c0-1.7,0.9-3.4,3.4-4.3c2.6-0.9,4.3,0.9,5.1,3.4
	l5.1,20.5c23-6,46.1-7.7,70-6c2.6,0,4.3,2.6,4.3,4.3c-4.3,60.6-29.9,117.8-73.4,161.3C385.8,472.05,328.6,498.45,268,502.75
	L268,502.75z M277.4,430.25c-5.1,20.5-6.8,41.8-6,63.1c57.2-5.1,110.9-29.9,151-70c41-41,65.7-93.9,70-151
	c-21.3-1.7-42.7,0.9-63.1,6l5.1,20.5v0.9c0,1.7-0.9,3.4-3.4,4.3c-2.6,0.9-4.3-0.9-5.1-3.4l-5.1-20.5c-14.5,4.3-29,10.2-42.7,17.9
	l10.2,18.8c0,0.9,0.9,1.7,0.9,2.6c0,1.7-0.9,2.6-2.6,3.4s-4.3,0.9-6-1.7l-10.2-18.9c-12.8,7.7-25.6,17.1-36.7,28.2l15.4,15.4
	c0.9,0.9,0.9,1.7,0.9,3.4s0,2.6-0.9,3.4c-1.7,1.7-4.3,1.7-6,0l-15.4-15.4c-11.1,11.1-20.5,23.9-28.2,36.7l18.8,10.2
	c1.7,0.9,2.6,2.6,2.6,3.4c0,0.9,0,1.7-0.9,2.6c-0.9,1.7-3.4,2.6-6,1.7l-18.8-10.2c-7.7,13.7-13.7,28.2-17.9,42.7l20.5,5.1
	c1.7,0.9,3.4,2.6,3.4,4.3v0.9c-0.9,2.6-2.6,3.4-5.1,3.4L277.4,430.25z M233.9,501.95L233.9,501.95c-60.6-4.3-117.8-29.9-160.4-73.4
	c-42.7-42.7-69.1-99.9-73.4-160.5c0-2.6,1.7-4.3,4.3-4.3s4.3,1.7,4.3,4.3c4.3,58,29,113.5,70.8,154.5c41,41,96.4,66.6,154.5,70.8
	c2.6,0,4.3,2.6,4.3,4.3C238.2,500.15,235.6,501.95,233.9,501.95z M83.7,256.95c-1.7,0-3.4-0.9-4.3-3.4l-5.1-20.5
	c-23,6-46.1,7.7-70,6c-2.6,0-4.3-2.6-4.3-4.3c4.4-60.5,30-117.7,73.5-161.2c42.6-42.7,99.8-69.1,161.3-73.4c2.6,0,4.3,1.7,4.3,4.3
	c1.7,23.9,0,47.8-6,70l20.5,5.1c1.7,0.9,3.4,2.6,3.4,4.3v0.9c-0.9,2.6-2.6,3.4-5.1,3.4l-20.5-5.1c-4.3,15.4-11.1,30.7-18.8,44.4
	l18.8,11.1c1.7,0.9,2.6,2.6,2.6,3.4c0,0.9,0,1.7-0.9,2.6c-0.9,1.7-3.4,2.6-6,1.7l-18.8-11.1c-8.5,13.7-17.9,26.5-29,38.4l15.4,15.4
	c0.9,0.9,0.9,1.7,0.9,3.4s0,2.6-0.9,3.4c-1.7,1.7-4.3,1.7-6,0l-15.4-15.4c-11.9,11.1-24.7,21.3-38.4,29l11.1,18.8
	c0,0.9,0.9,1.7,0.9,2.6c0,1.7-0.9,2.6-2.6,3.4c-1.7,0.9-4.3,0.9-6-1.7l-11.1-19c-14.5,7.7-29,13.7-44.4,18.8l5.1,20.5v0.9
	c0,1.7-0.9,3.4-3.4,4.3C84.6,256.95,83.7,256.95,83.7,256.95z M8.6,230.55c21.3,1.7,42.7-0.9,63.1-6l-5.1-20.5v-0.9
	c0-1.7,0.9-3.4,3.4-4.3c2.6-0.9,4.3,0.9,5.1,3.4l5.1,20.5c14.5-4.3,29-10.2,42.7-17.9l-10.2-18.8c0-0.9-0.9-1.7-0.9-1.7
	c0-1.7,0.9-2.6,2.6-3.4c1.7-0.9,4.3-0.9,6,1.7l10.2,18.8c12.8-7.7,25.6-17.1,36.7-28.2l-15.4-15.4c-0.9-0.9-0.9-1.7-0.9-3.4
	s0-2.6,0.9-3.4c1.7-1.7,4.3-1.7,6,0l15.4,15.4c11.1-11.1,20.5-23.9,28.2-36.7l-18.8-10.2c-1.7-0.9-2.6-2.6-2.6-3.4s0-1.7,0.9-2.6
	c0.9-1.7,3.4-2.6,6-1.7l18.8,10.2c7.7-13.7,13.7-28.2,17.9-42.7l-20.5-5.1c-1.7-0.9-3.4-2.6-3.4-4.3v-0.9c0.9-2.6,2.6-3.4,5.1-3.4
	l20.5,5.1c5.1-20.5,6.8-41.8,6-63.1c-57.2,5.1-110.9,29.9-151,70C38.5,119.65,13.7,173.35,8.6,230.55z M497.6,238.25
	c-2.6,0-4.3-1.7-4.3-4.3c-4.3-58-29-113.5-70.8-154.5c-41-41-96.4-66.6-154.5-70.8c-2.6,0-4.3-2.6-4.3-4.3c0-2.6,2.6-4.3,4.3-4.3
	c60.6,4.4,117.8,30,160.5,73.5c42.7,42.7,69.1,99.8,73.4,160.4C502.7,235.65,501,238.25,497.6,238.25
	C498.4,238.25,498.4,238.25,497.6,238.25z"/>
<g>
</g>
<g>
</g>
<g>
</g>
<g>
</g>
<g>
</g>
<g>
</g>
<g>
</g>
<g>
</g>
<g>
</g>
<g>
</g>
<g>
</g>
<g>
</g>
<g>
</g>
<g>
</g>
<g>
</g>
</svg>
