<?xml version="1.0" encoding="iso-8859-1"?>
<!-- Generator: Adobe Illustrator 19.0.0, SVG Export Plug-In . SVG Version: 6.00 Build 0)  -->
<svg version="1.1" id="Layer_1" xmlns="http://www.w3.org/2000/svg" xmlns:xlink="http://www.w3.org/1999/xlink" x="0px" y="0px"
	 viewBox="0 0 512 512" style="enable-background:new 0 0 512 512;" xml:space="preserve">
<g>
	<polygon style="fill:#CACED9;" points="44.869,356.55 44.869,503.932 194.021,503.932 194.021,281.086 	"/>
	<polygon style="fill:#CACED9;" points="467.131,356.55 467.131,503.932 317.98,503.932 317.98,281.086 	"/>
</g>
<g>
	<polygon style="fill:#FF9A4E;" points="206.423,289.871 44.869,371.61 27.658,343.649 189.213,261.91 	"/>
	<polygon style="fill:#FF9A4E;" points="305.576,289.871 467.131,371.61 484.341,343.649 322.787,261.91 	"/>
</g>
<polygon style="opacity:0.1;enable-background:new    ;" points="370.009,503.932 370.009,285.802 322.787,261.91 305.576,289.871 
	317.98,296.147 317.98,503.932 "/>
<polygon style="opacity:0.1;enable-background:new    ;" points="194.02,296.147 206.423,289.871 189.213,261.91 141.991,285.802 
	141.991,503.932 194.02,503.932 "/>
<polygon style="fill:#DDE1ED;" points="337.738,165.389 256,105.605 174.262,165.389 174.262,503.932 337.738,503.932 "/>
<polygon style="fill:#FF9A4E;" points="337.738,179.373 256,119.589 174.262,179.373 141.991,162.995 256,79.608 370.01,162.995 "/>
<g>
	<path style="fill:#B1B5BF;" d="M256,185.491c-15.692,0-28.414,12.721-28.414,28.414v53.416h56.827v-53.416
		C284.413,198.213,271.692,185.491,256,185.491z"/>
	<path style="fill:#B1B5BF;" d="M98.754,383.186c-13.779,0-24.95,11.171-24.95,24.95v46.905h49.901v-46.905
		C123.705,394.357,112.534,383.186,98.754,383.186z"/>
	<path style="fill:#B1B5BF;" d="M413.245,383.186c13.779,0,24.95,11.171,24.95,24.95v46.905h-49.901v-46.905
		C388.295,394.357,399.466,383.186,413.245,383.186z"/>
</g>
<rect x="215.438" y="365.72" style="fill:#FF9A4E;" width="81.128" height="138.214"/>
<path d="M284.414,275.389c4.455,0,8.068-3.612,8.068-8.068v-53.416c0-20.116-16.365-36.482-36.482-36.482
	s-36.482,16.365-36.482,36.482v53.416c0,4.455,3.612,8.068,8.068,8.068L284.414,275.389L284.414,275.389z M235.654,213.905
	c0-11.218,9.127-20.346,20.346-20.346c11.219,0,20.346,9.127,20.346,20.346v45.349h-40.693L235.654,213.905L235.654,213.905z"/>
<path d="M73.804,463.109h49.901c4.455,0,8.068-3.612,8.068-8.068v-46.905c0-18.206-14.812-33.018-33.018-33.018
	s-33.018,14.812-33.018,33.018v46.905C65.736,459.497,69.348,463.109,73.804,463.109z M81.871,408.137
	c0-9.309,7.574-16.883,16.883-16.883s16.883,7.574,16.883,16.883v38.837H81.871V408.137z"/>
<path d="M388.296,463.109h49.901c4.455,0,8.068-3.612,8.068-8.068v-46.905c0-18.206-14.812-33.018-33.018-33.018
	s-33.018,14.812-33.018,33.018v46.905C380.229,459.497,383.841,463.109,388.296,463.109z M396.364,408.137
	c0-9.309,7.574-16.883,16.883-16.883s16.883,7.574,16.883,16.883v38.837h-33.766V408.137z"/>
<path d="M36.802,373.893v130.039c0,4.455,3.612,8.068,8.068,8.068h129.392h41.171c0.002,0,0.003,0,0.003,0h81.128h0.005h41.171
	h129.392c4.455,0,8.068-3.612,8.068-8.068V373.893l16.014-26.016c1.183-1.922,1.506-4.251,0.894-6.423
	c-0.613-2.172-2.108-3.986-4.122-5.005l-41.986-21.243c-3.975-2.012-8.829-0.42-10.841,3.557c-2.012,3.976-0.42,8.829,3.557,10.841
	l34.159,17.283l-8.724,14.172l-2.63-1.331l-115.714-58.546v-18.587l62.446,31.595c3.976,2.013,8.829,0.42,10.841-3.556
	c2.012-3.976,0.42-8.829-3.557-10.842l-69.731-35.28v-80.19l27.855-14.137c2.501-1.269,4.164-3.746,4.391-6.542
	c0.226-2.796-1.014-5.509-3.279-7.164L264.068,75.513V41.148h16.554c4.455,0,8.068-3.612,8.068-8.068s-3.612-8.068-8.068-8.068
	h-16.554V8.068C264.068,3.612,260.456,0,256,0c-4.455,0-8.068,3.612-8.068,8.068v16.945h-16.554c-4.455,0-8.068,3.612-8.068,8.068
	s3.612,8.068,8.068,8.068h16.554v34.365l-110.705,80.97c-2.263,1.655-3.505,4.368-3.279,7.164c0.227,2.796,1.889,5.273,4.39,6.542
	l27.854,14.137v23.542c0,4.455,3.612,8.068,8.068,8.068c4.455,0,8.068-3.612,8.068-8.068v-24.4l37.117-27.148l36.554-26.736
	l34.409,25.167l39.262,28.717v86.007v36.669v189.721H304.63V365.724c0-4.455-3.612-8.068-8.068-8.068h-81.126
	c-4.455,0-8.068,3.612-8.068,8.068v130.141h-25.041V306.143v-36.669v-29.336c0-4.455-3.612-8.068-8.068-8.068
	c-4.455,0-8.068,3.612-8.068,8.068v24.377L24.016,336.449c-2.014,1.019-3.509,2.834-4.122,5.005
	c-0.613,2.172-0.29,4.501,0.893,6.423L36.802,373.893z M459.063,376.569v119.295H345.807V319.267L459.063,376.569z M311.441,150.142
	l-50.677-37.066c-2.837-2.074-6.69-2.074-9.525,0l-33.858,24.764l-43.883,32.096l-16.135-8.189L256,89.603l98.64,72.145
	l-16.135,8.189L311.441,150.142z M223.504,373.791h64.99v122.074h-64.99L223.504,373.791L223.504,373.791z M166.194,495.865H52.937
	V376.569l113.257-57.303V495.865z M166.194,282.597v18.587L50.48,359.729l-2.63,1.331l-8.724-14.172L166.194,282.597z"/>
<g>
</g>
<g>
</g>
<g>
</g>
<g>
</g>
<g>
</g>
<g>
</g>
<g>
</g>
<g>
</g>
<g>
</g>
<g>
</g>
<g>
</g>
<g>
</g>
<g>
</g>
<g>
</g>
<g>
</g>
</svg>
