<?xml version="1.0" encoding="iso-8859-1"?>
<!-- Generator: Adobe Illustrator 19.0.0, SVG Export Plug-In . SVG Version: 6.00 Build 0)  -->
<svg xmlns="http://www.w3.org/2000/svg" xmlns:xlink="http://www.w3.org/1999/xlink" version="1.1" id="Layer_1" x="0px" y="0px" viewBox="0 0 393.652 393.652" style="enable-background:new 0 0 393.652 393.652;" xml:space="preserve" width="512" height="512">
<g>
	<rect x="170.212" y="152.226" style="fill:#5C6670;" width="53.23" height="57.395"/>
	<rect x="170.212" y="152.226" style="opacity:0.2;fill:#222222;" width="26.615" height="57.395"/>
	<path style="opacity:0.2;fill:#222222;" d="M170.212,152.226v14.156c8.471,2.369,17.389,3.663,26.615,3.663   c9.226,0,18.144-1.294,26.615-3.663v-14.156H170.212z"/>
	<g>
		<path style="fill:#7D868C;" d="M120.401,112.067c13.969,28.079,42.937,47.382,76.426,47.382c33.49,0,62.459-19.303,76.428-47.382    H120.401z"/>
		<path style="opacity:0.1;fill:#222222;" d="M120.401,112.067c13.969,28.079,42.937,47.382,76.426,47.382v-47.382H120.401z"/>
		<path style="opacity:0.2;fill:#222222;" d="M120.401,112.067c3.604,7.245,8.213,13.898,13.633,19.794H259.62    c5.422-5.896,10.031-12.549,13.635-19.794H120.401z"/>
		<path style="fill:#A4A9AD;" d="M270.126,124.046H123.528c-6.615,0-11.977-5.363-11.977-11.979c0-6.614,5.361-11.977,11.977-11.977    h146.598c6.615,0,11.979,5.362,11.979,11.977C282.105,118.683,276.741,124.046,270.126,124.046z"/>
	</g>
	<path style="fill:#00B3E3;" d="M347.554,182.338c-4.142,0-7.5-3.358-7.5-7.5c0-12.798-10.411-23.21-23.209-23.21   c-12.799,0-23.211,10.412-23.211,23.21c0,4.142-3.357,7.5-7.5,7.5c-4.143,0-7.5-3.358-7.5-7.5c0-21.069,17.142-38.21,38.211-38.21   c21.068,0,38.209,17.141,38.209,38.21C355.054,178.98,351.696,182.338,347.554,182.338z"/>
	<g>
		<path style="fill:#00B3E3;" d="M107.52,182.338c-4.142,0-7.5-3.358-7.5-7.5c0-12.798-10.413-23.21-23.211-23.21    c-6.204,0-12.035,2.417-16.421,6.807c-2.928,2.93-7.677,2.932-10.606,0.005c-2.931-2.928-2.933-7.677-0.005-10.607    c7.219-7.226,16.819-11.205,27.032-11.205c21.069,0,38.211,17.141,38.211,38.21C115.02,178.98,111.662,182.338,107.52,182.338z"/>
		<path style="fill:#00B3E3;" d="M46.101,182.338c-4.143,0-7.5-3.358-7.5-7.5c0-3.078,0.367-6.143,1.093-9.11    c0.984-4.024,5.042-6.488,9.067-5.505c4.023,0.984,6.487,5.044,5.504,9.067c-0.44,1.803-0.664,3.669-0.664,5.548    C53.601,178.98,50.242,182.338,46.101,182.338z"/>
	</g>
	<path style="fill:#00B3E3;" d="M289.289,17.169C278.229,6.098,263.52,0.001,247.872,0.001c-21.892,0-41.002,12.084-51.045,29.925   C186.784,12.085,167.674,0,145.783,0c-32.281,0-58.544,26.263-58.544,58.544c0,4.142,3.357,7.5,7.5,7.5c4.142,0,7.5-3.358,7.5-7.5   c0-24.01,19.533-43.544,43.544-43.544c24.01,0,43.544,19.534,43.544,43.544v20.378c0,4.142,3.357,7.5,7.5,7.5   c4.143,0,7.5-3.358,7.5-7.5V58.544c0-24.01,19.534-43.543,43.545-43.543c11.639,0,22.579,4.535,30.806,12.769   c2.928,2.93,7.677,2.933,10.606,0.005C292.215,24.848,292.217,20.099,289.289,17.169z M304.736,44.576   c-0.985-4.022-5.047-6.485-9.07-5.498c-4.022,0.986-6.484,5.047-5.498,9.069c0.827,3.376,1.247,6.874,1.247,10.396   c0,4.142,3.357,7.5,7.5,7.5c4.143,0,7.5-3.358,7.5-7.5C306.415,53.819,305.851,49.12,304.736,44.576z"/>
	<g>
		<rect x="96.931" y="216.127" style="fill:#7D868C;" width="199.794" height="75.517"/>
		<g>
			<path style="fill:#969DA2;" d="M135.494,237.403c-10.122,0-18.329,8.207-18.329,18.33v35.91h36.659v-35.91     C153.824,245.61,145.617,237.403,135.494,237.403z"/>
			<path style="fill:#969DA2;" d="M196.826,237.403c-10.123,0-18.329,8.207-18.329,18.33v35.91h36.659v-35.91     C215.156,245.61,206.948,237.403,196.826,237.403z"/>
			<path style="fill:#969DA2;" d="M258.158,237.403c-10.122,0-18.33,8.207-18.33,18.33v35.91h36.659v-35.91     C276.487,245.61,268.28,237.403,258.158,237.403z"/>
		</g>
		<rect x="96.931" y="216.127" style="opacity:0.1;fill:#222222;" width="99.896" height="75.517"/>
		<rect x="96.931" y="216.127" style="opacity:0.2;fill:#222222;" width="199.794" height="27.126"/>
		<path style="fill:#A4A9AD;" d="M295.47,221.598H98.185c-6.615,0-11.978-5.362-11.978-11.978c0-6.615,5.362-11.978,11.978-11.978    H295.47c6.615,0,11.978,5.362,11.978,11.978C307.448,216.235,302.085,221.598,295.47,221.598z"/>
	</g>
	<g>
		<rect x="26.001" y="294.326" style="fill:#7D868C;" width="341.65" height="99.326"/>
		<g>
			<path style="fill:#969DA2;" d="M64.503,335.141c-10.921,0-19.774,8.854-19.774,19.773v38.738h39.546v-38.738     C84.275,343.994,75.423,335.141,64.503,335.141z"/>
			<path style="fill:#969DA2;" d="M130.664,335.141c-10.92,0-19.773,8.854-19.773,19.773v38.738h39.545v-38.738     C150.437,343.994,141.584,335.141,130.664,335.141z"/>
			<path style="fill:#969DA2;" d="M196.826,335.141c-10.92,0-19.773,8.854-19.773,19.773v38.738H216.6v-38.738     C216.6,343.994,207.745,335.141,196.826,335.141z"/>
			<path style="fill:#969DA2;" d="M262.988,335.141c-10.919,0-19.773,8.854-19.773,19.773v38.738h39.547v-38.738     C282.762,343.994,273.907,335.141,262.988,335.141z"/>
			<path style="fill:#969DA2;" d="M329.149,335.141c-10.919,0-19.772,8.854-19.772,19.773v38.738h39.547v-38.738     C348.924,343.994,340.069,335.141,329.149,335.141z"/>
		</g>
		<rect x="26.001" y="294.326" style="opacity:0.1;fill:#222222;" width="170.825" height="99.326"/>
		<rect x="26.001" y="294.326" style="opacity:0.2;fill:#222222;" width="341.65" height="27.127"/>
		<path style="fill:#A4A9AD;" d="M375.172,306.304H18.48c-6.615,0-11.977-5.363-11.977-11.978c0-6.615,5.362-11.978,11.977-11.978    h356.691c6.614,0,11.978,5.362,11.978,11.978C387.149,300.94,381.786,306.304,375.172,306.304z"/>
	</g>
</g>















</svg>
